<mxfile host="app.diagrams.net" modified="2023-03-07T16:26:58.547Z" agent="5.0 (X11; Linux x86_64) AppleWebKit/537.36 (KHTML, like Gecko) Chrome/110.0.0.0 Safari/537.36" etag="KVT7Hhbdl9PWTsockFxh" version="21.0.2" type="github" pages="2">
  <diagram name="VBackground-1 (Background)" id="VBackground-1">
    <mxGraphModel dx="1434" dy="705" grid="1" gridSize="10" guides="1" tooltips="1" connect="1" arrows="1" fold="1" page="1" pageScale="1" pageWidth="827" pageHeight="1169" math="0" shadow="0">
      <root>
        <mxCell id="0" />
        <mxCell id="1" parent="0" />
        <UserObject label="" tags="Background" id="2">
          <mxCell style="vsdxID=1;fillColor=#ffffff;gradientColor=none;shape=stencil(nZBLDoAgDERP0z3SIyjew0SURgSD+Lu9kMZoXLhwN9O+tukAlrNpJg1SzDH4QW/URgNYgZTkjA4UkwJUgGXng+6DX1zLfmoymdXo17xh5zmRJ6Q42BWCfc2oJfdAr+Yv+AP9Cb7OJ3H/2JG1HNGz/84klThPVCc=);strokeColor=none;points=[];labelBackgroundColor=none;rounded=0;html=1;whiteSpace=wrap;" parent="1" vertex="1">
            <mxGeometry width="965" height="787" as="geometry" />
          </mxCell>
        </UserObject>
      </root>
    </mxGraphModel>
  </diagram>
  <diagram name="Page-1" id="Page-1">
    <mxGraphModel dx="2261" dy="705" grid="1" gridSize="10" guides="1" tooltips="1" connect="1" arrows="1" fold="1" page="1" pageScale="1" pageWidth="827" pageHeight="1169" math="0" shadow="0">
      <root>
        <mxCell id="0" />
        <mxCell id="2" value="VBackground-1" parent="0" />
        <mxCell id="iPCdchc5uqQMENR0zOKD-183" value="" style="rounded=0;whiteSpace=wrap;html=1;" vertex="1" parent="2">
          <mxGeometry x="-100" y="50" width="1090" height="670" as="geometry" />
        </mxCell>
        <mxCell id="XdmQlQuw1DZMQMczZoxi-238" value="" style="whiteSpace=wrap;html=1;aspect=fixed;fillColor=#dae8fc;strokeColor=#6c8ebf;" parent="2" vertex="1">
          <mxGeometry x="317" y="130" width="570" height="570" as="geometry" />
        </mxCell>
        <mxCell id="XdmQlQuw1DZMQMczZoxi-232" value="" style="shape=image;html=1;verticalAlign=top;verticalLabelPosition=bottom;labelBackgroundColor=#ffffff;imageAspect=0;aspect=fixed;image=https://cdn2.iconfinder.com/data/icons/boxicons-solid-vol-1/24/bxs-bolt-circle-128.png" parent="2" vertex="1">
          <mxGeometry x="456" y="290" width="50" height="50" as="geometry" />
        </mxCell>
        <mxCell id="XdmQlQuw1DZMQMczZoxi-233" value="&lt;font face=&quot;Segoe UI&quot; style=&quot;font-size: 15px;&quot;&gt;Function Apps for&lt;br&gt;Containers App&lt;br&gt;Service&lt;/font&gt;" style="text;html=1;align=center;verticalAlign=middle;resizable=0;points=[];autosize=1;strokeColor=none;fillColor=none;" parent="2" vertex="1">
          <mxGeometry x="416" y="335" width="130" height="70" as="geometry" />
        </mxCell>
        <UserObject label="" tags="Connector" id="XdmQlQuw1DZMQMczZoxi-235">
          <mxCell style="vsdxID=139;edgeStyle=none;startArrow=none;endArrow=block;startSize=5;endSize=5;strokeWidth=2;strokeColor=#000000;spacingTop=0;spacingBottom=0;spacingLeft=0;spacingRight=0;verticalAlign=middle;html=1;labelBackgroundColor=#ffffff;rounded=0;entryX=0.351;entryY=-0.004;entryDx=0;entryDy=0;entryPerimeter=0;" parent="2" target="4" edge="1">
            <mxGeometry relative="1" as="geometry">
              <mxPoint x="12" y="-1" as="offset" />
              <Array as="points" />
              <mxPoint x="484" y="400" as="sourcePoint" />
              <mxPoint x="476" y="440" as="targetPoint" />
            </mxGeometry>
          </mxCell>
        </UserObject>
        <UserObject label="" tags="Connector" id="XdmQlQuw1DZMQMczZoxi-236">
          <mxCell style="vsdxID=139;edgeStyle=none;startArrow=none;endArrow=block;startSize=5;endSize=5;strokeWidth=2;strokeColor=#000000;spacingTop=0;spacingBottom=0;spacingLeft=0;spacingRight=0;verticalAlign=middle;html=1;labelBackgroundColor=#ffffff;rounded=0;entryX=0.5;entryY=0;entryDx=0;entryDy=0;exitX=0.5;exitY=0;exitDx=0;exitDy=0;exitPerimeter=0;" parent="2" source="56" target="XdmQlQuw1DZMQMczZoxi-232" edge="1">
            <mxGeometry relative="1" as="geometry">
              <mxPoint x="12" y="-1" as="offset" />
              <Array as="points" />
              <mxPoint x="494" y="410" as="sourcePoint" />
              <mxPoint x="494" y="456" as="targetPoint" />
            </mxGeometry>
          </mxCell>
        </UserObject>
        <mxCell id="XdmQlQuw1DZMQMczZoxi-239" value="&lt;ol style=&quot;font-size: 14px;&quot;&gt;&lt;li&gt;&lt;font face=&quot;Verdana&quot; style=&quot;font-size: 14px;&quot;&gt;Convert existing web application to container.&lt;/font&gt;&lt;/li&gt;&lt;li&gt;&lt;font style=&quot;font-size: 14px;&quot; face=&quot;Verdana&quot;&gt;Publish container image to Azure Container Registry.&lt;/font&gt;&lt;/li&gt;&lt;li&gt;&lt;font style=&quot;font-size: 14px;&quot; face=&quot;Verdana&quot;&gt;App Service pulls image with managed identity, which&lt;br&gt;uses an&amp;nbsp;Azure Active Directory security principal to &lt;br&gt;access to Azure Container Registry.&lt;/font&gt;&lt;/li&gt;&lt;li&gt;&lt;font style=&quot;font-size: 14px;&quot; face=&quot;Verdana&quot;&gt;Service connectors to access other Azure resources.&lt;/font&gt;&lt;/li&gt;&lt;li&gt;&lt;font style=&quot;font-size: 14px;&quot;&gt;&lt;font style=&quot;font-size: 14px;&quot; face=&quot;Verdana&quot;&gt;Push new image to the container registry, triggering&lt;br&gt;App Service updates.&lt;/font&gt;&lt;br&gt;&lt;/font&gt;&lt;/li&gt;&lt;/ol&gt;" style="text;html=1;align=left;verticalAlign=middle;resizable=0;points=[];autosize=1;strokeColor=none;fillColor=none;" parent="2" vertex="1">
          <mxGeometry x="-70" y="410" width="370" height="180" as="geometry" />
        </mxCell>
        <mxCell id="1" value="Page-1" parent="0" />
        <UserObject label="&lt;div style=&quot;font-size: 1px&quot;&gt;&lt;/div&gt;" tags="Background" id="4">
          <mxCell style="verticalAlign=middle;align=center;vsdxID=68;fillColor=#f2f2f2;gradientColor=none;shape=stencil(nZBLDoAgDERP0z3SIyjew0SURgSD+Lu9kMZoXLhwN9O+tukAlrNpJg1SzDH4QW/URgNYgZTkjA4UkwJUgGXng+6DX1zLfmoymdXo17xh5zmRJ6Q42BWCfc2oJfdAr+Yv+AP9Cb7OJ3H/2JG1HNGz/84klThPVCc=);strokeColor=#939393;points=[];labelBackgroundColor=none;rounded=0;html=1;whiteSpace=wrap;" parent="1" vertex="1">
            <mxGeometry x="336" y="447" width="424" height="243" as="geometry" />
          </mxCell>
        </UserObject>
        <UserObject label="" tags="Background" id="5">
          <mxCell style="vsdxID=5;fillColor=none;gradientColor=none;strokeColor=none;spacingTop=-3;spacingBottom=-3;spacingLeft=-3;spacingRight=-3;points=[[0.5,1.31,0],[0.5,0,0],[0,0.5,0],[1,0.5,0]];labelBackgroundColor=none;rounded=0;html=1;whiteSpace=wrap;" parent="1" vertex="1">
            <mxGeometry x="584" y="294" width="48" height="48" as="geometry" />
          </mxCell>
        </UserObject>
        <mxCell id="6" style="vsdxID=6;fillColor=none;gradientColor=none;strokeColor=none;spacingTop=-3;spacingBottom=-3;spacingLeft=-3;spacingRight=-3;points=[[0.5,1.31,0],[0.5,0,0],[0,0.5,0],[1,0.5,0]];labelBackgroundColor=none;rounded=0;html=1;whiteSpace=wrap;" parent="5" vertex="1">
          <mxGeometry width="48" height="48" as="geometry" />
        </mxCell>
        <mxCell id="7" style="vsdxID=7;fillColor=#000000;gradientColor=none;shape=stencil(fVLLcsMgDPwarhqBeJ7T5D8yjVMzde0McVr374sLTi1PxzexrNhFWkGHe3u+NULhfUzDe/MVL2Mr6EUoFfu2SXHMlaCjoMN1SM1bGh79pZxv55k5Vx/D5/zCVPqcAwpzl8LvgnjzezwV9usjFbost8ZB8JVfIYlYgEkVgBBw4VQoWNAVmqi2GUBdWfQ0I2lPHblyNuP8RhsMcWkVIBgurRQE4tJSL6wq3cV+Nab8rmZTyny7a1UToOV2N2NyCD5wrxqQuFVvwDhuNXuxuzt6LmQR1vm/iovnhZDl4tmP3AxqnQ76Lx65+EvWNXZdCeb6fpvEDJUU0/EH);strokeColor=none;spacingTop=-3;spacingBottom=-3;spacingLeft=-3;spacingRight=-3;points=[[0.5,1.31,0],[0.5,0,0],[0,0.5,0],[1,0.5,0]];labelBackgroundColor=none;rounded=0;html=1;whiteSpace=wrap;" parent="6" vertex="1">
          <mxGeometry width="48" height="48" as="geometry" />
        </mxCell>
        <mxCell id="8" style="vsdxID=8;fillColor=#FFFFFF;gradientColor=none;fillOpacity=60;strokeOpacity=60;shape=stencil(lZVBcoMwDEVPw1ZjS7Zlr9P2HpmGNEzTkCFJm96+phgTmYFOd0ZIfnz5W1S0uRy257pCdbl27Xv91eyuh4qeKsTmdKi75hpXFT1XtNm3Xf3WtbfTbng+b/vMfvXRfvY73Ic6cqCpr0L1nSIB2P5GXoaC11s3VOghwRKQSyUphBpc2uWOQ4gdoE5ZKaQ12BS6UwoplXIo55g1eHDgWcI5KxjZgQC9ZMdvlmQfgFCy1RqYGbhQrYCDBDsHFEowG0m2FlhLsh8jC3BjoBCtCUKhmsz0hZjPxaKkowNjJZ00qNWmkwJjJJ8wi8h8Am8K8VEqS/6j4WjBccfm9D+LSk9bCFbkx2PxtCoQjJf6mMCy1Bd7KdV5NfNz4WbP4y4LYA1EEhwU6KKxCL64SQHBWkk20xGlSDDg1y8ycAl34ArVbmrmCPdAhaX9ZPviYi/pjipxJtz6ouPRZCjhXufhk2fI3FGMo++X+AiFdNbABd5n8450F6YrTzOz0YLbpJ3/dmdcTON63xyPw7R/fF+O9xgafg30/AM=);strokeColor=none;spacingTop=-3;spacingBottom=-3;spacingLeft=-3;spacingRight=-3;points=[[0.5,1.31,0],[0.5,0,0],[0,0.5,0],[1,0.5,0]];labelBackgroundColor=none;rounded=0;html=1;whiteSpace=wrap;" parent="6" vertex="1">
          <mxGeometry x="5" y="7" width="35" height="32" as="geometry" />
        </mxCell>
        <mxCell id="9" style="vsdxID=9;fillColor=#f2f2f2;gradientColor=none;fillOpacity=55;strokeOpacity=55;shape=stencil(lZLLbsMgEEW/hu1oHoTHOk3/I2qcGtW1I8dp3b8vLtgtSInU3XC5wwHmKtlf2+OlUYzXaRzems9wmlolT4o59G0zhilWSg5K9udhbF7H4daf0vpyXJxL9T58LCfMqY8Qlx7Gr7S2Bqz+UZ6T/eU2Jj8lg0Ngl1uytGPA1IMzJ8lYEM6uLLEBpuyS7CLQu+zKEj5ii9tAK5viEb5kU2Tbiq2BSzSWWLHgzCO0AaHq1R6QKrIB70qy9WB9iRYCp0v8OoU7cO1BpKQ7vz1ypVsBrP7c0XbtWeqBy52Jd6H/T0Bi8Ruuc+i6lM2/+3UYo5SCLIdv);strokeColor=none;spacingTop=-3;spacingBottom=-3;spacingLeft=-3;spacingRight=-3;points=[[0.5,1.31,0],[0.5,0,0],[0,0.5,0],[1,0.5,0]];labelBackgroundColor=none;rounded=0;html=1;whiteSpace=wrap;" parent="6" vertex="1">
          <mxGeometry x="5" y="9" width="4" height="9" as="geometry" />
        </mxCell>
        <mxCell id="10" style="vsdxID=10;fillColor=#000000;gradientColor=none;shape=stencil(vVHLDsIgEPwajiQI6RfU+h8bu22JCGRB2/69kG1iazx58DazM/vIjjBtmiCi0CplCjecbZ8nYc5Ca+snJJsLEqYTph0C4Ujh4XvmEaqzont41gkL96naodXKrGF6YSfQtUi0OXXDVlqPfJNP6usotUhYbJIUMmQb/GGrAxpRljVycDBuc1hKM2LclX8/7H9nFfB+82Cd45T2+mcspcSRmu4F);strokeColor=none;spacingTop=-3;spacingBottom=-3;spacingLeft=-3;spacingRight=-3;points=[[0.5,1.31,0],[0.5,0,0],[0,0.5,0],[1,0.5,0]];labelBackgroundColor=none;rounded=0;html=1;whiteSpace=wrap;" parent="6" vertex="1">
          <mxGeometry x="5" y="16" width="13" height="13" as="geometry" />
        </mxCell>
        <mxCell id="11" style="vsdxID=11;fillColor=#f2f2f2;gradientColor=none;fillOpacity=55;strokeOpacity=55;shape=stencil(lZVLUsMwDIZPk63GtmzZXvO4BwOFZigtE8rr9ijEcSJlMLBLVcmfJf2SO7x42d887zpnXs7D6XH33t+d9x1eds71x/1u6M/81eFVhxf3p2H3MJxej3fT7+eb0XP8ejq9jSd8THFoAccgZz4nAxHk+G25nvxvX4cpwC4RtoQUUyCIbjJ9uOKFYKh4FZPnk4sTFicCG4rTbMoQm3gXIZHEuwQ5SLwz4JzE2wAhSb5F8BJvWugMyUtyBpskOID1Gy4qrpFQGyFSC+yXWi5VIC/JCbzKmMu7TdiojD3f2LXgNs2n1HYH8Kjq7SEnSSdfL1T7bcEniY8W0q9yi5Ifubmk5MZeKntKQHbDR4nfqP3QH/81HXKaUoRMIoDz883exgwhq/yWMs35scnp+rL41DwRLurD2gXCFn+MUfWlAEpbaydXKzGbWvjftsk6Zk6fY6zir4Qzy53Ae8kPCYJaJxkhNPEsEpV9TuCixEdeMFnirTESnvKyFrGeVBT400JBcKr32YBRs5V5jBU9mc1OqReqpc+QfZNOYNQi58maE610u5lsFmNQk70W/jLZUvlytP4wKvyxPFv3/eEwvXrr//Uzx6bpicSrLw==);strokeColor=none;spacingTop=-3;spacingBottom=-3;spacingLeft=-3;spacingRight=-3;points=[[0.5,1.31,0],[0.5,0,0],[0,0.5,0],[1,0.5,0]];labelBackgroundColor=none;rounded=0;html=1;whiteSpace=wrap;" parent="6" vertex="1">
          <mxGeometry x="13" y="28" width="28" height="11" as="geometry" />
        </mxCell>
        <mxCell id="12" style="vsdxID=12;fillColor=#000000;gradientColor=none;shape=stencil(vVHLDsIgEPwajiQI6RfU+h8bu22JCGRB2/69kG1iazx58DazM/vIjjBtmiCi0CplCjecbZ8nYc5Ca+snJJsLEqYTph0C4Ujh4XvmEaqzont41gkL96naodXKrGF6YSfQtUi0OXXDVlqPfJNP6usotUhYbJIUMmQb/GGrAxpRljVycDBuc1hKM2LclX8/7H9nFfB+82Cd45T2+mcspcSRmu4F);strokeColor=none;spacingTop=-3;spacingBottom=-3;spacingLeft=-3;spacingRight=-3;points=[[0.5,1.31,0],[0.5,0,0],[0,0.5,0],[1,0.5,0]];labelBackgroundColor=none;rounded=0;html=1;whiteSpace=wrap;" parent="6" vertex="1">
          <mxGeometry x="22" y="31" width="9" height="9" as="geometry" />
        </mxCell>
        <mxCell id="13" style="vsdxID=13;fillColor=#f2f2f2;gradientColor=none;fillOpacity=70;strokeOpacity=70;shape=stencil(lZPBbsMgDIafhqsFtglw7tr3qNZ0iZYlVZpuzduPDNLWHCLtZn5sf9jYinbX5nipFerrNA6f9U97mhpFbwqx7Zt6bKdoKdor2p2Hsf4Yh1t/SufLcfFcrK/he8lwT3HBQKAlCvWcFKP13/mQ3N9vY/I3OYDAZP9VsWBsku74kEKW5lXS4Hz2IknScxa8Axu24M4DSrhDcCzh1gM5CbcWrGSzftadJaoAaYtOsQQn8WhBF7WjAe8l3iAELGpnYJb87bavBaxkA+QlmKGqJDd+FUts0XALaDb7DSEU2ADoJNfEX6MCjMBBktEDe0nn+GK3hWcHphi2yj7SrPwqZjaS7xm0k/zXQS/mL9O7tv/PYkTjuVTntuvSTr7el0sYpbTAtP8F);strokeColor=none;spacingTop=-3;spacingBottom=-3;spacingLeft=-3;spacingRight=-3;points=[[0.5,1.31,0],[0.5,0,0],[0,0.5,0],[1,0.5,0]];labelBackgroundColor=none;rounded=0;html=1;whiteSpace=wrap;" parent="6" vertex="1">
          <mxGeometry x="15" y="3" width="19" height="20" as="geometry" />
        </mxCell>
        <mxCell id="14" style="vsdxID=14;fillColor=#000000;gradientColor=none;shape=stencil(vVHLDsIgEPwajiQI6RfU+h8bu22JCGRB2/69kG1iazx58DazM/vIjjBtmiCi0CplCjecbZ8nYc5Ca+snJJsLEqYTph0C4Ujh4XvmEaqzont41gkL96naodXKrGF6YSfQtUi0OXXDVlqPfJNP6usotUhYbJIUMmQb/GGrAxpRljVycDBuc1hKM2LclX8/7H9nFfB+82Cd45T2+mcspcSRmu4F);strokeColor=none;spacingTop=-3;spacingBottom=-3;spacingLeft=-3;spacingRight=-3;points=[[0.5,1.31,0],[0.5,0,0],[0,0.5,0],[1,0.5,0]];labelBackgroundColor=none;rounded=0;html=1;whiteSpace=wrap;" parent="6" vertex="1">
          <mxGeometry x="32" y="20" width="9" height="9" as="geometry" />
        </mxCell>
        <mxCell id="15" style="vsdxID=15;fillColor=#f2f2f2;gradientColor=none;fillOpacity=55;strokeOpacity=55;shape=stencil(lVTLboMwEPwariPvrp/nNP2PqCEFlYaIkDb5+0LtNBgJqty8wwwDs7suZHOudqeyYHXuu/aj/K73fVXIS8FcH6uyq/vhVMi2kM2h7cr3rr0c97E+7UbmePpsv8Y3XKOOlBo1rG6x1gpa/yKvkd7UxwndMyRkAiGQWRZYNxcwY8XAaog8wTcE9hmfFIIsC7SD52cEwiCbCdSU/HbpYp6UPtfC60S/QwpEEbpy8jQwiZQQcXDJ5ipTH3VLpVFgt2ZtoVzubDSsnjkzjM6tjYd2uTUFEOf2dmj9ckosoLxv1oBWGjcMms0HwxloWhk9gcsF99ldiMMHBMrz8Oqvl/c8gobzszwGocnzCP4xxgmSAFn5vycX61/6cHjs8KFumngFTJ/Pd36A4n0h2x8=);strokeColor=none;spacingTop=-3;spacingBottom=-3;spacingLeft=-3;spacingRight=-3;points=[[0.5,1.31,0],[0.5,0,0],[0,0.5,0],[1,0.5,0]];labelBackgroundColor=none;rounded=0;html=1;whiteSpace=wrap;" parent="6" vertex="1">
          <mxGeometry x="40" y="26" width="5" height="4" as="geometry" />
        </mxCell>
        <mxCell id="16" style="vsdxID=16;fillColor=#000000;gradientColor=none;shape=stencil(vVHLDsIgEPwajiQI6RfU+h8bu22JCGRB2/69kG1iazx58DazM/vIjjBtmiCi0CplCjecbZ8nYc5Ca+snJJsLEqYTph0C4Ujh4XvmEaqzont41gkL96naodXKrGF6YSfQtUi0OXXDVlqPfJNP6usotUhYbJIUMmQb/GGrAxpRljVycDBuc1hKM2LclX8/7H9nFfB+82Cd45T2+mcspcSRmu4F);strokeColor=none;spacingTop=-3;spacingBottom=-3;spacingLeft=-3;spacingRight=-3;points=[[0.5,1.31,0],[0.5,0,0],[0,0.5,0],[1,0.5,0]];labelBackgroundColor=none;rounded=0;html=1;whiteSpace=wrap;" parent="6" vertex="1">
          <mxGeometry x="5" y="16" width="13" height="13" as="geometry" />
        </mxCell>
        <mxCell id="17" style="vsdxID=17;fillColor=#000000;gradientColor=none;shape=stencil(vVHLDsIgEPwajiQI6RfU+h8bu22JCGRB2/69kG1iazx58DazM/vIjjBtmiCi0CplCjecbZ8nYc5Ca+snJJsLEqYTph0C4Ujh4XvmEaqzont41gkL96naodXKrGF6YSfQtUi0OXXDVlqPfJNP6usotUhYbJIUMmQb/GGrAxpRljVycDBuc1hKM2LclX8/7H9nFfB+82Cd45T2+mcspcSRmu4F);strokeColor=none;spacingTop=-3;spacingBottom=-3;spacingLeft=-3;spacingRight=-3;points=[[0.5,1.31,0],[0.5,0,0],[0,0.5,0],[1,0.5,0]];labelBackgroundColor=none;rounded=0;html=1;whiteSpace=wrap;" parent="6" vertex="1">
          <mxGeometry x="22" y="31" width="9" height="9" as="geometry" />
        </mxCell>
        <mxCell id="18" value="&lt;div style=&quot;font-size: 1px&quot;&gt;&lt;font style=&quot;font-size:15.52px;font-family:Segoe UI;color:#000000;direction:ltr;letter-spacing:0px;line-height:120%;opacity:1&quot;&gt;Web Apps for Containers App Service&lt;br/&gt;&lt;/font&gt;&lt;/div&gt;" style="text;vsdxID=5;fillColor=none;gradientColor=none;strokeColor=none;spacingTop=-3;spacingBottom=-3;spacingLeft=-3;spacingRight=-3;points=[[0.5,1.31,0],[0.5,0,0],[0,0.5,0],[1,0.5,0]];labelBackgroundColor=none;rounded=0;html=1;whiteSpace=wrap;verticalAlign=middle;align=center;;html=1;" parent="5" vertex="1">
          <mxGeometry x="-26.42" y="48" width="101.6" height="55.89" as="geometry" />
        </mxCell>
        <UserObject label="" tags="Background" id="19">
          <mxCell style="vsdxID=18;fillColor=none;gradientColor=none;strokeColor=none;spacingTop=-3;spacingBottom=-3;spacingLeft=-3;spacingRight=-3;points=[[0.5,1.31,0],[0.5,0,0],[0,0.5,0],[1,0.5,0]];labelBackgroundColor=none;rounded=0;html=1;whiteSpace=wrap;" parent="1" vertex="1">
            <mxGeometry x="920" y="294" width="48" height="48" as="geometry" />
          </mxCell>
        </UserObject>
        <mxCell id="20" style="vsdxID=19;fillColor=#000000;gradientColor=none;shape=stencil(vZLBDoMgDIafhqMERUk8O/ceZKKSMTGFTff2w+AmmrgsHnZr6deWH35EC9PyXqCEGAv6KgZZ2RbRE0oS2bUCpHURoiWiRa1BNKDvXeXznk/kFN30Y5ow+j4ydSTkGWZnDyrZBWBMDqN5imkW4hwurgozTjFNPQ9zQ4aZ598Tc4YZW8387BgjPkoTgbbcSt2tVCkOjYjctqhWvFmVzCBEHxzH+3KW+212H1Wz9zp/0PLzH34BXbC4qZZKeTOG9a373JF3Li1f);strokeColor=none;spacingTop=-3;spacingBottom=-3;spacingLeft=-3;spacingRight=-3;points=[[0.5,1.31,0],[0.5,0,0],[0,0.5,0],[1,0.5,0]];labelBackgroundColor=none;rounded=0;html=1;whiteSpace=wrap;" parent="19" vertex="1">
          <mxGeometry y="12" width="48" height="35" as="geometry" />
        </mxCell>
        <mxCell id="21" style="vsdxID=20;fillColor=#0078d4;gradientColor=none;shape=stencil(vZLBEoIgEIafhqMOQjF1NnsPJlGZCJyF0t4+DCexRg8euu3++7E7u/yI5rbhrUAEWwfmKjpZugbREyJE6kaAdD5CtEA0rwyIGsxdlyFv+UAO0c08hg59eEdTyoZHBD+DgN/ZObBK6og9spStwBwuvgJT411gYYSzfcoOQRqZDONZu5hIeC9tAsZxJ42Ox2HFoRaJH5dUitezku2EaCM5W97mZzheWX07+llp85UWvugPJ1o3hw8mV1VSqWDKuP7tQi8FB9PiBQ==);strokeColor=none;spacingTop=-3;spacingBottom=-3;spacingLeft=-3;spacingRight=-3;points=[[0.5,1.31,0],[0.5,0,0],[0,0.5,0],[1,0.5,0]];labelBackgroundColor=none;rounded=0;html=1;whiteSpace=wrap;" parent="19" vertex="1">
          <mxGeometry width="48" height="12" as="geometry" />
        </mxCell>
        <mxCell id="22" style="vsdxID=21;fillColor=#f2f2f2;gradientColor=none;shape=stencil(vVPREoIgEPwaHnUQasxns/9gEpWJxDko7e/DsEypacZmfDvu9tjbg0U01RVrOCJYG1An3orcVIjuESGirjgIYyNEM0TTQgEvQV3q3J0b1iP76Kyu/Q2d68N9B8E3d9rhcEsfmYMDMzjaKgxgEpLE4WFoiJJwE7uUh3lC8MDRBawTOgBlmBGqnvBLBiUPLFtQSFZOSrrlvPHSw3xS1G9ikjiMo4/ki+W8pvc2tIKeOfk43mI9/opWex3vZ/z5NN92s4KUH66xwei3Qkjp7Ppen/vTppy3aXYH);strokeColor=none;spacingTop=-3;spacingBottom=-3;spacingLeft=-3;spacingRight=-3;points=[[0.5,1.31,0],[0.5,0,0],[0,0.5,0],[1,0.5,0]];labelBackgroundColor=none;rounded=0;html=1;whiteSpace=wrap;" parent="19" vertex="1">
          <mxGeometry x="6" y="3" width="35" height="5" as="geometry" />
        </mxCell>
        <mxCell id="23" value="&lt;div style=&quot;font-size: 1px&quot;&gt;&lt;font style=&quot;font-size:15.52px;font-family:Segoe UI;color:#000000;direction:ltr;letter-spacing:0px;line-height:120%;opacity:1&quot;&gt;Browser&lt;br/&gt;&lt;/font&gt;&lt;/div&gt;" style="text;vsdxID=18;fillColor=none;gradientColor=none;strokeColor=none;spacingTop=-3;spacingBottom=-3;spacingLeft=-3;spacingRight=-3;points=[[0.5,1.31,0],[0.5,0,0],[0,0.5,0],[1,0.5,0]];labelBackgroundColor=none;rounded=0;html=1;whiteSpace=wrap;verticalAlign=middle;align=center;;html=1;" parent="19" vertex="1">
          <mxGeometry x="-26.42" y="48" width="101.6" height="18.63" as="geometry" />
        </mxCell>
        <UserObject label="" tags="Background" id="32">
          <mxCell style="vsdxID=29;fillColor=none;gradientColor=none;strokeColor=none;spacingTop=-3;spacingBottom=-3;spacingLeft=-3;spacingRight=-3;points=[[0.5,1.3,0],[0.5,0,0],[0,0.5,0],[1,0.5,0]];labelBackgroundColor=none;rounded=0;html=1;whiteSpace=wrap;" parent="1" vertex="1">
            <mxGeometry x="451" y="470" width="44" height="50" as="geometry" />
          </mxCell>
        </UserObject>
        <mxCell id="33" style="vsdxID=30;fillColor=#000000;gradientColor=none;shape=stencil(fZPRkoIwDEW/pq+ZNhFpn133PxxF6SwLTsUV/16wFUiW4a1J720Pl1TR7lYeroVCfWtD81M8/KktFX0pRF+XRfBtv1K0V7Q7N6G4hOZen2J9PQzKYfXb/A0ndNGX6cGC+hlLk4F9N76j+HgPUW3iPiKQSw4jLLrD2PkcmUoLLlk64gJWphsrX8/wOJ3dAK7RaU7mEGzG0RA5m3Ngtxxu44A4n9ErhDJArpWEeQ5bI/JLjpFxbIyQBEYkOGloORoOOckXEpeMk9h8fmDuOOL8M/DfGJBIhpZnaz1HIe4X0wiffVXFFzDflyPft+Jzof0L);strokeColor=none;spacingTop=-3;spacingBottom=-3;spacingLeft=-3;spacingRight=-3;points=[[0.5,1.3,0],[0.5,0,0],[0,0.5,0],[1,0.5,0]];labelBackgroundColor=none;rounded=0;html=1;whiteSpace=wrap;" parent="32" vertex="1">
          <mxGeometry y="6" width="44" height="43" as="geometry" />
        </mxCell>
        <mxCell id="34" style="vsdxID=31;fillColor=#e8e8e8;gradientColor=none;shape=stencil(fZLRDoIwDEW/Zq/L1orgM+p/EAEhIpABCn8vS1HWRXhru9ud26YC465I2kyA6nrTPLJ3mfaFwLMAKOsiM2U/RwIvAuO8MdndNEOdUt4mVmmjZ/OyP4zUp5WyPaAmygNKr6S9DYbE2lcvhTCUEVVG+FWOehGB1zUig6gJuWCDCiDxxLnrlwtDcWQYyUPAoR5zf1BvTNAyCDjQNcU9bE25C3TXxj2M/ha/ONcU+pq/U87Begd5WVV0Ru67fzdziW4OLx8=);strokeColor=none;spacingTop=-3;spacingBottom=-3;spacingLeft=-3;spacingRight=-3;points=[[0.5,1.3,0],[0.5,0,0],[0,0.5,0],[1,0.5,0]];labelBackgroundColor=none;rounded=0;html=1;whiteSpace=wrap;" parent="32" vertex="1">
          <mxGeometry width="44" height="13" as="geometry" />
        </mxCell>
        <mxCell id="35" style="vsdxID=32;fillColor=#50e6ff;gradientColor=none;shape=stencil(jVLLDoIwEPyaXknp8tAz4n8QKdKIQApo+XtbF+0jwXjb3c7szDRLoJjaauSE0WmWw40/RT23BE6EMdG3XIpZVwRKAkUzSH6Vw9LX2I+VQZrqPjzMBoW8mFLDYXTFPjlGB3hPzgi/LBLxcUjYBnkeZcigin1HabKhWEBTgIP0swZ8wI4sY1GS+cJ25aZBfUnXGPgI+DNsEFWboEFU15dvYy/oz5juz/keVPiRq3UAuS9pMXtBdWEvohFdhwflvocXpEd4fVC+AA==);strokeColor=none;spacingTop=-3;spacingBottom=-3;spacingLeft=-3;spacingRight=-3;points=[[0.5,1.3,0],[0.5,0,0],[0,0.5,0],[1,0.5,0]];labelBackgroundColor=none;rounded=0;html=1;whiteSpace=wrap;" parent="32" vertex="1">
          <mxGeometry x="5" y="1" width="34" height="8" as="geometry" />
        </mxCell>
        <mxCell id="36" style="vsdxID=33;fillColor=#198ab3;gradientColor=none;shape=stencil(vZPbbsMgDIafhstYHEN23XXvgVqSoLIQEbZmb18iZ2tDtak3650Pv82HZROxm3ozWsLplGI42bM7pp6IV8K5G3obXcoWEXsidm2ItovhYziiP5pFuVjv4XPpMGOdoksJp1/ooveGShMPORNXJZMNyBrVcZUzKikoicH5tsV3Q8VAqDVfmdlNVQzJJBeGjdqb2NkqP1i13nSb1HS2drwL/4JYg25KRN6AftkgFp9mlD6PUIDgJSGVoDaAP0SrRGrQz5ui4sB0yVjXoP6c4j/O0LvhwZXNxnXTW+c9HsptvryMHMKrEvsL);strokeColor=none;spacingTop=-3;spacingBottom=-3;spacingLeft=-3;spacingRight=-3;points=[[0.5,1.3,0],[0.5,0,0],[0,0.5,0],[1,0.5,0]];labelBackgroundColor=none;rounded=0;html=1;whiteSpace=wrap;" parent="32" vertex="1">
          <mxGeometry x="8" y="7" width="27" height="3" as="geometry" />
        </mxCell>
        <mxCell id="37" style="vsdxID=34;fillColor=#000000;gradientColor=none;shape=stencil(xVnbctowEP0aHtnR/fKcpv/hSSBhSiFjSEP/vuvaktg1OHRi1DewJev47O7Zixf64fDavK0WShyO7f7H6mPzfHxd6G8LpTa711W7OeKvhX5c6If1vl29tPv33XP//63pVna/fu5/dU849fuCgSC7XUr87q84C9H/vfK937Dd7CY3CIju+nrvQNgvrfcRorq+QQrxleX//LqjDZRQaUFFskEbEPp8Q9M+4d02bfDQP060ZYPvGSqgQSvyUBVADrhOy+a0OSzb/bE5bva7geT+3rZpX1ZLPHC53jYv5NbhY7V6O7ssr0M0oCnCAMYQgBEkNZqSEGMtfDqzkwA6sIoz6KgdpQNlayF04CxFKDUIZmSTHKEsia4WQvRbz/1QlPMHq5ps+IQxwh1JpLE4Pj1zePGVlM0xkl7JRNBymnUx6+uIScYjZ1yCpoyjdlA1cTPzPQVQ5ChKAFG8kyOfyGPTfV0C7w74nt7bXmslPXz4qzWogdGTSh4ik3AOV4xI+UGcdFIvn/xquGJywF72rADKUGas5Zp4FlFpDbJjZmVnUrQF8y5fJDmnHqUpwgiumuRocIEjVIpzmNaU9GtDLYQeQmSyjWZmJEqgHDoPrlrqwywmGYkoIsnvUoxyEu9sZirbo9O9T6FyObgkSMdkW5bAyazTdB5UqrJqKGMYVRwa1TwQiEqBpdrtURHuqI43qTdL6BaYZ5Q3qwJxjDBbMWcUTVXUGIjVLN2JFPNFB5qmwKmS/y4QWUfzecdBWxTnchGUJMtMR6QCpjFoA0+93cXsbmkNNi3zZrspO6msEGcYFdXB8Yt3/jZvNplyd0wMXDUM0IBEZTbUmDYXJxUQ4ukcITaaVHqxhk7tae7o/bzZZMrQIuf/tjiaoUW9jrk+yyzW0wzMDqztwOTA8pdWIGnZUNUVUdYiZ9GX84dFEaidMQ0HXw0iJnTmi0ZnsyYaJURqaCfmHjxMRzS3tC7laQ4gR2nEMkDWE0Z0K44x5oSRQhqzPlWdICDc0RtpBrOOd0ppSndxuQtg7e3L8emWPt0HNsIbWdWwgRfqtKJ1yVQSrUDZDTmcJv0xC6UJuMhCGenl3sfngUVJBZI+1J1VR3dvfkKeT51BZPMTOWrCMcfVm6oZXjkhr4KSiAIRqTvPXzl9AnGMkXn7mEbs0pSqhRErDu6LxT2LL7JGAd9MVvRFw8Yt2Jo7yiLGoPuPLHYDqdGsgAKMbJZR2xMV091uZjXi8KqOVRhm3CCj+KN8bVtvttv+Y935ff51Di/1X/b04x8=);strokeColor=none;spacingTop=-3;spacingBottom=-3;spacingLeft=-3;spacingRight=-3;points=[[0.5,1.3,0],[0.5,0,0],[0,0.5,0],[1,0.5,0]];labelBackgroundColor=none;rounded=0;html=1;whiteSpace=wrap;" parent="32" vertex="1">
          <mxGeometry x="5" y="22" width="35" height="15" as="geometry" />
        </mxCell>
        <mxCell id="38" value="&lt;div style=&quot;font-size: 1px&quot;&gt;&lt;font style=&quot;font-size:15.52px;font-family:Segoe UI;color:#000000;direction:ltr;letter-spacing:0px;line-height:120%;opacity:1&quot;&gt;&lt;br&gt;&lt;/font&gt;&lt;/div&gt;&lt;div style=&quot;font-size: 1px&quot;&gt;&lt;font style=&quot;font-size:15.52px;font-family:Segoe UI;color:#000000;direction:ltr;letter-spacing:0px;line-height:120%;opacity:1&quot;&gt;MariaDB Database&lt;br&gt;&lt;/font&gt;&lt;/div&gt;" style="text;vsdxID=29;fillColor=none;gradientColor=none;strokeColor=none;spacingTop=-3;spacingBottom=-3;spacingLeft=-3;spacingRight=-3;points=[[0.5,1.3,0],[0.5,0,0],[0,0.5,0],[1,0.5,0]];labelBackgroundColor=none;rounded=0;html=1;whiteSpace=wrap;verticalAlign=middle;align=center;;html=1;" parent="32" vertex="1">
          <mxGeometry x="-28.45" y="50" width="101.6" height="18.63" as="geometry" />
        </mxCell>
        <UserObject label="" tags="Background" id="46">
          <mxCell style="vsdxID=41;fillColor=none;gradientColor=none;strokeColor=none;spacingTop=-3;spacingBottom=-3;spacingLeft=-3;spacingRight=-3;points=[[0.5,1.63,0],[0.5,0,0],[0,0.5,0],[1,0.5,0]];labelBackgroundColor=none;rounded=0;html=1;whiteSpace=wrap;" parent="1" vertex="1">
            <mxGeometry x="656" y="160" width="44" height="48" as="geometry" />
          </mxCell>
        </UserObject>
        <mxCell id="47" style="vsdxID=42;fillColor=#50e6ff;gradientColor=none;shape=stencil(lZHNDoMgEISfhisBVq2crX0PE7GQUjCI/Xn7QklTNTUNt9nZbyeEQdBMshsFYmTyzl7EXfVeIjgixpSRwikfFIIWQTNYJ87OzqZP89hFMqqrvcWER7orcUXjESPPZBDM6rdxSrhWZoEXfMsfAJf7PC8w8HX+PkwJWaG0wjXNecsn4CeelZ35LX/xIL4NDErrVOByv20sWKltaF8=);strokeColor=none;spacingTop=-3;spacingBottom=-3;spacingLeft=-3;spacingRight=-3;points=[[0.5,1.63,0],[0.5,0,0],[0,0.5,0],[1,0.5,0]];labelBackgroundColor=none;rounded=0;html=1;whiteSpace=wrap;" parent="46" vertex="1">
          <mxGeometry y="27" width="44" height="20" as="geometry" />
        </mxCell>
        <mxCell id="48" style="vsdxID=43;fillColor=#FFFFFF;gradientColor=none;shape=stencil(UzV2Ls5ILEhVNTIoLinKz04tz0wpyVA1dlE1MsrMy0gtyiwBslSNXVWNndPyi1LTi/JL81Ig/IJEkEoQKze/DGRCBUSfAUiHkUElhGdmomdhDBZxgyjOycxDUmxiqWdiiaLBALdiQwMMsy0NSTEbZgBW5SS5m4BiIAMRPGmZOTmQ0EWWRw9OoBAkKoxdAQ==);strokeColor=none;spacingTop=-3;spacingBottom=-3;spacingLeft=-3;spacingRight=-3;points=[[0.5,1.63,0],[0.5,0,0],[0,0.5,0],[1,0.5,0]];labelBackgroundColor=none;rounded=0;html=1;whiteSpace=wrap;" parent="46" vertex="1">
          <mxGeometry x="4" width="36" height="40" as="geometry" />
        </mxCell>
        <mxCell id="49" style="vsdxID=44;fillColor=#50e6ff;gradientColor=none;shape=stencil(UzV2Ls5ILEhVNTIoLinKz04tz0wpyVA1dlE1MsrMy0gtyiwBslSNXVWNndPyi1LTi/JL81Ig/IJEkEoQKze/DGRCBUSfoYEBSI+RQSWED+G5QZTmZObhUQrjY1WMqtTMRM/CmHiTSXAEilIgA+HPtMycHEgwIcujhwtQCBKmxq4A);strokeColor=none;spacingTop=-3;spacingBottom=-3;spacingLeft=-3;spacingRight=-3;points=[[0.5,1.63,0],[0.5,0,0],[0,0.5,0],[1,0.5,0]];labelBackgroundColor=none;rounded=0;html=1;whiteSpace=wrap;" parent="46" vertex="1">
          <mxGeometry x="4" width="18" height="40" as="geometry" />
        </mxCell>
        <mxCell id="50" style="vsdxID=45;fillColor=#000000;gradientColor=none;shape=stencil(UzV2Ls5ILEhVNTIoLinKz04tz0wpyVA1dlE1MsrMy0gtyiwBslSNXVWNndPyi1LTi/JL81Ig/IJEkEoQKze/DGRCBUSfAUiHkUElMs8NojAnMw+nQkMDPEphkjDFZiZ6lobEmky0E1AUAhkIH6Zl5uRAAghZHj1EgEKQ0DR2BQA=);strokeColor=none;spacingTop=-3;spacingBottom=-3;spacingLeft=-3;spacingRight=-3;points=[[0.5,1.63,0],[0.5,0,0],[0,0.5,0],[1,0.5,0]];labelBackgroundColor=none;rounded=0;html=1;whiteSpace=wrap;" parent="46" vertex="1">
          <mxGeometry x="22" width="18" height="40" as="geometry" />
        </mxCell>
        <mxCell id="51" style="vsdxID=46;fillColor=#53b1e0;gradientColor=none;shape=stencil(UzV2Ls5ILEhVNTIoLinKz04tz0wpyVA1dlE1MsrMy0gtyiwBslSNXVWNndPyi1LTi/JL81Ig/IJEkEoQKze/DGRCBUSfAUiHkUElMs8NojAnMw9JoaEBqlIjcz1jC9zKURXDNBOhlDyFQAbCh2mZOTmQAEKWRw8RoBAkNI1dAQ==);strokeColor=none;spacingTop=-3;spacingBottom=-3;spacingLeft=-3;spacingRight=-3;points=[[0.5,1.63,0],[0.5,0,0],[0,0.5,0],[1,0.5,0]];labelBackgroundColor=none;rounded=0;html=1;whiteSpace=wrap;" parent="46" vertex="1">
          <mxGeometry x="22" y="20" width="18" height="19" as="geometry" />
        </mxCell>
        <mxCell id="XdmQlQuw1DZMQMczZoxi-185" style="edgeStyle=orthogonalEdgeStyle;rounded=0;orthogonalLoop=1;jettySize=auto;html=1;exitX=1;exitY=0.5;exitDx=0;exitDy=0;exitPerimeter=0;entryX=1;entryY=0.5;entryDx=0;entryDy=0;entryPerimeter=0;" parent="46" source="52" target="49" edge="1">
          <mxGeometry relative="1" as="geometry" />
        </mxCell>
        <mxCell id="52" style="vsdxID=47;fillColor=#9cebff;gradientColor=none;shape=stencil(UzV2Ls5ILEhVNTIoLinKz04tz0wpyVA1dlE1MsrMy0gtyiwBslSNXVWNndPyi1LTi/JL81Ig/IJEkEoQKze/DGRCBUSfoYEBSI+RQSUq3w2iOCczD0kxqlIjcz0jY9yK0U3GYy5JjiCgGMhA+DUtMycHElTI8uhhAxSChKuxKwA=);strokeColor=none;spacingTop=-3;spacingBottom=-3;spacingLeft=-3;spacingRight=-3;points=[[0.5,1.63,0],[0.5,0,0],[0,0.5,0],[1,0.5,0]];labelBackgroundColor=none;rounded=0;html=1;whiteSpace=wrap;" parent="46" vertex="1">
          <mxGeometry x="4" y="20" width="18" height="19" as="geometry" />
        </mxCell>
        <mxCell id="53" style="vsdxID=48;fillColor=#000000;gradientColor=none;shape=stencil(jZHBDsIgEES/Zq+EsrHlXut/NCktRISGYtW/F7JRWxOJtx32zWQzALaL7mcFgi8x+LO6mSFqwCMIYZxWwcQ0AXaA7eiDmoK/uoH03GcyTxe/5oQ7+Xh2CP4gVXHSJ0KtcRv0tXzDNZPVb1xKJuudoZC9T26QHf5liycX0TR8WhmNtVTqdv/dYnqiH8DuCQ==);strokeColor=none;spacingTop=-3;spacingBottom=-3;spacingLeft=-3;spacingRight=-3;points=[[0.5,1.63,0],[0.5,0,0],[0,0.5,0],[1,0.5,0]];labelBackgroundColor=none;rounded=0;html=1;whiteSpace=wrap;" parent="46" vertex="1">
          <mxGeometry x="22" y="27" width="22" height="20" as="geometry" />
        </mxCell>
        <mxCell id="54" value="&lt;div style=&quot;font-size: 1px&quot;&gt;&lt;font style=&quot;font-size:15.52px;font-family:Segoe UI;color:#000000;direction:ltr;letter-spacing:0px;line-height:120%;opacity:1&quot;&gt;Azure Active Directory&lt;br/&gt;&lt;/font&gt;&lt;/div&gt;" style="text;vsdxID=41;fillColor=none;gradientColor=none;strokeColor=none;spacingTop=-3;spacingBottom=-3;spacingLeft=-3;spacingRight=-3;points=[[0.5,1.63,0],[0.5,0,0],[0,0.5,0],[1,0.5,0]];labelBackgroundColor=none;rounded=0;html=1;whiteSpace=wrap;verticalAlign=middle;align=center;;html=1;" parent="46" vertex="1">
          <mxGeometry x="-28.45" y="48" width="101.6" height="37.26" as="geometry" />
        </mxCell>
        <UserObject label="" tags="Background" id="55">
          <mxCell style="vsdxID=49;fillColor=none;gradientColor=none;strokeColor=none;spacingTop=-3;spacingBottom=-3;spacingLeft=-3;spacingRight=-3;points=[[0.5,1.65,0],[0.5,0,0],[0,0.5,0],[1,0.5,0]];labelBackgroundColor=none;rounded=0;html=1;whiteSpace=wrap;" parent="1" vertex="1">
            <mxGeometry x="455" y="174" width="50" height="46" as="geometry" />
          </mxCell>
        </UserObject>
        <mxCell id="56" style="vsdxID=50;fillColor=#000000;gradientColor=none;shape=stencil(vZTBcoQgDIafhqMZICh43m7fg+miMrW6g27Xvn1xcO3Gel1vISHkA/6E4Wlo7NUxyYcx9J/u7i9jw/CNSem7xgU/RovhmeGp6oOrQ3/rLml9tfPO2frqv+cTppRXIqCZsyT/SR6lQSbPe0qw4SNGw5IgFQiZEsKSgQo4JteyyXAoyKFoQCxlpsxOfshCP9rR912K8xRrbahdFgtmVWtrEhruzl3/ufcRDUi9QSzBlAQxFyAVYeSH8ZUgSsqnxOp6bIofowmfLEDjYYwF5BtG1JBLwsgJX4GrMg7giyrFDZ8BRfmiEEROGAV/4S+3vnvqLK1B4W7x/Qvh2kTrhSQoKooV//HkJfD8sCePGt0QRiUbQQjjPFG0reI8KV7Y+tH4m22Vb9s0Gp/j21kYXWmO4vkX);strokeColor=none;spacingTop=-3;spacingBottom=-3;spacingLeft=-3;spacingRight=-3;points=[[0.5,1.65,0],[0.5,0,0],[0,0.5,0],[1,0.5,0]];labelBackgroundColor=none;rounded=0;html=1;whiteSpace=wrap;" parent="55" vertex="1">
          <mxGeometry width="49" height="37" as="geometry" />
        </mxCell>
        <mxCell id="57" style="vsdxID=51;fillColor=#767676;gradientColor=none;shape=stencil(jZDdCoMwDIWfJrfSNoztXt17CNY1WFup3d/bryWM1YHi3TnJl3A4gPViulmDEksMftRP6qMBbEApckYHikkBtoD14IO+BX93Pfu5y2RWk3/kDy++E/lCiXfprgxaciVYSVyxZ1ld5DYvxfr11x+CT3tBDifeBpP4FTKQtdxnuf8vMI24fGw/);strokeColor=none;spacingTop=-3;spacingBottom=-3;spacingLeft=-3;spacingRight=-3;points=[[0.5,1.65,0],[0.5,0,0],[0,0.5,0],[1,0.5,0]];labelBackgroundColor=none;rounded=0;html=1;whiteSpace=wrap;" parent="55" vertex="1">
          <mxGeometry x="28" y="14" width="22" height="18" as="geometry" />
        </mxCell>
        <mxCell id="58" style="vsdxID=52;fillColor=#999999;gradientColor=none;shape=stencil(jZBLDsIwDERP423k2lDRdSn3qNSURISkSsvv9iRYFYEFYje234w0Bm5n008aCOclhpO+2WExwHsgst7oaJekgDvgdgxRH2O4+EHmqc9kVudwzQl38TWN2nJ2ET5kg6/pILCzvoDxA6SNqulfuMIfuetxhXeVwrrEk3gXGK1z0r+8fxdOK3kWd08=);strokeColor=none;spacingTop=-3;spacingBottom=-3;spacingLeft=-3;spacingRight=-3;points=[[0.5,1.65,0],[0.5,0,0],[0,0.5,0],[1,0.5,0]];labelBackgroundColor=none;rounded=0;html=1;whiteSpace=wrap;" parent="55" vertex="1">
          <mxGeometry x="22" y="14" width="6" height="16" as="geometry" />
        </mxCell>
        <mxCell id="59" style="vsdxID=53;fillColor=#a3a3a3;gradientColor=none;shape=stencil(lZVJcoMwEEVPo21Xq1sTa8e5h6uMAxViXJhMt4+IKonbBAl2kvhP+v3RoHh3bQ6XWhFex6F/rt/b49goflBE7bmph3aMLcV7xbtTP9RPQ/96Pqb+5TApp9ZL/zbN8JE4Y8DwRBF+phHvwVTfI48J6NrzDWAtWC+AQKB5C0AB0C8Dc0tEQJuAQg0rAJkSM1AQgHZQmeUVomNtJICQcTTXuwAuLANzR56BaQtQKGEFIENyDjzJneHAZlaIoVsrgCqGZLNAcALgCkxmhbmlWFXIbKXNNawAZEoo/zICZraF1qBlQs5kj8Ic+D19/+qlG1wrLNguiGUgGqXcIgS9PHcIEGSFxgJuAioL7DIZ3hn66a8SF9wX5bHxd1Wf2q5LN/3t9/urPQ6lZ4H3Xw==);strokeColor=none;spacingTop=-3;spacingBottom=-3;spacingLeft=-3;spacingRight=-3;points=[[0.5,1.65,0],[0.5,0,0],[0,0.5,0],[1,0.5,0]];labelBackgroundColor=none;rounded=0;html=1;whiteSpace=wrap;" parent="55" vertex="1">
          <mxGeometry x="30" y="17" width="18" height="13" as="geometry" />
        </mxCell>
        <mxCell id="60" style="vsdxID=54;fillColor=#B3B3B3;gradientColor=none;shape=stencil(lZLNDoMgEISfhusGWFQ8W/seJmIltWLQ/r19pcRUNDV6W4ZvyGwYgllfF50inPaDNVf11OVQEzwRznVbK6uHcSKYE8wqY9XFmntb+nNXONJNN/NwL7y8DxFi4Vycvr2SIkj5Vc7e0Oh2ZqABzCjdjSYg0v/wOghjkEZHDKvk4apT1gnfSB5HIHgAJ0dgmQDbMCyDSAYo9uNB7nH4fW2lm8Y3Y36/rMIo+Rph/gE=);strokeColor=none;spacingTop=-3;spacingBottom=-3;spacingLeft=-3;spacingRight=-3;points=[[0.5,1.65,0],[0.5,0,0],[0,0.5,0],[1,0.5,0]];labelBackgroundColor=none;rounded=0;html=1;whiteSpace=wrap;" parent="55" vertex="1">
          <mxGeometry x="23" y="17" width="3" height="10" as="geometry" />
        </mxCell>
        <mxCell id="61" style="vsdxID=55;fillColor=#000000;gradientColor=none;shape=stencil(lZHNDsIgEISfZq+E7lar51rfo0mpJSI0FP/eXnBjLMbUeJvdnflCBqB6GtpRAcopeHdUV92FAWgHiNoOyusQFVADVPfOq4N3Z9vxPLbJmdTJXRLhxrlCypRBeed5vRUlPjd7thttZ/ZqI1aUBV6Ar/acXRaCFtgYz1UWWCD/+e6f9ijeFfXaGG54fv+sNK74O6h5AA==);strokeColor=none;spacingTop=-3;spacingBottom=-3;spacingLeft=-3;spacingRight=-3;points=[[0.5,1.65,0],[0.5,0,0],[0,0.5,0],[1,0.5,0]];labelBackgroundColor=none;rounded=0;html=1;whiteSpace=wrap;" parent="55" vertex="1">
          <mxGeometry x="22" y="27" width="28" height="7" as="geometry" />
        </mxCell>
        <mxCell id="62" style="vsdxID=56;fillColor=#767676;gradientColor=none;shape=stencil(jZHRDoIwDEW/pq/LbCOGZ8T/IGG4xbmRMVH+3s3GCMSIb7ftuU1zC1QNuukVoBxi8Bd1N23UQEdANE6rYGJSQDVQ1fmgzsHfXMt132Qyq6sf84YH+3ZSZg/KiesDirJ8dU6MW+Nm+BJ+m7+jYr+Af6DrI7AQ9D+9cfImnsQnnc5Yy+HO5+s0U4s/QfUT);strokeColor=none;spacingTop=-3;spacingBottom=-3;spacingLeft=-3;spacingRight=-3;points=[[0.5,1.65,0],[0.5,0,0],[0,0.5,0],[1,0.5,0]];labelBackgroundColor=none;rounded=0;html=1;whiteSpace=wrap;" parent="55" vertex="1">
          <mxGeometry x="28" y="29" width="22" height="17" as="geometry" />
        </mxCell>
        <mxCell id="63" style="vsdxID=57;fillColor=#a3a3a3;gradientColor=none;shape=stencil(lZXbboMwDIafJrdWYpPTdde9R6XSgcagouz09gNFbHPTuuQuTr4/+e2YoGh3aQ7nWqG+TOPwWn+2x6lR9KQQ276px3aaR4r2inanYaxfxuG9P6b4fFjIZfQ2fCw7fCWdXhSov1NkdIqfE9q1/V1UAI0BYxiMYKsSPjpwuNVJgekrlJeCCExgeIgQ3P2957S0574JrOA7F9h14iZ/wxGYMl7OYIOA16iqACMXOPDCCbnAaDBCM1gLFecRXCjgw5xTiZ/iBDIBL5H3UPFL9g60cIJzYHn7+wheaKNcYCygkHRuyQSgIsGDHDYIeJXWL3HFXQQr3HII6/Lv/gQotFEuQA0onBAjIHEBQhBuoTCDh/g8+HukT23XpTf+//r1oz5PpR8C7X8A);strokeColor=none;spacingTop=-3;spacingBottom=-3;spacingLeft=-3;spacingRight=-3;points=[[0.5,1.65,0],[0.5,0,0],[0,0.5,0],[1,0.5,0]];labelBackgroundColor=none;rounded=0;html=1;whiteSpace=wrap;" parent="55" vertex="1">
          <mxGeometry x="30" y="32" width="18" height="10" as="geometry" />
        </mxCell>
        <mxCell id="64" style="vsdxID=58;fillColor=#999999;gradientColor=none;shape=stencil(jZDdDoIwDIWfprekrAnzHvE9SBiucW5kTNG3d7Mx/oWEu3Par017gNrZ9pMBhXOK4WQWHpIF2oNS7K2JnLIC6oDaMURzjOHiB/FTX8iizuFaNtxkDsuEwrs43VSon5WDwI79KlzrateswzV+47gdffkNR/xdnMX715Gdk6g++7/Z5JLkSt0D);strokeColor=none;spacingTop=-3;spacingBottom=-3;spacingLeft=-3;spacingRight=-3;points=[[0.5,1.65,0],[0.5,0,0],[0,0.5,0],[1,0.5,0]];labelBackgroundColor=none;rounded=0;html=1;whiteSpace=wrap;" parent="55" vertex="1">
          <mxGeometry x="22" y="29" width="6" height="17" as="geometry" />
        </mxCell>
        <mxCell id="65" style="vsdxID=59;fillColor=#B3B3B3;gradientColor=none;shape=stencil(lZLdDoIwDIWfZrdNWQHZNep7kDBkERkZ+Pf2bi4qk7jIXXf6neW0KaNybKtBMo7jZPRRXlU9tYy2jHPVt9KoyVaMdozKRht5MPrc1/49VI501Ulf3A837+MCKHcujnevFFYpnsreGzrVzwwYwhlw+hdOCDYReBlFQJGu4RfRw1kTDPPg77/zDJI0gFMQfA0vMsDIGoV4td/bwUieJR6Bo3Pa4nMLjeo6f0rz/vftWMnfHe0e);strokeColor=none;spacingTop=-3;spacingBottom=-3;spacingLeft=-3;spacingRight=-3;points=[[0.5,1.65,0],[0.5,0,0],[0,0.5,0],[1,0.5,0]];labelBackgroundColor=none;rounded=0;html=1;whiteSpace=wrap;" parent="55" vertex="1">
          <mxGeometry x="23" y="31" width="3" height="11" as="geometry" />
        </mxCell>
        <mxCell id="66" value="&lt;div style=&quot;font-size: 1px&quot;&gt;&lt;font style=&quot;font-size:15.52px;font-family:Segoe UI;color:#000000;direction:ltr;letter-spacing:0px;line-height:120%;opacity:1&quot;&gt;&lt;span style=&quot;background-color: rgb(255, 255, 255);&quot;&gt;Azure Container Registry&lt;/span&gt;&lt;br&gt;&lt;/font&gt;&lt;/div&gt;" style="text;vsdxID=49;fillColor=none;gradientColor=none;strokeColor=none;spacingTop=-3;spacingBottom=-3;spacingLeft=-3;spacingRight=-3;points=[[0.5,1.65,0],[0.5,0,0],[0,0.5,0],[1,0.5,0]];labelBackgroundColor=none;rounded=0;html=1;whiteSpace=wrap;verticalAlign=middle;align=center;;html=1;" parent="55" vertex="1">
          <mxGeometry x="-25.4" y="46" width="101.6" height="55.89" as="geometry" />
        </mxCell>
        <UserObject label="" tags="Background" id="80">
          <mxCell style="vsdxID=100;fillColor=none;gradientColor=none;strokeColor=none;spacingTop=-3;spacingBottom=-3;spacingLeft=-3;spacingRight=-3;points=[[0.5,1.31,0],[0.5,0,0],[0,0.5,0],[1,0.5,0]];labelBackgroundColor=none;rounded=0;html=1;whiteSpace=wrap;" parent="1" vertex="1">
            <mxGeometry x="101" y="173" width="48" height="48" as="geometry" />
          </mxCell>
        </UserObject>
        <mxCell id="81" style="vsdxID=101;fillColor=none;gradientColor=none;strokeColor=none;spacingTop=-3;spacingBottom=-3;spacingLeft=-3;spacingRight=-3;points=[[0.5,1.31,0],[0.5,0,0],[0,0.5,0],[1,0.5,0]];labelBackgroundColor=none;rounded=0;html=1;whiteSpace=wrap;" parent="80" vertex="1">
          <mxGeometry width="48" height="48" as="geometry" />
        </mxCell>
        <mxCell id="82" style="vsdxID=102;fillColor=#000000;gradientColor=none;shape=stencil(nZJNDoMgEIVPw5bgjD91be09TMVKasWgtvb2lUAiaGtMd8PwPfJmeASzvi46ToD1g5J3/hLlUBM8EwDR1lyJYa4I5gSzSip+U3JsS3PuCk3q6iGf+oXJ6JhWAHu7p4sBG9E6YMD+RtOQYuTi11EZD8FaYBtpQsPEtCawrRONAkvBSjahZWIax5ZBn/lq1OUP4Egx3KM3Y9HIH2sxDP72YTs2+gT+WKXv8PAX7YBzsYSlEk1jsuber8M1t0wwMf8A);strokeColor=none;spacingTop=-3;spacingBottom=-3;spacingLeft=-3;spacingRight=-3;points=[[0.5,1.31,0],[0.5,0,0],[0,0.5,0],[1,0.5,0]];labelBackgroundColor=none;rounded=0;html=1;whiteSpace=wrap;" parent="81" vertex="1">
          <mxGeometry y="12" width="48" height="35" as="geometry" />
        </mxCell>
        <mxCell id="83" style="vsdxID=103;fillColor=#0078d4;gradientColor=none;shape=stencil(nZNNDoMgEIVPw5aMoFTX1t7DVKykVg1qq7cvFhqBRBbuZh7f8PNmQDQfm3LgiMA4yf7JP6KaGkSviBDRNVyKSUWIFojmdS/5Q/ZzV+l8KDdyi179e9th0XUUU7YVEVi1AL/sptlWdBabMcwC8H2WeufI4ClOIoNHNg8L0WkERliNcMFgKhbqI38hwSw9vuPOn8Mh8P7zqH8J3ypwbVI2xJ5TOM5cq8D1SfUxdo0K9kbhSbA1FnB4IAsc6NoRnjIV7ONZi7bV022v++OsJP0VaPEF);strokeColor=none;spacingTop=-3;spacingBottom=-3;spacingLeft=-3;spacingRight=-3;points=[[0.5,1.31,0],[0.5,0,0],[0,0.5,0],[1,0.5,0]];labelBackgroundColor=none;rounded=0;html=1;whiteSpace=wrap;" parent="81" vertex="1">
          <mxGeometry width="48" height="12" as="geometry" />
        </mxCell>
        <mxCell id="84" style="vsdxID=104;fillColor=#000000;gradientColor=none;shape=stencil(rZPRbsMgDEW/hlfL4ISY5679j2pNF7QsqWi6dX8/GGQJVK02aW/mco2P0LWgzbnbn1qh8Dy58bX9sIepE/QklLJD1zo7+UrQVtDmOLr2xY2X4RDPp31whuptfA8vXGMfAYcehZ/xLBHoW9hFd2+HlVtWUFHmx/tmwyBzM0sguW54vrgII+fpmBqSwARSRemqSk8SWAPWyUO3o5PEDbC+D+uv64w1PGEesXINmnLaH7SZlRXUOqddPDMYgjY5683snJWgaTJWr1TNI9biV6UBLn4VAakA9dEwOeoSFvpNWv6Wrf91+2KJ/NH2fdyY9X25Il6K60XbLw==);strokeColor=none;spacingTop=-3;spacingBottom=-3;spacingLeft=-3;spacingRight=-3;points=[[0.5,1.31,0],[0.5,0,0],[0,0.5,0],[1,0.5,0]];labelBackgroundColor=none;rounded=0;html=1;whiteSpace=wrap;" parent="81" vertex="1">
          <mxGeometry x="9" y="27" width="9" height="12" as="geometry" />
        </mxCell>
        <mxCell id="85" style="vsdxID=105;fillColor=#f2f2f2;gradientColor=none;shape=stencil(rZPBbsIwDEC/JlfLsUvinhn7DwRljda1KJTB/n7tkkJdNKRJu9nOS/yiOIbXp3p7rAzhqY/de3UJ+742/GKIQltXMfRDZHhjeH3oYvUWu3O7T/lxO5Jj9NF9jidc0z5bgJVxF+FXriD+5K8Jb0I7wxm8VbSUIHbO784xnW8TgBnPqTigVLmSBnIqCMVE8EPTXPFu0VVbigUkfSkQemYpBFJqU9SasgIRrYpaUzx40p7LtlqzFLBOaxJg8cxzepybpWUQ1qZ3Zio48IV2nbeeXAVW7nfZPw7Kf+NDcB/hQ2ia9APm68uRH0rpu/DmGw==);strokeColor=none;spacingTop=-3;spacingBottom=-3;spacingLeft=-3;spacingRight=-3;points=[[0.5,1.31,0],[0.5,0,0],[0,0.5,0],[1,0.5,0]];labelBackgroundColor=none;rounded=0;html=1;whiteSpace=wrap;" parent="81" vertex="1">
          <mxGeometry x="9" y="19" width="9" height="12" as="geometry" />
        </mxCell>
        <mxCell id="86" style="vsdxID=106;fillColor=#000000;gradientColor=none;shape=stencil(lZPdkoIwDIWfpreZpik0vXb1PZwVl86y4FT82beX2qoUR9y9S8J3SA4kghb7er2rhJL73nff1clt+lrQh1DKtXXlXT9EgpaCFtvOV1++O7SbmO/WgQzRT3cMbzhHHSooOKiU/I0Vy4D2WllFQePasQAsZTwbYB7znwcfO2AEZMJTyiVIE0tnlRMpZQLUiaCnrqnCCMq8HpMLKDGbU76GbQlKZzBKIJwzhXJiCwls7uqB3AoWOLcVGpvclyLQen5Uk436RjA0pfxDhB9cznozoIuJu5uXuzkNZCf27gw97xb9bbn+vY3vBUPwWP6ta5p4O+Pn02MZSvHQaHkB);strokeColor=none;spacingTop=-3;spacingBottom=-3;spacingLeft=-3;spacingRight=-3;points=[[0.5,1.31,0],[0.5,0,0],[0,0.5,0],[1,0.5,0]];labelBackgroundColor=none;rounded=0;html=1;whiteSpace=wrap;" parent="81" vertex="1">
          <mxGeometry x="29" y="27" width="9" height="12" as="geometry" />
        </mxCell>
        <mxCell id="87" style="vsdxID=107;fillColor=#f2f2f2;gradientColor=none;shape=stencil(jVPLcoMwDPwaXzW2FGz5nKb/kWlIYUoh45CW/n1hbGJEMrQ3W155d/VQtL9Wx0upUF/70H2U3/WprxS9KMS6rcpQ9+NJ0UHR/tyF8j10t/YU75fjhJxOn93X9MMQ8wywmZJQ/6QAgo6R14hv6naJR8BCJoDzS/zbLUQCk953YOaMFNLxOmBCONCcECgRlBAMfkbQc1op01tAK2Q6C463dHoP3kmdrIFopVVrqZQtGCfVjuSEUi37FbuUy8Xs5l7VxPO8CbACMxR2y5uWvoy90w2y4LMrQ8BeujKzg9yCcVR2m60Ht+p8TskVzf/iI4gexpT+N6d/zvV4yEtxrpsm7tTyfb1EYyguIB1+AQ==);strokeColor=none;spacingTop=-3;spacingBottom=-3;spacingLeft=-3;spacingRight=-3;points=[[0.5,1.31,0],[0.5,0,0],[0,0.5,0],[1,0.5,0]];labelBackgroundColor=none;rounded=0;html=1;whiteSpace=wrap;" parent="81" vertex="1">
          <mxGeometry x="29" y="19" width="9" height="12" as="geometry" />
        </mxCell>
        <mxCell id="88" style="vsdxID=108;fillColor=#f2f2f2;gradientColor=none;shape=stencil(jZPdboMwDIWfJrdWYueHXHfde1QrHWgMKkq39u1rmnTDkcp2Zw7nOJ8sW9Hm1OyOtUJ9msbho/5u91Oj6EUhtn1Tj+3ElaKtos1hGOv3cTj3+/R93M3OufocvuYOl5QLFUScU6ivSdGA7i68Jn/X9gt/DMKM4GlpfjuPqbvJdm4fc8I8IlWVlAsmxWidLVkgCJQtlPtEoJy6ZsmCM8850YF3ApVRgl1j5YgmycrPOi9hmT9WEveH/0GLBrSTtNwprOFCMdgYgFZp+QlbwAYwkrUYa/SAQZJq8FiAOrD+OWiwQHKuBhDXQDkRi7FqsE6SBg/RS9pipstFpf9s6t+bzcXvWRzarktXtfxfnhFL6QRpewM=);strokeColor=none;spacingTop=-3;spacingBottom=-3;spacingLeft=-3;spacingRight=-3;points=[[0.5,1.31,0],[0.5,0,0],[0,0.5,0],[1,0.5,0]];labelBackgroundColor=none;rounded=0;html=1;whiteSpace=wrap;" parent="81" vertex="1">
          <mxGeometry x="19" y="16" width="8" height="26" as="geometry" />
        </mxCell>
        <mxCell id="89" value="&lt;div style=&quot;font-size: 1px&quot;&gt;&lt;font style=&quot;font-size:15.52px;font-family:Segoe UI;color:#000000;direction:ltr;letter-spacing:0px;line-height:120%;opacity:1&quot;&gt;Code&lt;br/&gt;&lt;/font&gt;&lt;/div&gt;" style="text;vsdxID=100;fillColor=none;gradientColor=none;strokeColor=none;spacingTop=-3;spacingBottom=-3;spacingLeft=-3;spacingRight=-3;points=[[0.5,1.31,0],[0.5,0,0],[0,0.5,0],[1,0.5,0]];labelBackgroundColor=none;rounded=0;html=1;whiteSpace=wrap;verticalAlign=middle;align=center;;html=1;" parent="80" vertex="1">
          <mxGeometry x="-26.42" y="48" width="101.6" height="18.63" as="geometry" />
        </mxCell>
        <UserObject label="" tags="Background" id="90">
          <mxCell style="vsdxID=110;fillColor=none;gradientColor=none;strokeColor=none;spacingTop=-3;spacingBottom=-3;spacingLeft=-3;spacingRight=-3;points=[[0.5,1.6,0],[0.5,0,0],[0,0.5,0],[1,0.5,0]];labelBackgroundColor=none;rounded=0;html=1;whiteSpace=wrap;" parent="1" vertex="1">
            <mxGeometry x="254" y="172" width="50" height="50" as="geometry" />
          </mxCell>
        </UserObject>
        <mxCell id="91" style="vsdxID=111;fillColor=#000000;gradientColor=none;shape=stencil(vZTBcoQgDIafhqMZTBTwvN2+B9NFZWp1B92ufftise3C2un0UG+Q/IFvMsnP6DC2+mwY8nFyw7O52tPUMnpgiLZvjbOTPzE6MjrUgzONGy79KdzPelEup5fhdXlhDnU550sN8rdwFwoK/Ig8Brl2Tz7rVjkikAoFbq2gHMoQWTWKQ4nRo6SAr1Vzpmc7Zm6Y9GSHPuRXhE67xmT+w6zudBOlxqsx57vwNqICLBLECmTMWOZAVcTId+OrgMuYr+BQYcSHBEJFfCig3K+HAmTCSBKEjBiTwUFQtBufBKSETwFR3EMfiRC/Zv0/ADvb36wVcZDV5uebcikAxR/k8nPlttV3OyvThYin7WcT2KFVvzqQP3y7V227LpjfbT51Ox8KTknHdw==);strokeColor=none;spacingTop=-3;spacingBottom=-3;spacingLeft=-3;spacingRight=-3;points=[[0.5,1.6,0],[0.5,0,0],[0,0.5,0],[1,0.5,0]];labelBackgroundColor=none;rounded=0;html=1;whiteSpace=wrap;" parent="90" vertex="1">
          <mxGeometry width="50" height="33" as="geometry" />
        </mxCell>
        <mxCell id="92" style="vsdxID=112;fillColor=#f2f2f2;gradientColor=none;shape=stencil(vZVRc4MgDIB/jY/mIEGE5677H9xKW25Oe+jW7t8PR7uKrfZu1/MNk5D4JSHJaNXuzcFmyNrON+/26DbdPqOXDNHVe+tdF04ZrTNabRtvd775rDfx+2B6y/700Xz1Hk7xHgNZ9peQfUeB4KDUr+Q12leuHtgLCapILnAQOLQ3/i0o/dm+ADyb+0sAkDpKLiYCSN13yU65Obk2901nOtfU53+Ousr4nc1DuHxbmV2iao/WHgZiPg2kNZCYz0BKhIAqJUJglBDpEgqd+ixAqKWQpP5L+k34CSTJx0iUIslQ99RlCVI+lYjNEI2ja3Wpwl0gDppSIA4lpkACVNr5nLGlKkQCBN0NPoWDD3AIoeATKVoC6Cb8tT8mWk6M5gICT+cCMcA0Sc9/RTM9F965mIj+37kwM2wXqNHjUR8O1z2xdVUV18xQP94rQRR3Eq1/AA==);strokeColor=none;spacingTop=-3;spacingBottom=-3;spacingLeft=-3;spacingRight=-3;points=[[0.5,1.6,0],[0.5,0,0],[0,0.5,0],[1,0.5,0]];labelBackgroundColor=none;rounded=0;html=1;whiteSpace=wrap;" parent="90" vertex="1">
          <mxGeometry x="17" y="10" width="17" height="18" as="geometry" />
        </mxCell>
        <mxCell id="93" style="vsdxID=113;fillColor=#a67af4;gradientColor=none;shape=stencil(vZLdEoIgEIWfhkuZFVLzuuw9mEJlInFWKnv7MOhHa6rportlzwcLh0P4oqtFKwmDzqLZyqPa2JrwJWFMNbVEZV1FeEH4ojQoKzT7ZuPXrRjIodqZw3BC7/fFAMMeBie/ZkDTS2PlaYFrJ2KgWRABAx7TJHQCkc8pGx0Y5xRmAYlEr7oIjRVWmcbrYbwWWMnITYtKLaqR1B2lbJ/a4X5aNQ+v4ZPhb1D4Dbz69RK92fMNnKd0PqKzjM7yt97HH8yffmaWUkj+5f2nJLniHsJSae0z/KhPQ+taPvC8OAM=);strokeColor=none;spacingTop=-3;spacingBottom=-3;spacingLeft=-3;spacingRight=-3;points=[[0.5,1.6,0],[0.5,0,0],[0,0.5,0],[1,0.5,0]];labelBackgroundColor=none;rounded=0;html=1;whiteSpace=wrap;" parent="90" vertex="1">
          <mxGeometry x="25" y="27" width="15" height="23" as="geometry" />
        </mxCell>
        <mxCell id="94" style="vsdxID=114;fillColor=#552f99;gradientColor=none;shape=stencil(xVTBcoMgEP0aju7AogTPafofTILKlIqDtrF/HywmFa09prdl9+2+efN2IfzYN6rTBGk/ePemr+YyNIS/EETTNtqbIUSEnwg/Vs7r2ruP9hLfnZqQU/TuPqcJY+wrBQgxdSH9ihn6/XqNYGvaBRihYAm2hFIu4cqfQ9E/4OUM9zOegTjEzLgku49jDIp8rmdqNH3m3aAG49oEbZWvdRa4ssqqOin1V627TfpXMSm1FJDjvhQOjK+lyEQJAk8HSmDPkrI1kVG6LwbhsPGlEImae//DaAn505xZkyPg31uGmy1Lvdlb8n+xJgGH4OcyK2NtPOxlfX3JIRV/AX66AQ==);strokeColor=none;spacingTop=-3;spacingBottom=-3;spacingLeft=-3;spacingRight=-3;points=[[0.5,1.6,0],[0.5,0,0],[0,0.5,0],[1,0.5,0]];labelBackgroundColor=none;rounded=0;html=1;whiteSpace=wrap;" parent="90" vertex="1">
          <mxGeometry x="11" y="27" width="14" height="23" as="geometry" />
        </mxCell>
        <mxCell id="95" style="vsdxID=115;fillColor=#b77af4;gradientColor=none;fillOpacity=75;strokeOpacity=75;shape=stencil(UzV2Ls5ILEhVNTIoLinKz04tz0wpyVA1dlE1MsrMy0gtyiwBslSNXVWNndPyi1LTi/JL81Ig/IJEkEoQKze/DGRCBUSfAUiHkUElhGeiZ2QOFnCDqM3JzMOp1tJMz8AUt2JDA1TlMD5RivEoJd/B6GqBDESopGXm5EACFVkePRSBQpAYMHYFAA==);strokeColor=none;spacingTop=-3;spacingBottom=-3;spacingLeft=-3;spacingRight=-3;points=[[0.5,1.6,0],[0.5,0,0],[0,0.5,0],[1,0.5,0]];labelBackgroundColor=none;rounded=0;html=1;whiteSpace=wrap;" parent="90" vertex="1">
          <mxGeometry x="19" y="30" width="4" height="17" as="geometry" />
        </mxCell>
        <mxCell id="96" style="vsdxID=116;fillColor=#b77af4;gradientColor=none;fillOpacity=75;strokeOpacity=75;shape=stencil(UzV2Ls5ILEhVNTIoLinKz04tz0wpyVA1dlE1MsrMy0gtyiwBslSNXVWNndPyi1LTi/JL81Ig/IJEkEoQKze/DGRCBUSfAUiHkUElhGeiZ2gIFnCDqM3JzMOp1tJEz9ISt2JDA1TlMD5RivEoJd/B6GqBDESopGXm5EACFVkePRSBQpAYMHYFAA==);strokeColor=none;spacingTop=-3;spacingBottom=-3;spacingLeft=-3;spacingRight=-3;points=[[0.5,1.6,0],[0.5,0,0],[0,0.5,0],[1,0.5,0]];labelBackgroundColor=none;rounded=0;html=1;whiteSpace=wrap;" parent="90" vertex="1">
          <mxGeometry x="13" y="31" width="4" height="15" as="geometry" />
        </mxCell>
        <mxCell id="97" value="&lt;div style=&quot;font-size: 1px&quot;&gt;&lt;font style=&quot;font-size:15.52px;font-family:Segoe UI;color:#000000;direction:ltr;letter-spacing:0px;line-height:120%;opacity:1&quot;&gt;Container Instances&lt;br/&gt;&lt;/font&gt;&lt;/div&gt;" style="text;vsdxID=110;fillColor=none;gradientColor=none;strokeColor=none;spacingTop=-3;spacingBottom=-3;spacingLeft=-3;spacingRight=-3;points=[[0.5,1.6,0],[0.5,0,0],[0,0.5,0],[1,0.5,0]];labelBackgroundColor=none;rounded=0;html=1;whiteSpace=wrap;verticalAlign=middle;align=center;;html=1;" parent="90" vertex="1">
          <mxGeometry x="-25.4" y="50" width="101.6" height="37.26" as="geometry" />
        </mxCell>
        <UserObject label="" tags="Background" id="98">
          <mxCell style="vsdxID=177;fillColor=none;gradientColor=none;strokeColor=none;spacingTop=-3;spacingBottom=-3;spacingLeft=-3;spacingRight=-3;points=[[0.5,1.63,0],[0.5,0,0],[0,0.5,0],[1,0.5,0]];labelBackgroundColor=none;rounded=0;html=1;whiteSpace=wrap;" parent="1" vertex="1">
            <mxGeometry x="601" y="470" width="48" height="48" as="geometry" />
          </mxCell>
        </UserObject>
        <mxCell id="99" style="vsdxID=178;fillColor=#000000;gradientColor=none;shape=stencil(vZJNDoMgEIVPwxKjTrVxbdt7kIpKSsEMtNrbF4OpaGLTuOhufr5hePAIlKZlHSdpbCzqG+9FZVsCJ5KmQrUchXURgTOBstbIG9QPVfm8YyM5Rnf9HE8Y/Fw8TqTxK8wuHpRCBWAS70aLQwQQ4gyvrosTDhFknsdpIIvyo69MSJFHebY487NjoGwQhqK2zAqtFqokw4ZTt43WkjWLluk574Jysi1nvt9q9141W6/zBy0//+EX0AWzm2ohpTdj2F+7z5W8c+H8Bg==);strokeColor=none;spacingTop=-3;spacingBottom=-3;spacingLeft=-3;spacingRight=-3;points=[[0.5,1.63,0],[0.5,0,0],[0,0.5,0],[1,0.5,0]];labelBackgroundColor=none;rounded=0;html=1;whiteSpace=wrap;" parent="98" vertex="1">
          <mxGeometry y="12" width="48" height="35" as="geometry" />
        </mxCell>
        <mxCell id="100" style="vsdxID=179;fillColor=#198ab3;gradientColor=none;shape=stencil(vZLBDoIwDIafZseRsQnEM+p7LDJgcTLSTcG3d3MkDgkcNPHW/v3Wpt2PWGla3gtEibGgL2KQlW0ROyBKZdcKkNZFiB0RK2sNogF966qQ99yTPrrqu+8whncsYZl/RMkjCOSVnQKrZBex+zzJN2AOZ1eBRWOY4DRLikmamJSQWbuYwHyUBoO23ErdxeOI4tAI7MbhWvFmVjKDEH0kp+vbLIaTjdW/R7NkV/x2pZUv+sOJts3hgreraqlUMGVc/3Shk4KD2fEJ);strokeColor=none;spacingTop=-3;spacingBottom=-3;spacingLeft=-3;spacingRight=-3;points=[[0.5,1.63,0],[0.5,0,0],[0,0.5,0],[1,0.5,0]];labelBackgroundColor=none;rounded=0;html=1;whiteSpace=wrap;" parent="98" vertex="1">
          <mxGeometry width="48" height="12" as="geometry" />
        </mxCell>
        <mxCell id="101" style="vsdxID=180;fillColor=#FFFFFF;gradientColor=none;shape=stencil(xVRLDoIwED1Nl5DSJgprxHs0UqCxUjJUwdtbLEqBdINRd/N5nZc3nyKathVrOCK41aDOvBO5rhA9IEJEXXEQ2liIZoimhQJegrrWufUbNiAH66JuQ4XeviMhJsMjgu82gJ/e0WKlqB1ssg+T2A9mcDIZmAonFgsjOKJhMnKNmAjjWTkXEbBetAEozbRQtUuHJYOSB4YuKCQrZ6m247xxwpFfzZI83oU4/kzPukFvku/rWU3yxb1Zjq8/PxDj24vNWjx7/o+5zKZijOk0CyGlvWw3vzxlE7LfAM0e);strokeColor=none;spacingTop=-3;spacingBottom=-3;spacingLeft=-3;spacingRight=-3;points=[[0.5,1.63,0],[0.5,0,0],[0,0.5,0],[1,0.5,0]];labelBackgroundColor=none;rounded=0;html=1;whiteSpace=wrap;" parent="98" vertex="1">
          <mxGeometry x="5" y="16" width="36" height="6" as="geometry" />
        </mxCell>
        <mxCell id="102" style="vsdxID=181;fillColor=#9cebff;gradientColor=none;shape=stencil(xVTLDsIgEPwajiU8rLZnrf9BlLZELM0WX38vSNVS04Mm6m3ZHXYyOyyIL7tatBIx0lkwO3lSW1sjvkKMqaaWoKyLEC8QX5YGZAXm0GzDuRUe6aO9OfoO53CPYcL8JUYuIUFup3XAatUMsPkC59k0WMDGVeDZOA9Y6MGU42wWUj2GEhK184i0RyTirLoEjBVWmWZIR7SASiaOLim1qKJSd5KyHaTptJoxeTbHNH1XTxrpeR3Qg+T7el6cvHN/bM/UfH4gZvQu5nhG39USWzPxzv/hS+SKC56rWSqtw2YP6+NVdqnwDfDiCg==);strokeColor=none;spacingTop=-3;spacingBottom=-3;spacingLeft=-3;spacingRight=-3;points=[[0.5,1.63,0],[0.5,0,0],[0,0.5,0],[1,0.5,0]];labelBackgroundColor=none;rounded=0;html=1;whiteSpace=wrap;" parent="98" vertex="1">
          <mxGeometry x="5" y="26" width="36" height="6" as="geometry" />
        </mxCell>
        <mxCell id="103" style="vsdxID=182;fillColor=#50e6ff;gradientColor=none;shape=stencil(xVTLDsIgEPwajm0oWG3PWv+DKG2JWJoFrf69INU+DAdN1NuyO+xkdlgQXeuatRwRrA2oA+/E3tSIbhAhoqk5CGMjRAtE16UCXoE6NXt/bplDuuiozq7Dxd8jMSbuEsFXn8D309ZjpWhG2HwV51kYzGBnKzA0zj0WenBC42zhUz0mwXjSziHSHhGxi9ARKMOMUM2YDksGFY8sXVRKVk1KuuO8HaWTsJo5ebaMk/RdPelEz+uAniTf1/Pi5IP7Y3tC8/mBmNC7+NiawDv/hy8TV2wwrGYppPSbPa7PV9mm/DdAixs=);strokeColor=none;spacingTop=-3;spacingBottom=-3;spacingLeft=-3;spacingRight=-3;points=[[0.5,1.63,0],[0.5,0,0],[0,0.5,0],[1,0.5,0]];labelBackgroundColor=none;rounded=0;html=1;whiteSpace=wrap;" parent="98" vertex="1">
          <mxGeometry x="5" y="36" width="36" height="6" as="geometry" />
        </mxCell>
        <mxCell id="104" value="&lt;div style=&quot;font-size: 1px&quot;&gt;&lt;font style=&quot;font-size:15.52px;font-family:Segoe UI;color:#000000;direction:ltr;letter-spacing:0px;line-height:120%;opacity:1&quot;&gt;Storage&lt;/font&gt;&lt;/div&gt;&lt;div style=&quot;font-size: 1px&quot;&gt;&lt;font style=&quot;font-size:15.52px;font-family:Segoe UI;color:#000000;direction:ltr;letter-spacing:0px;line-height:120%;opacity:1&quot;&gt;Account&lt;br&gt;&lt;/font&gt;&lt;/div&gt;" style="text;vsdxID=177;fillColor=none;gradientColor=none;strokeColor=none;spacingTop=-3;spacingBottom=-3;spacingLeft=-3;spacingRight=-3;points=[[0.5,1.63,0],[0.5,0,0],[0,0.5,0],[1,0.5,0]];labelBackgroundColor=none;rounded=0;html=1;whiteSpace=wrap;verticalAlign=middle;align=center;;html=1;" parent="98" vertex="1">
          <mxGeometry x="-26.42" y="48" width="101.6" height="55.89" as="geometry" />
        </mxCell>
        <UserObject label="" tags="Background" id="105">
          <mxCell style="vsdxID=183;fillColor=none;gradientColor=none;strokeColor=none;spacingTop=-3;spacingBottom=-3;spacingLeft=-3;spacingRight=-3;points=[[0.5,1.31,0],[0.5,0,0],[0,0.5,0],[1,0.5,0]];labelBackgroundColor=none;rounded=0;html=1;whiteSpace=wrap;" parent="1" vertex="1">
            <mxGeometry x="746" y="330" width="34" height="48" as="geometry" />
          </mxCell>
        </UserObject>
        <mxCell id="106" style="vsdxID=184;fillColor=#cecece;gradientColor=none;shape=stencil(vVPLDsIgEPwajiVbqCU9+/gPorQlYmm2qPXvpZKqqFXjwdsyO7PLkIHweVfLVhEGnUO7VUe9cTXhC8KYbmqF2vmK8CXh89KiqtDum004t3JgDtXOHoYJfdCJghazQcXgFJAip7m4IKsgMLq5E6QAEV0A5d+zYZr6I/H9fgYUPtiTuPZdHN+DFmEc4CigIg3IODOjIp55ddknstddgtZJp20T3ddIrFTityWlkVXU6o5KtU/wS0Mioyx/uXzKDnuyE7l5F4B/+PmcP1/c0ltqY0L47/uPafdQ+Cl8eQY=);strokeColor=none;spacingTop=-3;spacingBottom=-3;spacingLeft=-3;spacingRight=-3;points=[[0.5,1.31,0],[0.5,0,0],[0,0.5,0],[1,0.5,0]];labelBackgroundColor=none;rounded=0;html=1;whiteSpace=wrap;" parent="105" vertex="1">
          <mxGeometry x="11" y="39" width="11" height="9" as="geometry" />
        </mxCell>
        <mxCell id="107" style="vsdxID=185;fillColor=#000000;gradientColor=none;shape=stencil(vVTBkoMgDP0ajmaAiOi52/4H06Iy66qDdmv/fnWgVbTrYWe2N5K8AHkvCcFDV6pWE0673jaf+mYufUnwg3Bu6lJb048ngkeCh7yxurDNtb44u1UTcjp9Nd/TDYPLE3RK4fTuTGedHFLZ8xixHhlnkKIDW4+OOWSZcw3L/MdtsYQs8fFIDaaLbNOr3jR1gK6ULXQ0vhbllSqCUHfTut24/f/OV+tKYS7Igaf+fe9JxPxB7kEcmPQo75IxoE8c0KPks9i7d2USOO7QAywJ2UEQITnIIGUBQYzS/6OnMvVC6CQFlr18/LdyxKacNChHLphcU/QWveVCJLaVkj8/JUQo+LItcKXEQ+65d/8+DS+H6w1a7w11OP6IQFOy0xXjYV4duakqt3mW8fWqGV1uTeHxBw==);strokeColor=none;spacingTop=-3;spacingBottom=-3;spacingLeft=-3;spacingRight=-3;points=[[0.5,1.31,0],[0.5,0,0],[0,0.5,0],[1,0.5,0]];labelBackgroundColor=none;rounded=0;html=1;whiteSpace=wrap;" parent="105" vertex="1">
          <mxGeometry width="34" height="39" as="geometry" />
        </mxCell>
        <mxCell id="108" style="vsdxID=186;fillColor=#000000;gradientColor=none;shape=stencil(xZfddoMgDICfxktz+FHE6657D85KW8+c9qBb3dsPh6cWmVK7au8QEhK/hAQCuqmO4iQDgqpale/ynO3qY0BfAkKy4ihVVutRQLcB3exLJQ+q/Cx25vskWsl29FF+tTs0Ro8TwEmrRdC3mUG/X69GWKg3vaI6YcwhSo2w6qRxDJiaqU6IRUCptaOWiTsbTSiarApVWYs6K4triygX6iBDbTHc5+JgLVVnKU/OdOdjnhVyyjyhwNNxBcogYv9T6H9wDBujDjYSWdhwAtz2Gy2H7Kaw2v6hNUP6EH4U9zKLpx1hQNIR8zcqpAwwHqcQQRLbEC5pesnMGPjIlisgcKx7CLgndbaCHxnzIEv0TPQ8Zq55DwO3XjsKd9RsjJ57vP3lZ6xPrRAjT4u0+6l7rD3dRNctiqcVbFwpJIlNi9ukgJKFgzlx5LR3fMo793eTR1fped4BwpaDbgAX5udrC046OBc4Puu+45ac2Qr98fyTMod0QFkHPbYopxgYH9lzNmV8Rx6weOjhoDFMcV0hD24Iqx70t/p9lufmUXC9PnwF6CnzgqDbHw==);strokeColor=none;spacingTop=-3;spacingBottom=-3;spacingLeft=-3;spacingRight=-3;points=[[0.5,1.31,0],[0.5,0,0],[0,0.5,0],[1,0.5,0]];labelBackgroundColor=none;rounded=0;html=1;whiteSpace=wrap;" parent="105" vertex="1">
          <mxGeometry x="6" y="9" width="22" height="26" as="geometry" />
        </mxCell>
        <mxCell id="109" style="vsdxID=187;fillColor=#999999;gradientColor=none;shape=stencil(pZLLDoMgEEW/hu0EGRVcW/sfJmIltWKQvv6+UhYVGytJd/M4Q+4Ml2A5dfUoCaOTNfos76qxHcEDYUwNnTTKzhHBimDZaiNPRl+Hxudj7UgXXfTNvfDwc9RNMPr0WYZQJO/K0cO9GhZwQkM8KSDj8TjdRkMQU+AiFt7RvAOH11grzjlgEb9gKoDlsVIEQhq9pMjApVswhzz8GPrj1n8u+YXPwcddrep7b85lf+3GueSdjNUL);strokeColor=none;spacingTop=-3;spacingBottom=-3;spacingLeft=-3;spacingRight=-3;points=[[0.5,1.31,0],[0.5,0,0],[0,0.5,0],[1,0.5,0]];labelBackgroundColor=none;rounded=0;html=1;whiteSpace=wrap;" parent="105" vertex="1">
          <mxGeometry x="11" y="40" width="11" height="6" as="geometry" />
        </mxCell>
        <mxCell id="110" value="&lt;div style=&quot;font-size: 1px&quot;&gt;&lt;font style=&quot;font-size:15.52px;font-family:Segoe UI;color:#000000;direction:ltr;letter-spacing:0px;line-height:120%;opacity:1&quot;&gt;Application Insights&lt;br/&gt;&lt;/font&gt;&lt;/div&gt;" style="text;vsdxID=183;fillColor=none;gradientColor=none;strokeColor=none;spacingTop=-3;spacingBottom=-3;spacingLeft=-3;spacingRight=-3;points=[[0.5,1.31,0],[0.5,0,0],[0,0.5,0],[1,0.5,0]];labelBackgroundColor=none;rounded=0;html=1;whiteSpace=wrap;verticalAlign=middle;align=center;;html=1;" parent="105" vertex="1">
          <mxGeometry x="-33.53" y="48" width="101.6" height="37.26" as="geometry" />
        </mxCell>
        <UserObject label="" tags="Background" id="111">
          <mxCell style="vsdxID=189;fillColor=none;gradientColor=none;strokeColor=none;spacingTop=-3;spacingBottom=-3;spacingLeft=-3;spacingRight=-3;points=[[0.5,1.31,0],[0.5,0,0],[0,0.5,0],[1,0.5,0]];labelBackgroundColor=none;rounded=0;html=1;whiteSpace=wrap;" parent="1" vertex="1">
            <mxGeometry x="169" y="296" width="48" height="48" as="geometry" />
          </mxCell>
        </UserObject>
        <mxCell id="112" style="vsdxID=190;fillColor=#000000;gradientColor=none;shape=stencil(hZNLEoIwDIZP022nD0BZo97DEZSOCEwBxdsLpi0t8bFrkr/NlzQhMuvKY1sQwbpeN9fiofK+JHJHhFB1WWjVTyci90Rm50YXF90MdQ52e5yV8+nW3OcXRrgXbWiSzLcEe4KHU5G+HQfQV6r29C5q5csDRn8aNCTgIGBGbsxoS9MYXKMIFcaMOWVWIVFW44kFldF3TFxWuqUb/ovTA7OsnLGQ1EOztIsGkTlYlDuEXcIWFlW3hnVZLarftDWZRfVbj8gcLPrQENYv7/PArFn9poUzMWKwZzgTI4JynL/n9P9cT4dlKc6qqmCn/Ph6iSYXLKDcvwA=);strokeColor=none;spacingTop=-3;spacingBottom=-3;spacingLeft=-3;spacingRight=-3;points=[[0.5,1.31,0],[0.5,0,0],[0,0.5,0],[1,0.5,0]];labelBackgroundColor=none;rounded=0;html=1;whiteSpace=wrap;" parent="111" vertex="1">
          <mxGeometry width="48" height="48" as="geometry" />
        </mxCell>
        <mxCell id="113" style="vsdxID=191;fillColor=#c3f1ff;gradientColor=none;shape=stencil(lVjbUhsxDP2avGpsy9fnlv4H09KSKQUmQJv+fbXN+rJHrDO8BXO0R5IlWdKBP73c3z7fHZx5eT09/bz7c/z2en/gzwfnjo/3d6fjq/w68M2BP31/Ot39OD29PX67/P18uyCXX7+efi9fOF/kSqYSFyln/l5OfCL3/+DLBf9wfBzwqVBOGzwz5TwKfH07XRjsKiIfzKvIesS2ypizW1GR7ApaT9gRr1RnVqD1hANxnqjbBVbrbFVmT9suYZtISqBsoBy22npHzoO2olvZqiuoUKb0nooHfteOGr8n9sDPZBn4mRLQN9AOfUyUHNDLV4A+Wora/FS29CGSD8BvyE/5g21ebLGSyUCstBDtseIbV6X34kmgZ0N2EtujxOVEbsvP1B0l1iPb8qNp6ylutRUjHSjLVPJWWVPdvsfNLT0qtyGH3GIBb8kNMMtdRmDed5EL5LYJZWY6uiFO7ZZ+1cYxBcj7wYpVIbmHXD7mHRHBojN4vZJbKuCd4fpYg/j9sAAfDQJrIrrqtT1tBxHbZEJQ6iaIJEHlqPT1cKFSCK7R2wj0El0M9OJzyHpBeaQ3xE7Rr6h3/SUBCO5CPOpria1S10PoW6VqgPrcYmjUNE5fB6lfWTFnCKsewH97vTYOyS1UJwG5aUwbMhgkXpltFHNSzAbjw9cmYJfZwqsgb9t1q0Ot9gM3Gh1oEhpSsGver+1KIZtmmrJ+QETGwwPGQ8y5hooQH9KAGHhABZWm77fIBKv4C6SSoFq5r+FqoDAzqzyumD1uVr1D/+rwUFpleYFrElQOH7VcIqIoyyN6Xu67KH6Pno8tXwb+7c1vIyXGnpk9sqbpJCLwfi4BC+kkoIw1VwyFXkNQBYteIDMtuosM1hKvOs0FhUXXU3CKP8MbtVST6X0t5mMV9a00DPy65uMTKSCnK2mad5pBm8+1Oe70colYVXrH0Pil0ca60lDvt3pi1nbsUQKq34qqlxlVcQ1lWSnswWE+qJ5iQc35Q/Xo5pGG/BJU0BeG8SoofV/zycD3qO/0ilvZrvsTQRm8LFdDcdJnY67q/sgPs1Pn5wz8ei5Q/dm1ucDnK8UwMIGz5MTgGMWqOQ+hVrlxiovQ/AZP14ZIA6ktIhlyaxkiHdB3D557HYkwc4uSZhorSz+B/KG1EMMQbZMyH0M1qVAN4coQuVR+VvRRsWdFnhU3pqkMtVdsjz28bZNxyC5lAp7h0Crt/rZDMGkyeahth0TYduC9vu1YKi7UtJTUtkMqvkVnDZuhWpcldty+unr3FEy9/x19pQvAsU5kcD8gqIDrkdJsOA8dDTzagpqvZ5ZeCddDpaVRGz2MUezY/3dM5c5Vnb2pp0nYJuGdsrxAXAkKF0PvWZ5qod63POBiKmFSjdfTdzW4xRvvvdN/KFAQLz/6hvP78eHhsiAd/48bUTm6bFP55h8=);strokeColor=none;spacingTop=-3;spacingBottom=-3;spacingLeft=-3;spacingRight=-3;points=[[0.5,1.31,0],[0.5,0,0],[0,0.5,0],[1,0.5,0]];labelBackgroundColor=none;rounded=0;html=1;whiteSpace=wrap;" parent="111" vertex="1">
          <mxGeometry x="16" y="9" width="23" height="30" as="geometry" />
        </mxCell>
        <mxCell id="114" value="&lt;div style=&quot;font-size: 1px&quot;&gt;&lt;font style=&quot;font-size:15.52px;font-family:Segoe UI;color:#000000;direction:ltr;letter-spacing:0px;line-height:120%;opacity:1&quot;&gt;Changes&lt;br/&gt;&lt;/font&gt;&lt;/div&gt;" style="text;vsdxID=189;fillColor=none;gradientColor=none;strokeColor=none;spacingTop=-3;spacingBottom=-3;spacingLeft=-3;spacingRight=-3;points=[[0.5,1.31,0],[0.5,0,0],[0,0.5,0],[1,0.5,0]];labelBackgroundColor=none;rounded=0;html=1;whiteSpace=wrap;verticalAlign=middle;align=center;;html=1;" parent="111" vertex="1">
          <mxGeometry x="-26.42" y="48" width="101.6" height="18.63" as="geometry" />
        </mxCell>
        <UserObject label="" tags="Background" id="115">
          <mxCell style="vsdxID=200;fillColor=none;gradientColor=none;strokeColor=none;spacingTop=-3;spacingBottom=-3;spacingLeft=-3;spacingRight=-3;points=[[0.5,1.31,0],[0.5,0,0],[0,0.5,0],[1,0.5,0]];labelBackgroundColor=none;rounded=0;html=1;whiteSpace=wrap;" parent="1" vertex="1">
            <mxGeometry x="521" y="585" width="48" height="48" as="geometry" />
          </mxCell>
        </UserObject>
        <mxCell id="116" style="vsdxID=201;fillColor=none;gradientColor=none;strokeColor=none;spacingTop=-3;spacingBottom=-3;spacingLeft=-3;spacingRight=-3;points=[[0.5,1.31,0],[0.5,0,0],[0,0.5,0],[1,0.5,0]];labelBackgroundColor=none;rounded=0;html=1;whiteSpace=wrap;" parent="115" vertex="1">
          <mxGeometry width="48" height="48" as="geometry" />
        </mxCell>
        <mxCell id="117" style="vsdxID=202;fillColor=#000000;gradientColor=none;shape=stencil(jZTdcoMgEIWfhlsG2PrDdZq8RyYxlanVjDGtvH1wCLoL1fGOlQPf2WVdBodHfb5XTInH0Hff1Z+5DjWDT6aUaeuqN4NbMTgyONy6vvrqu2d79fH9PCmn1U/3O90w+nOZmI4oYX3oo5NXXp69l0q/qRQH/ZZLrBejIqFVyYERqAIIfgUoKKwoeC4pEFt6f5JCUGQWMYNgBYooAbxcGTMCFFuDWLMrV625zinWJfdBuQ6TRekKLmA7X4JtTLvz9Tf7RAOX5Wav5FxmNJ3lzJxPzksVFRJ4mdF8kGhXJZE+NTM3DvKXmFmr5KxYa53FvE3MBDIqg03NBDRW/Zs1fUgs39VtTl9EfxeqfPoYNnW/VqWkNzZ7LlG7xTKsbqZp/KzD+/Fwc5/8YITjCw==);strokeColor=none;spacingTop=-3;spacingBottom=-3;spacingLeft=-3;spacingRight=-3;points=[[0.5,1.31,0],[0.5,0,0],[0,0.5,0],[1,0.5,0]];labelBackgroundColor=none;rounded=0;html=1;whiteSpace=wrap;" parent="116" vertex="1">
          <mxGeometry width="48" height="48" as="geometry" />
        </mxCell>
        <mxCell id="118" style="vsdxID=203;fillColor=#FFFFFF;gradientColor=none;shape=stencil(vVHLDsIgEPwajiQI6RfU+h8bu22JCGRB2/69kG1iazx58DazM/vIjjBtmiCi0CplCjecbZ8nYc5Ca+snJJsLEqYTph0C4Ujh4XvmEaqzont41gkL96naodXKrGF6YSfQtUi0OXXDVlqPfJNP6usotUhYbJIUMmQb/GGrAxpRljVycDBuc1hKM2LclX8/7H9nFfB+82Cd45T2+mcspcSRmu4F);strokeColor=none;spacingTop=-3;spacingBottom=-3;spacingLeft=-3;spacingRight=-3;points=[[0.5,1.31,0],[0.5,0,0],[0,0.5,0],[1,0.5,0]];labelBackgroundColor=none;rounded=0;html=1;whiteSpace=wrap;" parent="116" vertex="1">
          <mxGeometry x="3" y="3" width="42" height="42" as="geometry" />
        </mxCell>
        <mxCell id="119" style="vsdxID=204;fillColor=#000000;gradientColor=none;shape=stencil(lZbdUuMwDIWfJrcaW/LvNQvvwUDZdrbbMqXswtuvsokTSyEOvQviqPp8LNvq6O5t//i669C8XS/nX7u/h+frvqMfHeLhtN9dDlf+6ui+o7uX82X383J+Pz0Pf78+9sr+6/f5T/8LH0NeJrB9EprPIUAZsv8feRj0T++XIcEOAmvMmDAGyIPHIfSBWjMGMAHFUUOLymMECTLVpY+HU4UacKozsjqg3EL1TJYlrJGgzoGzEtVITIrgkuTUZRUmpCwoF8vSmMrP2ivJVBBrx2lRlVY2UmISApHg9AFcbHESAQbJ6iOYIFlZFZPkZVUKylZWKWCfIDR8rTOGSEqQ0gZwVPuf8mTUBMw9gBI4G0iqXXvPSQJnW9rrS2AXwSYBnDMY2wJ2CaKTwNNRKrjezrugj1uB9QgJFSzXxuZhqXKs5p2rVypcqtr17bpZwYFRZllIbj0hGggyIUUIzXMWeb+Uu5xjnFxhrRpDKYBV560uP4bS1CFfr9CXa2AC5gutxcue5Kh42RQveWtV4TXFuvl+qKrTpMLGjiwNjlNDf9/gGMCnTYOjhxA3DWaVibcYHBHMrQ4znds0mOG2/Q0ZYgN36W8IEG9tYM6x2w3MdEib/vJCQ6uBF0c0GKBwSwJf8QnXE7aHkVv1ctjxRqgz2GZ39OODVzdiSZm7w5Qem69jXFyItWoM2enX15qzyimPAV+i6vWqIcuwZYsL84VsZPFZsvYS8aOoitc/i9rvefEV4mIS+f7i+xz9EuLiNaopcbFDK2vX2y57aqNH+GMepV8Ox+Mwidf/16M3h4axne7/AQ==);strokeColor=none;spacingTop=-3;spacingBottom=-3;spacingLeft=-3;spacingRight=-3;points=[[0.5,1.31,0],[0.5,0,0],[0,0.5,0],[1,0.5,0]];labelBackgroundColor=none;rounded=0;html=1;whiteSpace=wrap;" parent="116" vertex="1">
          <mxGeometry x="9" y="1" width="29" height="46" as="geometry" />
        </mxCell>
        <mxCell id="120" style="vsdxID=205;fillColor=#ff9300;gradientColor=none;fillOpacity=75;strokeOpacity=75;shape=stencil(hVTRcoMgEPwaXm+AAw6e0+Q/Mo2pTq1mjGnTvy8WNHJt7Rsse+7O7Z0Cd9f6eKmEltdx6F+rj+Y01gKfhNZNV1dDM8aTwL3A3bkfqpehv3WndL8cJ+Z0euvfpy/cU51ygFORlp8JCB6U+0YOif98G1KBSgQkMCaXZEhJmYC7ToALgD5zMhQCkMssTJAncJRZGQoRwi31YAGpVA8OyJb6kxjXt8DkF9eLuAGz1m6bbt2phZ7uFjxtOX3wM2BAErMpF+ezTQ0GS5tkgViX1JzAH9IWl1AzwvLRkcCEJTjN4gEbSl0NfjOc+O5KXQTSpbQsZQ34UjX6cKUqb3QZy4r/e4o/cgHLxjeOBoXSJYFk/YmTqViDVrszTxBfHjZC/y5bPDw29dy0bVr09Tvf7AilvwLuvwA=);strokeColor=none;spacingTop=-3;spacingBottom=-3;spacingLeft=-3;spacingRight=-3;points=[[0.5,1.31,0],[0.5,0,0],[0,0.5,0],[1,0.5,0]];labelBackgroundColor=none;rounded=0;html=1;whiteSpace=wrap;" parent="116" vertex="1">
          <mxGeometry x="21" y="29" width="1" height="12" as="geometry" />
        </mxCell>
        <mxCell id="121" style="vsdxID=206;fillColor=#ff9300;gradientColor=none;fillOpacity=75;strokeOpacity=75;shape=stencil(hZPdDsIgDIWfhtsGCmzu2p/3MLo54twMzr+3lwnLoDq9aw8H8vWkMLm81NtzyZBfetsdy7vZ9zWTK4Zo2rq0pncVk2sml1Vny4Ptru3e9+ft4ByqU3cbXnj4exoUDpeQP73A393GexvTRt5CgV7Mm3dX618WwZ6DVsEuYj9/oG8FD8IzCMhBFcEjqScISkMxzzjZw3wKxC/IyR+EvACpUsx4EEo+YsbZEPKvnB+5EzflRFAkywkBk3BHRDeIFikkSZJmkxKmOdLUKR8Hjimfk7IsJYyGSJlHwCgV+Xcdf6+uK6adr0zT+C8Tn9M/4iT/v+T6BQ==);strokeColor=none;spacingTop=-3;spacingBottom=-3;spacingLeft=-3;spacingRight=-3;points=[[0.5,1.31,0],[0.5,0,0],[0,0.5,0],[1,0.5,0]];labelBackgroundColor=none;rounded=0;html=1;whiteSpace=wrap;" parent="116" vertex="1">
          <mxGeometry x="17" y="15" width="14" height="1" as="geometry" />
        </mxCell>
        <mxCell id="122" style="vsdxID=207;fillColor=#ff9300;gradientColor=none;fillOpacity=75;strokeOpacity=75;shape=stencil(hZPbDoMgDIafhtsGWojzeof3WKabZE4Xpju8/XRghO50V+oH+foLgpaXansuBcpL59pjebNFVwlaCUTbVKWz3VAJWgta7ltXHlzbN4Vfn7cjOVan9jqecPf7DGgcN6F8+IZ8rTaerW0TsbkGs/gO73rnT1YBz8DogKuYl3f0SyVD4xEaKEHngSHOhIY2kH93nPEwnwb1S3LmQyPLwahUMx6Em0+acTbM/KPnW+6M5p4ImmU5K2AS7qQYD0IpQZ+zSQ3THHnq3E+CxNQv/pf4NkTqPAlGqdDf6/j76g7FfOf3tq79k4m/8zcytPz7ovUT);strokeColor=none;spacingTop=-3;spacingBottom=-3;spacingLeft=-3;spacingRight=-3;points=[[0.5,1.31,0],[0.5,0,0],[0,0.5,0],[1,0.5,0]];labelBackgroundColor=none;rounded=0;html=1;whiteSpace=wrap;" parent="116" vertex="1">
          <mxGeometry x="17" y="18" width="14" height="1" as="geometry" />
        </mxCell>
        <mxCell id="123" value="&lt;div style=&quot;font-size: 1px&quot;&gt;&lt;font style=&quot;font-size:15.52px;font-family:Segoe UI;color:#000000;direction:ltr;letter-spacing:0px;line-height:120%;opacity:1&quot;&gt;Key Vaults&lt;br/&gt;&lt;/font&gt;&lt;/div&gt;" style="text;vsdxID=200;fillColor=none;gradientColor=none;strokeColor=none;spacingTop=-3;spacingBottom=-3;spacingLeft=-3;spacingRight=-3;points=[[0.5,1.31,0],[0.5,0,0],[0,0.5,0],[1,0.5,0]];labelBackgroundColor=none;rounded=0;html=1;whiteSpace=wrap;verticalAlign=middle;align=center;;html=1;" parent="115" vertex="1">
          <mxGeometry x="-26.42" y="48" width="101.6" height="18.63" as="geometry" />
        </mxCell>
        <UserObject label="" tags="Background" id="124">
          <mxCell style="vsdxID=208;fillColor=none;gradientColor=none;strokeColor=none;spacingTop=-3;spacingBottom=-3;spacingLeft=-3;spacingRight=-3;points=[[0.5,1.31,0],[0.5,0,0],[0,0.5,0],[1,0.5,0]];labelBackgroundColor=none;rounded=0;html=1;whiteSpace=wrap;" parent="1" vertex="1">
            <mxGeometry x="381" y="585" width="48" height="48" as="geometry" />
          </mxCell>
        </UserObject>
        <mxCell id="125" style="vsdxID=209;fillColor=#000000;gradientColor=none;shape=stencil(vVTLcsIwDPyaHKOx5WfOFP7DAwE8TRPGCYX8fZPapMi00xPcbGllrdfyFmLVH92pLpD1Q+je64vfDcdCvBWIvj3WwQ/TqhDrQqz2XagPoTu3u7g/uRk5rz66z/mEa6zjjM01yMa41xa0/Y5sItyF7ZQNCY4I0sSCkCoEhxRJGMtAkTOFBeQJUrqr78vQDW7wXRvziUHjwqEup37lvnEHkuovdX16CP/O0IIQGcMKKksoKr6ARtLoBfwqYIrykwyqivBDAUoTfqjBvE5DDZZnGhqwSDhmcyOAv46fAcSMnwXJqYYWONVwmfVnMNyeQ/xXfGl/e9SR5/1xmYWbqGMKVdOspvG4inQ1BlomlFhQVt13b3x796mNBqTj/VBABZWgsvfWIDSR0xiQMj9TVc8T9MF4jMyeHIHRb/23mT2FIRX9XyedFj8uvPdNE038Pp+79hSKji/WXw==);strokeColor=none;spacingTop=-3;spacingBottom=-3;spacingLeft=-3;spacingRight=-3;points=[[0.5,1.31,0],[0.5,0,0],[0,0.5,0],[1,0.5,0]];labelBackgroundColor=none;rounded=0;html=1;whiteSpace=wrap;" parent="124" vertex="1">
          <mxGeometry width="48" height="40" as="geometry" />
        </mxCell>
        <mxCell id="126" style="vsdxID=210;fillColor=#32bedd;gradientColor=none;shape=stencil(xZTbEoIgEIafhksZDlZyXfYeTKEykTgrlb19GFaSdVMzdbeHb1l+YEF82VayUYiR1oHdqZPeugrxFWJM15UC7byFeI74srCgSrCHehv8RvZkb+3tsV+hC3VihkXaVzFyDhFy9dYBNroewSkmi/eshI3PwMByLERgYYApw3QWQt24/LYYpTjLhnwiO90mYJ102tYRbSSUKvHNksLIMkq1J6WaSfillLh1lmHKvtPiz2YeyyHkV2Kml3hr/rGc++4nJ/QDPc/NHy/jpZ50KkZEYt498r9cTQR74zGZhTYmDPY4/zzJPhR+AZ5fAA==);strokeColor=none;spacingTop=-3;spacingBottom=-3;spacingLeft=-3;spacingRight=-3;points=[[0.5,1.31,0],[0.5,0,0],[0,0.5,0],[1,0.5,0]];labelBackgroundColor=none;rounded=0;html=1;whiteSpace=wrap;" parent="124" vertex="1">
          <mxGeometry x="14" y="33" width="18" height="7" as="geometry" />
        </mxCell>
        <mxCell id="127" style="vsdxID=211;fillColor=#198ab3;gradientColor=none;shape=stencil(xZTNEoIgEMefhqMMgpWcy96DSVQmEmelsrcPQ1OyLh3qth//ZfkBC2LbthKNRJS0FsxRXlVuK8R2iFJVVxKUdRZiGWLbwoAswZzr3PuN6JW9dTKXfoXO1/EV5klfRcnNR8jD23uxVvVMnGCy+awVcHAZGLQMc+61MIhjiuOVD3Xz8nGxOMZpOuQj0ak2AmOFVaYO1FpAKSPXLCq0KINUe5WyWYTfooSt03Qk+5rFnc06xCHkVzDLSxybf43z3P3ihH7A89p8ehlveZIlDA9gPj3yv1xNIHbGNJmF0toP9jz/Osku5H8Blt0B);strokeColor=none;spacingTop=-3;spacingBottom=-3;spacingLeft=-3;spacingRight=-3;points=[[0.5,1.31,0],[0.5,0,0],[0,0.5,0],[1,0.5,0]];labelBackgroundColor=none;rounded=0;html=1;whiteSpace=wrap;" parent="124" vertex="1">
          <mxGeometry x="14" y="41" width="18" height="7" as="geometry" />
        </mxCell>
        <mxCell id="128" style="vsdxID=212;fillColor=#b4ec36;gradientColor=none;shape=stencil(xVfbcoMgEP0aH93hJuJzm/6H05jEqdUM2ib9+2JNorAVUztD3hAWjmf3HC4Rf2oP+bGIGGk73bwVp3LbHSL+HDFW1odCl51pRXwT8addo4u9bj7q7fB9zPvIvvXefPYrnId5lAOX/SxGvoYe8vP1MgRXZT0JVgwST3CuX82IxivrSzQFxYaeS0yWQMasBSchcX4u21g3Xd6VTT3FI1Wu90Vs8OJdle+tofZUFMdJN52n8ws6ASU8lBgol1GaWIwUB+qsaZKWhaI0/iFCn2WEipRKixKZSVEAOg70Ndmr9Tan9hCV8RvNcSWDLLOCDRepvM68CnFuAs4WXXKnBGqvySEJlS8EzhkInzcNoWSBEM4SF8BkKEpYAiP8LCexwInMJCm4O404BPvX3ulTfZi9c8l0jkslKHu3lQmkYh5BSZDCP+HvAqDEroNMb4d0gJw54KmExLfr3HGApmCfn6kCHuxKQNObfxD86n1UAFEoS6EYIfBeHws3AkTINapH+CGKtOy7JaMalQkPAjYqmoBkILAMuNeoKgMWLmcOeKaA+S5TK4x6g3iEAq7ga9kgm4wJeoRJjTao72Jwx2Hq0fxDKoQcZBrjq3RXVtXwqJ2Ou69Y0zW8gPnmGw==);strokeColor=none;spacingTop=-3;spacingBottom=-3;spacingLeft=-3;spacingRight=-3;points=[[0.5,1.31,0],[0.5,0,0],[0,0.5,0],[1,0.5,0]];labelBackgroundColor=none;rounded=0;html=1;whiteSpace=wrap;" parent="124" vertex="1">
          <mxGeometry x="30" y="34" width="1" height="12" as="geometry" />
        </mxCell>
        <mxCell id="129" style="vsdxID=213;fillColor=#50e6ff;gradientColor=none;shape=stencil(xZPLFoIgEIafhqUcLma5LnsPTqFyIvGMVPb2YWiJ5qZF7ebyDcM/MIhvm1LUEjHSWDAneVNHWyK+Q4ypqpSgrLMQzxDf5gZkAeZSHb1fi47srLO5die0vi5d4TTuqhi5+wh5ensPa1WN4BiT9TIr4OAy0LMcp6lnoYcpw5T5UDsuHw6jFPcVbSRa1URgrLDKVAGsBRQycr2iXIsiSDU3KetZ+KOSsPNmg+myknguIwlkuLEkoRJCfiVk/n5D8++0vK4+Hc0PtEx7vz7Ed1KWvvZfXiWAnfHex1xp7dd5nJ/urwv53efZAw==);strokeColor=none;spacingTop=-3;spacingBottom=-3;spacingLeft=-3;spacingRight=-3;points=[[0.5,1.31,0],[0.5,0,0],[0,0.5,0],[1,0.5,0]];labelBackgroundColor=none;rounded=0;html=1;whiteSpace=wrap;" parent="124" vertex="1">
          <mxGeometry x="14" y="24" width="18" height="7" as="geometry" />
        </mxCell>
        <mxCell id="130" style="vsdxID=214;fillColor=#FFFFFF;gradientColor=none;shape=stencil(xZfbcsIgEIafJpfucCZcW/semRo109Q4JK369iUlUQmC1bH0DmF3f79lF0JG5+2m2JUZQW2nm/dyXy27TUZfMkKq7abUVWdGGV1kdL5qdLnWzed2aX/vit6yH300X32Eg/VTGHjvRNDRTuQIKP6ZebX2dbW9tM+By7hDod/Mqh4cMFBm7fVxnEHDzBhTgSJuTOMlBptZcajamW66oquarV1Hdq0u9LqcGb3Zqi7WzlK7L8vdxXQMyZcXwHkUySPCLlEOYhJSAk9HZDaVBeRDRMJDEi4SAqy8LOFkSL48vlF3RE2QXJ5w4SfaoXgX3WhTRUCqe9rUc7i/Arw+URRylixlvnwOKo50d5tihP6tBEbtR2EQhNKTpj+92pDxE+cWT7jk/2N3vP6ZNKgC7iaAI8h5WICb3plcpGLIydWEcWDczRgDQp2MMQE4EDJBxtDpNgglwAUiwLwPg1w5QASIe40xCSIZED1fCJ58iIh4RLlDRE0VUTcmB8mfioQiSJ48Bhbt0vH/66n9KSQD4WYp2QkqOFB+RfpRFCFPHeWb/D2Np96XRmRzflFuQoFwM9SX8HOv7Ei5KQmSBORDSHyK5B4JsXM2zUfIrWPeDM6PrVVV1/atdrk+fZyZKfuwo4tv);strokeColor=none;spacingTop=-3;spacingBottom=-3;spacingLeft=-3;spacingRight=-3;points=[[0.5,1.31,0],[0.5,0,0],[0,0.5,0],[1,0.5,0]];labelBackgroundColor=none;rounded=0;html=1;whiteSpace=wrap;" parent="124" vertex="1">
          <mxGeometry x="17" y="8" width="14" height="21" as="geometry" />
        </mxCell>
        <mxCell id="131" value="&lt;div style=&quot;font-size: 1px&quot;&gt;&lt;font style=&quot;font-size:15.52px;font-family:Segoe UI;color:#000000;direction:ltr;letter-spacing:0px;line-height:120%;opacity:1&quot;&gt;Service Bus&lt;br/&gt;&lt;/font&gt;&lt;/div&gt;" style="text;vsdxID=208;fillColor=none;gradientColor=none;strokeColor=none;spacingTop=-3;spacingBottom=-3;spacingLeft=-3;spacingRight=-3;points=[[0.5,1.31,0],[0.5,0,0],[0,0.5,0],[1,0.5,0]];labelBackgroundColor=none;rounded=0;html=1;whiteSpace=wrap;verticalAlign=middle;align=center;;html=1;" parent="124" vertex="1">
          <mxGeometry x="-26.42" y="48" width="101.6" height="18.63" as="geometry" />
        </mxCell>
        <UserObject label="" tags="Background" id="146">
          <mxCell style="vsdxID=228;fillColor=none;gradientColor=none;strokeColor=none;spacingTop=-3;spacingBottom=-3;spacingLeft=-3;spacingRight=-3;points=[[0.5,1.31,0],[0.5,0,0],[0,0.5,0],[1,0.5,0]];labelBackgroundColor=none;rounded=0;html=1;whiteSpace=wrap;" parent="1" vertex="1">
            <mxGeometry x="671" y="585" width="48" height="48" as="geometry" />
          </mxCell>
        </UserObject>
        <mxCell id="147" style="vsdxID=229;fillColor=#76bc2d;gradientColor=none;shape=stencil(xVbbcoIwEP0aHtnJHfJs7X9katBMKTiBVv37QiNKoAxFbXwLu4dszmazZyO6qnZqryOCqtqW7/pgNvUuoi8RIabYaWvqZhXRdURXWWn11pafxcZ971WLbFcf5Ve7w9H9xzCQ9ieCTs5AGRD5Y3l1eGXfGq/t8ICxw9tTZ5HMWc4QmgDzt5TA6BkSq6OpYlvWqjZl4fzI+XJltzpuwsVZrraeqzpove+Zcf+AuSn6hICkE9GnCJERIeERQsMEpSIUGz80B8wWMuH+1YCfGxSKBxUg6S+hbyUyKlsGPAlWYrNvZinef5MY+dcuGND0rnRJMTiBkMBJqHwJCiiZCP/3JuMz4umglEUP8u+MRtEpn2syc11TEBD+lqgrkgCEJIeETIS/ldGwjIM2ztk3tBA+o5rywu1hqnk50hM0s4t9a7/xkyl5QP0f3GNT1/guKkPJFCig0oxl8xr+YdIpLmPFM7Rz9HKW4pvFdbjNTJ672bjvHw7DjckN0nT9DQ==);strokeColor=none;spacingTop=-3;spacingBottom=-3;spacingLeft=-3;spacingRight=-3;points=[[0.5,1.31,0],[0.5,0,0],[0,0.5,0],[1,0.5,0]];labelBackgroundColor=none;rounded=0;html=1;whiteSpace=wrap;" parent="146" vertex="1">
          <mxGeometry x="22" y="16" width="18" height="16" as="geometry" />
        </mxCell>
        <mxCell id="148" style="vsdxID=230;fillColor=#86d633;gradientColor=none;shape=stencil(vVPBbsMgDP0ajkFg2iycu+4/UEsSNBYih67p348MlgXUbdIOvRn72c/P2EQcpl6NmgCbPLpXfTVn3xPxTADM0Gs0PlhEHIk4tA51h+4ynON7VAtysd7c+1JhjnmcsSUH2C2+mydaw6fnJcIVnkIUE1zSnYh4TAmcUxk9XxBOBWQ1V465UrOZKnReeeOGGE0xq7DTVWCrWqu6LDRdtR43br7tz5ohk0O5vEv+g5yGF3KAiibTU8xHUrZ/lJqcep30v6WE3uus5MP+JayVhDvUCXy6YFxKnhqtKaQ9u/G8VSj3Njn2FHYJIkqIWAfS1L/tzh+nEIzvM2qNtfEKt/Hy7IIrnqw4fgA=);strokeColor=none;spacingTop=-3;spacingBottom=-3;spacingLeft=-3;spacingRight=-3;points=[[0.5,1.31,0],[0.5,0,0],[0,0.5,0],[1,0.5,0]];labelBackgroundColor=none;rounded=0;html=1;whiteSpace=wrap;" parent="146" vertex="1">
          <mxGeometry x="11" y="11" width="7" height="6" as="geometry" />
        </mxCell>
        <mxCell id="149" style="vsdxID=231;fillColor=#76bc2d;gradientColor=none;shape=stencil(xVXbkoMgDP0aHmW4uCjP3fY/mBaVWVc6aLft3y8u2AqtddqdqW+QHJKcmGMAXbWV2EtAUNsZ/SWPatdVgH4CQlRTSaM6ewJ0Deiq0EaWRh+anbvvRY/sT9/6p49wcu8wQv0bgs7uTlOYkT/LxsGF2Vqv8XAOU+rwxj+44IeIHENKwpgc5thjEnFSbWJ0JzqlG+f3FdTClDKx+ZKiFmXgao9S7kdmPK6wVk1ACGI+kX6C0lDclRIPGE116A1swtS2sGeJ4IAJh4gFEdG7iOQZ5OROag/eHoybSuwLZZD4QTvjsFQSD643EIhyD6ExhN7vXzw5M1J4rBw+93VeUM4lxxK6GZK/OmxRez5gmi0jG/b/LxPrhi0oHPascticdBiG+fDLm9LOTRMfi+dGDfZw3UGFqmu3wsb+eGdZk9t3dP0L);strokeColor=none;spacingTop=-3;spacingBottom=-3;spacingLeft=-3;spacingRight=-3;points=[[0.5,1.31,0],[0.5,0,0],[0,0.5,0],[1,0.5,0]];labelBackgroundColor=none;rounded=0;html=1;whiteSpace=wrap;" parent="146" vertex="1">
          <mxGeometry x="11" y="21" width="7" height="17" as="geometry" />
        </mxCell>
        <mxCell id="150" style="vsdxID=232;fillColor=none;gradientColor=none;strokeColor=none;spacingTop=-3;spacingBottom=-3;spacingLeft=-3;spacingRight=-3;points=[[0.5,1.31,0],[0.5,0,0],[0,0.5,0],[1,0.5,0]];labelBackgroundColor=none;rounded=0;html=1;whiteSpace=wrap;" parent="146" vertex="1">
          <mxGeometry width="5" height="12" as="geometry" />
        </mxCell>
        <mxCell id="151" style="vsdxID=233;fillColor=#999999;gradientColor=none;shape=stencil(vVPLDsIgEPwajiUUaNVz1f8gSlsilmaLWv9ekKrURJv00Ns+ZpkdMotY0dWilYiSzoI5yZs62hqxLaJUNbUEZV2E2A6xojQgKzCX5hjyVnikj87m6l/owxwjOM/8FCX3UCHPbB/AWjUROCVkLnRDccZjuICD68ILnuFsEwZgmFhhnofKgFlzzNPRo2+SPhG96hIwVlhlmng7ogVUMnF0SalFNWp1NynbqJz+0fNZ8It8tp5fH7SAmjG1W5bT31q8RfhYS8rfrpnw0QJiJizsgo/5S6V1uJ24/30srhQOje0e);strokeColor=none;spacingTop=-3;spacingBottom=-3;spacingLeft=-3;spacingRight=-3;points=[[0.5,1.31,0],[0.5,0,0],[0,0.5,0],[1,0.5,0]];labelBackgroundColor=none;rounded=0;html=1;whiteSpace=wrap;" parent="150" vertex="1">
          <mxGeometry width="5" height="12" as="geometry" />
        </mxCell>
        <mxCell id="152" style="vsdxID=234;fillColor=#999999;gradientColor=none;fillOpacity=50;strokeOpacity=50;shape=stencil(vVPLDsIgEPwajiUUaNVz1f8gSlsilmaLWv9ekKrURJv00Ns+ZpkdMotY0dWilYiSzoI5yZs62hqxLaJUNbUEZV2E2A6xojQgKzCX5hjyVnikj87m6l/owxwjOM/8FCX3UCHPbB/AWjUROCVkLnRDccZjuICD68ILnuFsEwZgmFhhnofKgFlzzNPRo2+SPhG96hIwVlhlmng7ogVUMnF0SalFNWp1NynbqJz+0fNZ8It8tp5fH7SAmjG1W5bT31q8RfhYS8rfrpnw0QJiJizsgo/5S6V1uJ24/30srhQOje0e);strokeColor=none;spacingTop=-3;spacingBottom=-3;spacingLeft=-3;spacingRight=-3;points=[[0.5,1.31,0],[0.5,0,0],[0,0.5,0],[1,0.5,0]];labelBackgroundColor=none;rounded=0;html=1;whiteSpace=wrap;" parent="150" vertex="1">
          <mxGeometry width="5" height="12" as="geometry" />
        </mxCell>
        <mxCell id="153" style="vsdxID=235;fillColor=none;gradientColor=none;strokeColor=none;spacingTop=-3;spacingBottom=-3;spacingLeft=-3;spacingRight=-3;points=[[0.5,1.31,0],[0.5,0,0],[0,0.5,0],[1,0.5,0]];labelBackgroundColor=none;rounded=0;html=1;whiteSpace=wrap;" parent="146" vertex="1">
          <mxGeometry x="43" width="5" height="12" as="geometry" />
        </mxCell>
        <mxCell id="154" style="vsdxID=236;fillColor=#999999;gradientColor=none;shape=stencil(vZPLDoIwEEW/pkuaPkBk7eM/GinQWCkZquLfW2zVQoKJLtxN75zO5ZIO4pu+EZ1EjPQWzFFeVWkbxLeIMdU2EpR1FeI7xDeVAVmDObelP3diJMfqZC7jhMHfIzjj4yVGbkF4nPae1aqN2FWBM7YMCzi4DgSYE5yuPQyBpinOcy8FiBIymRcTiRhUn4CxwirTxn5EC6hl4vySSot60uqvUnaRTJfjzM0LhtNiORDNcEangfKXEph1+hzxSvQ0+UOe9wfOzH/Os/SD/pBmav3hVX7zgj+zrnivSaW09lsW9+dr5SS/knx3Bw==);strokeColor=none;spacingTop=-3;spacingBottom=-3;spacingLeft=-3;spacingRight=-3;points=[[0.5,1.31,0],[0.5,0,0],[0,0.5,0],[1,0.5,0]];labelBackgroundColor=none;rounded=0;html=1;whiteSpace=wrap;" parent="153" vertex="1">
          <mxGeometry width="5" height="12" as="geometry" />
        </mxCell>
        <mxCell id="155" style="vsdxID=237;fillColor=#999999;gradientColor=none;fillOpacity=50;strokeOpacity=50;shape=stencil(vZPLDoIwEEW/pkuaPkBk7eM/GinQWCkZquLfW2zVQoKJLtxN75zO5ZIO4pu+EZ1EjPQWzFFeVWkbxLeIMdU2EpR1FeI7xDeVAVmDObelP3diJMfqZC7jhMHfIzjj4yVGbkF4nPae1aqN2FWBM7YMCzi4DgSYE5yuPQyBpinOcy8FiBIymRcTiRhUn4CxwirTxn5EC6hl4vySSot60uqvUnaRTJfjzM0LhtNiORDNcEangfKXEph1+hzxSvQ0+UOe9wfOzH/Os/SD/pBmav3hVX7zgj+zrnivSaW09lsW9+dr5SS/knx3Bw==);strokeColor=none;spacingTop=-3;spacingBottom=-3;spacingLeft=-3;spacingRight=-3;points=[[0.5,1.31,0],[0.5,0,0],[0,0.5,0],[1,0.5,0]];labelBackgroundColor=none;rounded=0;html=1;whiteSpace=wrap;" parent="153" vertex="1">
          <mxGeometry width="5" height="12" as="geometry" />
        </mxCell>
        <mxCell id="156" style="vsdxID=238;fillColor=#949494;gradientColor=none;shape=stencil(vZLBDoIwDIafZkfIWKPGM+J7LDJgcW6kTIG3d3MaQUATDt7a/l/XNvsJpE3Fa0EYbSyas2hlbisCB8KY1JVAaV1EICOQFgZFieaq85DX3JM+upibf6ELfQmlvofRPuSQxMAelWPAldRf8Fc+C69GJ0twPDkVnzDEsAk8ThrohOlHE7qId7KJ0FhupdEjTXEsReRmRYXi5UhqWiHqQTlZPmW/jXfJzOjVpyx/0R+u+ekPF7y9VUilgjWH+qcXXSn4GLI7);strokeColor=none;spacingTop=-3;spacingBottom=-3;spacingLeft=-3;spacingRight=-3;points=[[0.5,1.31,0],[0.5,0,0],[0,0.5,0],[1,0.5,0]];labelBackgroundColor=none;rounded=0;html=1;whiteSpace=wrap;" parent="146" vertex="1">
          <mxGeometry width="48" height="5" as="geometry" />
        </mxCell>
        <mxCell id="157" style="vsdxID=239;fillColor=none;gradientColor=none;strokeColor=none;spacingTop=-3;spacingBottom=-3;spacingLeft=-3;spacingRight=-3;points=[[0.5,1.31,0],[0.5,0,0],[0,0.5,0],[1,0.5,0]];labelBackgroundColor=none;rounded=0;html=1;whiteSpace=wrap;" parent="146" vertex="1">
          <mxGeometry y="36" width="5" height="12" as="geometry" />
        </mxCell>
        <mxCell id="158" style="vsdxID=240;fillColor=#999999;gradientColor=none;shape=stencil(vZPLDsIgEEW/hmUJFKh1rfU/iNKWiKWZ4uvvpWIjqDVx424eh7m5YQax1dDKXqGcDA7sXp31zrWIrVGe665VoJ2PEKsQW9UWVAP22O1C3suRHKODPY0TLuEdFVjQ8VVOrqFC7tkmwEZ3EVxyzJfzsISt78D7ZHjQC8yLUJkYQpJxEZDJix4ysE46bbtYjRgJjcq8WlYb2SSt4axUH5XpvJlX7Sn/CDOCefkNT71H+OSdclyIxHwqXwrMxL+8p9IFpotf/zG1MrdF//jG7wvsg+fq19qYcDlx//VUfCmcGatu);strokeColor=none;spacingTop=-3;spacingBottom=-3;spacingLeft=-3;spacingRight=-3;points=[[0.5,1.31,0],[0.5,0,0],[0,0.5,0],[1,0.5,0]];labelBackgroundColor=none;rounded=0;html=1;whiteSpace=wrap;" parent="157" vertex="1">
          <mxGeometry width="5" height="12" as="geometry" />
        </mxCell>
        <mxCell id="159" style="vsdxID=241;fillColor=#999999;gradientColor=none;fillOpacity=50;strokeOpacity=50;shape=stencil(vZPLDsIgEEW/hmUJFKh1rfU/iNKWiKWZ4uvvpWIjqDVx424eh7m5YQax1dDKXqGcDA7sXp31zrWIrVGe665VoJ2PEKsQW9UWVAP22O1C3suRHKODPY0TLuEdFVjQ8VVOrqFC7tkmwEZ3EVxyzJfzsISt78D7ZHjQC8yLUJkYQpJxEZDJix4ysE46bbtYjRgJjcq8WlYb2SSt4axUH5XpvJlX7Sn/CDOCefkNT71H+OSdclyIxHwqXwrMxL+8p9IFpotf/zG1MrdF//jG7wvsg+fq19qYcDlx//VUfCmcGatu);strokeColor=none;spacingTop=-3;spacingBottom=-3;spacingLeft=-3;spacingRight=-3;points=[[0.5,1.31,0],[0.5,0,0],[0,0.5,0],[1,0.5,0]];labelBackgroundColor=none;rounded=0;html=1;whiteSpace=wrap;" parent="157" vertex="1">
          <mxGeometry width="5" height="12" as="geometry" />
        </mxCell>
        <mxCell id="160" style="vsdxID=242;fillColor=none;gradientColor=none;strokeColor=none;spacingTop=-3;spacingBottom=-3;spacingLeft=-3;spacingRight=-3;points=[[0.5,1.31,0],[0.5,0,0],[0,0.5,0],[1,0.5,0]];labelBackgroundColor=none;rounded=0;html=1;whiteSpace=wrap;" parent="146" vertex="1">
          <mxGeometry x="43" y="36" width="5" height="12" as="geometry" />
        </mxCell>
        <mxCell id="161" style="vsdxID=243;fillColor=#999999;gradientColor=none;shape=stencil(vZPbjsIgEIafhsuSKZRWr9V9D6K0JWJppuzqvr2wuCuYrTExejeHb+bPwAzhq6mXoyIMJod2r45653rC14QxPfQKtfMW4RvCV61F1aH9HHbRH2Ugg3WwX6HDKdaVgoIIVQy+YwR+vI8IGz0k8KKiVTkPS9z6DF47i2WE8UI3VFzKfxmArF0CFPKkpwKtk07bIVUDI7FThVcrWiO7LDUdlRqTcDk/zK32QlDG58fhQGuRj1NWtGmyeeol5flr/qm8fiD4V/gBtKbBe+ofZ7boHd94f4G9cV39VhsTLyfN356KD8Uz45sz);strokeColor=none;spacingTop=-3;spacingBottom=-3;spacingLeft=-3;spacingRight=-3;points=[[0.5,1.31,0],[0.5,0,0],[0,0.5,0],[1,0.5,0]];labelBackgroundColor=none;rounded=0;html=1;whiteSpace=wrap;" parent="160" vertex="1">
          <mxGeometry width="5" height="12" as="geometry" />
        </mxCell>
        <mxCell id="162" style="vsdxID=244;fillColor=#999999;gradientColor=none;fillOpacity=50;strokeOpacity=50;shape=stencil(vZPbjsIgEIafhsuSKZRWr9V9D6K0JWJppuzqvr2wuCuYrTExejeHb+bPwAzhq6mXoyIMJod2r45653rC14QxPfQKtfMW4RvCV61F1aH9HHbRH2Ugg3WwX6HDKdaVgoIIVQy+YwR+vI8IGz0k8KKiVTkPS9z6DF47i2WE8UI3VFzKfxmArF0CFPKkpwKtk07bIVUDI7FThVcrWiO7LDUdlRqTcDk/zK32QlDG58fhQGuRj1NWtGmyeeol5flr/qm8fiD4V/gBtKbBe+ofZ7boHd94f4G9cV39VhsTLyfN356KD8Uz45sz);strokeColor=none;spacingTop=-3;spacingBottom=-3;spacingLeft=-3;spacingRight=-3;points=[[0.5,1.31,0],[0.5,0,0],[0,0.5,0],[1,0.5,0]];labelBackgroundColor=none;rounded=0;html=1;whiteSpace=wrap;" parent="160" vertex="1">
          <mxGeometry width="5" height="12" as="geometry" />
        </mxCell>
        <mxCell id="163" style="vsdxID=245;fillColor=#949494;gradientColor=none;shape=stencil(vVLLDoIwEPyaHiGlGwieUf+jkQKNlZKlCv69rSXyMI0JB2+7s7OPaYdA0Te8E4TR3qC+ikGWpiFwJIzJthEojY0InAgUlUZRo763pc877pguuumHmzD6Puo6GH36LMvjLH8jZ09Wsg2SaZiY0N3UrxM4XmwVJzrEkHo+Tg2QxMA8NHEOWZylq6GfJWPER9lHqA03UrcrWYpjLSK7LqoUr1elfhCiW8BJWM984Gb3bjmh9/mDmB9fY4PZV5VUyttyWd/60ELew3B6AQ==);strokeColor=none;spacingTop=-3;spacingBottom=-3;spacingLeft=-3;spacingRight=-3;points=[[0.5,1.31,0],[0.5,0,0],[0,0.5,0],[1,0.5,0]];labelBackgroundColor=none;rounded=0;html=1;whiteSpace=wrap;" parent="146" vertex="1">
          <mxGeometry y="42" width="48" height="5" as="geometry" />
        </mxCell>
        <mxCell id="164" value="&lt;div style=&quot;font-size: 1px&quot;&gt;&lt;font style=&quot;font-size:15.52px;font-family:Segoe UI;color:#000000;direction:ltr;letter-spacing:0px;line-height:120%;opacity:1&quot;&gt;Event Hubs&lt;br/&gt;&lt;/font&gt;&lt;/div&gt;" style="text;vsdxID=228;fillColor=none;gradientColor=none;strokeColor=none;spacingTop=-3;spacingBottom=-3;spacingLeft=-3;spacingRight=-3;points=[[0.5,1.31,0],[0.5,0,0],[0,0.5,0],[1,0.5,0]];labelBackgroundColor=none;rounded=0;html=1;whiteSpace=wrap;verticalAlign=middle;align=center;;html=1;" parent="146" vertex="1">
          <mxGeometry x="-26.42" y="48" width="101.6" height="18.63" as="geometry" />
        </mxCell>
        <UserObject label="&lt;div style=&quot;font-size: 1px&quot;&gt;&lt;font style=&quot;font-size:16.93px;font-family:Segoe UI;color:#feffff;direction:ltr;letter-spacing:0px;line-height:120%;opacity:1&quot;&gt;1&lt;br/&gt;&lt;/font&gt;&lt;/div&gt;" tags="Background" id="165">
          <mxCell style="verticalAlign=middle;align=center;vsdxID=247;fillColor=#107c10;gradientColor=none;shape=stencil(vVHLDsIgEPwajiQI6RfU+h8bu22JCGRB2/69kG1iazx58DazM/vIjjBtmiCi0CplCjecbZ8nYc5Ca+snJJsLEqYTph0C4Ujh4XvmEaqzont41gkL96naodXKrGF6YSfQtUi0OXXDVlqPfJNP6usotUhYbJIUMmQb/GGrAxpRljVycDBuc1hKM2LclX8/7H9nFfB+82Cd45T2+mcspcSRmu4F);strokeColor=#939393;points=[];labelBackgroundColor=none;rounded=0;html=1;whiteSpace=wrap;" parent="1" vertex="1">
            <mxGeometry x="185" y="149" width="35" height="35" as="geometry" />
          </mxCell>
        </UserObject>
        <UserObject label="&lt;div style=&quot;font-size: 1px&quot;&gt;&lt;font style=&quot;font-size:16.93px;font-family:Segoe UI;color:#feffff;direction:ltr;letter-spacing:0px;line-height:120%;opacity:1&quot;&gt;2&lt;br&gt;&lt;/font&gt;&lt;/div&gt;" tags="Background" id="167">
          <mxCell style="verticalAlign=middle;align=center;vsdxID=249;fillColor=#107c10;gradientColor=none;shape=stencil(vVHLDsIgEPwajiQI6RfU+h8bu22JCGRB2/69kG1iazx58DazM/vIjjBtmiCi0CplCjecbZ8nYc5Ca+snJJsLEqYTph0C4Ujh4XvmEaqzont41gkL96naodXKrGF6YSfQtUi0OXXDVlqPfJNP6usotUhYbJIUMmQb/GGrAxpRljVycDBuc1hKM2LclX8/7H9nFfB+82Cd45T2+mcspcSRmu4F);strokeColor=#939393;points=[];labelBackgroundColor=none;rounded=0;html=1;whiteSpace=wrap;" parent="1" vertex="1">
            <mxGeometry x="375" y="149" width="35" height="35" as="geometry" />
          </mxCell>
        </UserObject>
        <UserObject label="&lt;div style=&quot;font-size: 1px&quot;&gt;&lt;font style=&quot;font-size:16.93px;font-family:Segoe UI;color:#feffff;direction:ltr;letter-spacing:0px;line-height:120%;opacity:1&quot;&gt;3&lt;br&gt;&lt;/font&gt;&lt;/div&gt;" tags="Background" id="169">
          <mxCell style="verticalAlign=middle;align=center;vsdxID=251;fillColor=#107c10;gradientColor=none;shape=stencil(vVHLDsIgEPwajiQI6RfU+h8bu22JCGRB2/69kG1iazx58DazM/vIjjBtmiCi0CplCjecbZ8nYc5Ca+snJJsLEqYTph0C4Ujh4XvmEaqzont41gkL96naodXKrGF6YSfQtUi0OXXDVlqPfJNP6usotUhYbJIUMmQb/GGrAxpRljVycDBuc1hKM2LclX8/7H9nFfB+82Cd45T2+mcspcSRmu4F);strokeColor=#939393;points=[];labelBackgroundColor=none;rounded=0;html=1;whiteSpace=wrap;" parent="1" vertex="1">
            <mxGeometry x="596" y="150" width="35" height="35" as="geometry" />
          </mxCell>
        </UserObject>
        <UserObject label="&lt;div style=&quot;font-size: 1px&quot;&gt;&lt;font style=&quot;font-size:16.93px;font-family:Segoe UI;color:#feffff;direction:ltr;letter-spacing:0px;line-height:120%;opacity:1&quot;&gt;4&lt;br/&gt;&lt;/font&gt;&lt;/div&gt;" tags="Background" id="170">
          <mxCell style="verticalAlign=middle;align=center;vsdxID=252;fillColor=#107c10;gradientColor=none;shape=stencil(vVHLDsIgEPwajiQI6RfU+h8bu22JCGRB2/69kG1iazx58DazM/vIjjBtmiCi0CplCjecbZ8nYc5Ca+snJJsLEqYTph0C4Ujh4XvmEaqzont41gkL96naodXKrGF6YSfQtUi0OXXDVlqPfJNP6usotUhYbJIUMmQb/GGrAxpRljVycDBuc1hKM2LclX8/7H9nFfB+82Cd45T2+mcspcSRmu4F);strokeColor=#939393;points=[];labelBackgroundColor=none;rounded=0;html=1;whiteSpace=wrap;" parent="1" vertex="1">
            <mxGeometry x="526" y="410" width="35" height="35" as="geometry" />
          </mxCell>
        </UserObject>
        <UserObject label="&lt;div style=&quot;font-size: 1px&quot;&gt;&lt;font style=&quot;font-size:16.93px;font-family:Segoe UI;color:#feffff;direction:ltr;letter-spacing:0px;line-height:120%;opacity:1&quot;&gt;5&lt;br/&gt;&lt;/font&gt;&lt;/div&gt;" tags="Background" id="171">
          <mxCell style="verticalAlign=middle;align=center;vsdxID=253;fillColor=#107c10;gradientColor=none;shape=stencil(vVHLDsIgEPwajiQI6RfU+h8bu22JCGRB2/69kG1iazx58DazM/vIjjBtmiCi0CplCjecbZ8nYc5Ca+snJJsLEqYTph0C4Ujh4XvmEaqzont41gkL96naodXKrGF6YSfQtUi0OXXDVlqPfJNP6usotUhYbJIUMmQb/GGrAxpRljVycDBuc1hKM2LclX8/7H9nFfB+82Cd45T2+mcspcSRmu4F);strokeColor=#939393;points=[];labelBackgroundColor=none;rounded=0;html=1;whiteSpace=wrap;" parent="1" vertex="1">
            <mxGeometry x="241" y="332" width="35" height="35" as="geometry" />
          </mxCell>
        </UserObject>
        <UserObject label="" tags="Background" id="172">
          <mxCell style="vsdxID=254;fillColor=none;gradientColor=none;image;aspect=fixed;image=data:image/png,iVBORw0KGgoAAAANSUhEUgAABqYAAAODCAYAAADetLAsAAAAAXNSR0IArs4c6QAAAARnQU1BAACxjwv8YQUAAAAJcEhZcwAADsMAAA7DAcdvqGQAAHBxSURBVHhe7d3NseRG1iboEIEaTFpLkAL0okTI3WwpAs0gQFOEFGAWXIwAuZ1efSJQBGrQtFCg5ngxo75L1Lk3I4DjDg/Es3iMVecG3B2Iv4S/Acfln//8JwAAAAAAAHSXFgEAAAAAAKBaWgQAAAAAAIBqaREAAAAAAACqpUUAAAAAAAColhYBAAAAAACgWloEAAAAAACAamkRAAAAAAAAqqVFAAAAAAAAqJYWAQAAAAAAoFpaBAAAAAAAgGppEQAAAAAAAKqlRQAAAAAAAKiWFgEAAAAAAKBaWgQAAAAAAIBqaREAAAAAAACqpUUAAAAAAAColhYBAAAAAACgWloEAAAAAACAamkRAAAAAAAAqqVFAAAAAAAAqJYWAQAAAAAAoFpaBAAAAAAAgGppEQAAAAAAAKqlRQAAAAAAAKiWFgEAAAAAAKBaWgQAAAAAAIBqaREAAAAAAACqpUUAAAAAAAColhYBAAAAAACgWloEAAAAAACAamkRAAAAAAAAqqVFAAAAAAAAqJYWAQAAAAAAoFpaBAAAAAAAgGppEQAAAAAAAKqlRQAAAAAAAKiWFgEAAAAAAKBaWgQAAAAAAIBqaREAAAAAAACqpUUAAAAAAAColhYBAAAAAACgWloEAAAAAACAamkRAAAAAAAAqqVFAAAAAAAAqJYWAQAAAAAAoFpaBAAAAAAAgGppEQAAAAAAAKqlRQAAAAAAAKiWFgEAAAAAAKBaWgQAAAAAAIBqaREAAAAAAACqpUUAAAAAAAColhYBAAAAAACgWloEAAAAAACAamkRAAAAAAAAqqVFAAAAAAAAqJYWAQAAAAAAoFpaBAAAAAAAgGppEQAAAAAAAKqlRQAAAAAAAKiWFgEAAAAAAKBaWgQAAAAAAIBqaREAAAAAAACqpUUAAAAAAAColhYBAAAAAACgWloEAAAAAACAamkRAAAAAAAAqqVFAAAAAAAAqJYWAQAAAAAAoFpaBAAAAAAAgGppEQAAAAAAAKqlRQAAAAAAAKiWFgEAAAAAAKBaWgQAAAAAAIBqaREAAAAAAACqpUUAAAAAAAColhYBAAAAAACgWloEAAAAAACAamkRAAAAAAAAqqVFAAAAAAAAqJYWAQAAAAAAoFpaBAAAAAAAgGppEQAAAAAAAKqlRQAAAAAAAKiWFgEAAAAAAKBaWgQAAAAAAIBqaREAAAAAAACqpUUAAAAAAAColhYBAAAAAACgWloEAAAAAACAamkRAAAAAAAAqqVFAAAAAAAAqJYWAQAAAAAAoFpaBAAAAAAAgGppEQAAAAAAAKqlRQAAAAAAAKiWFgEAAAAAAKBaWgQAAAAAAIBqaREAAAAAAACqpUUAAAAAAAColhYBAAAAAACgWloEAAAAAACAamkRAAAAAAAAqqVFAAAAAAAAqJYWAQAAAAAAoFpaBAAAAAAAgGppEQAAAAAAAKqlRQAAAAAAAKiWFgEAAAAAAKBaWgQAAAAAAIBqaREAAAAAAACqpUUAAAAAAAColhYBAAAAAACgWloEAAAAAACAamkRAAAAAAAAqqVFAAAAAAAAqJYWAQAAAAAAoFpaBAAAAAAAgGppEQAAAAAAAKqlRQAAAAAAAKiWFgEAAAAAAKBaWgQAAAAAAIBqaREAAAAAAACqpUUAAAAAAAColhYBAAAAAACgWloEAAAAAACAamkRAAAAAAAAqqVFAAAAAAAAqJYWAQAAAAAAoFpaBAAAAAAAgGppEQAAAAAAAKqlRQAAAAAAAKiWFgEAAAAAAKBaWgQAAAAAAIBqaREAAAAAAACqpUUAAAAAAAColhYBAAAAAACgWloEAAAAAACAamkRAAAAAAAAqqVFAAAAAAAAqJYWAQAAAAAAoFpaBAAAAAAAgGppEQAAAAAAAKqlRQAAAAAAAKiWFgEAAAAAAKBaWgQAAAAAAIBqaREAAAAAAACqpUUAAAAAAAColhYBAAAAAACgWloEAAAAAACAamkRAAAAAAAAqqVFAAAAAAAAqJYWAQAAAAAAoFpaBAAAAAAAgGppEQAAAAAAAKqlRQAAAAAAAKiWFgEAAAAAAKBaWgQAAAAAAIBqaREAAAAAAACqpUUAAAAAAAColhYBAAAAAACgWloEAAAAAACAamkRAAAAAAAAqqVFAAAAAAAAqJYWAQAAAAAAoFpaBAAAAAAAgGppEQAAAAAAAKqlRQAAAAAAAKiWFgEAAAAAAKBaWgQAAAAAAIBqaREAAAAAAACqpUUAAAAAAAColhYBAAAAAACgWloEAAAAAACAamkRAAAAAAAAqqVFAAAAAAAAqJYWAQAAAAAAoFpaBAAAAAAAgGppEQAAAAAAAKqlRQAAAAAAAKiWFgEAAAAAAKBaWgQAAAAAAIBqaREAAAAAAACqpUUAAAAAAAColhYBAAAAAACgWloEAAAAAACAamkRAAAAAAAAqqVFAAAAAAAAqJYWAQAAAAAAoFpaBAAAAAAAgGppEQAAAAAAAKqlRQAAAAAAAKiWFgEAAAAAAKBaWgQAAAAAAIBqaREAAAAAAACqpUUAAAAAAAColhYBAAAAAACgWloEAAAAAACAamkRAAAAAAAAqqVFAAAAAAAAqJYWAQAAAAAAoFpaBAAAAAAAgGppEQAAAAAAAKqlRQAAAAAAAKiWFgEAAAAAAKBaWgQAAAAAAIBqaREAAAAAAACqpUUAAAAAAAColhYBAAAAAACgWloEAAAAAACAamkRAAAAAAAAqqVFAAAAAAAAqJYWAQAAAAAAoFpaBAAAAAAAgGppEQAAAAAAAKqlRQAAAAAAAKiWFgEAAAAAAKBaWgQAAAAAAIBqaREAAAAAAACqpUUAAAAAAAColhYBAAAAAACgWloEAAAAAACAamkRAAAAAAAAqqVFAAAAAAAAqJYWAQAAAAAAoFpaBAAAAAAAgGppEQAAAAAAAKqlRQAAAAAAAKiWFgEAAAAAAKBaWgQAAAAAAIBqaREAAAAAAACqpUUAAAAAAAColhYBAAAAAACgWloEAAAAAACAamkRAAAAAAAAqqVFAAAAAAAAqJYWAQAAAAAAoFpaBAAAAAAAgGppEQAAAAAAAKqlRQAAAAAAAKiWFgEAAAAAAKBaWgQAAAAAAIBqaREAAAAAAACqpUUAAAAAAAColhYBAAAAAACgWloEAAAAAACAamkRAAAAAAAAqqVFAAAAAAAAqJYWAQAAAAAAoFpaBAAAAAAAgGppEQAAAAAAAKqlRQAAAAAAAKiWFgEAAAAAAKBaWgQAAAAAAIBqaREAAAAAAACqpUUAAAAAAAColhYBAAAAAACgWloEAAAAAACAamkRAAAAAAAAqqVFAAAAAAAAqJYWAQAAAAAAoFpaBAAAAAAAgGppEQAAAAAAAKqlRQAAAAAAAKiWFgEAAAAAAKBaWgQAAAAAAIBqaREAAAAAAACqpUUAAAAAAAColhYBAAAAAACgWloEAAAAAACAamkRAAAAAAAAqqVFAAAAAAAAqJYWAQAAAAAAoFpaBAAAAAAAgGppEQAAAAAAAKqlRQAAAAAAAKiWFgEAAAAAAKBaWgQAAAAAAIBqaREAAAAAAACqpUUAAAAAAAColhYBAAAAAACgWloEAAAAAACAamkRAAAAAAAAqqVFAAAAAAAAqJYWAQAAAAAAoFpaBAAAAAAAgGppEQAAAAAAAKqlRQAAAAAAAKiWFgEAAAAAAKBaWgQAAAAAAIBqaREAAAAAYGbLsvwj/Bx+/e5b+K/E7e/Nl/CPrD0AxkiLAAAAAACzWJblp9BCqN/CH+GfBVo7rb0WVv2U9QtAvbQIAAAAAHCkFhaFFka1q56yYKmSq6gABkmLAAAAAABHWP4KpNqye39+D41GEEwBDJIWAQAAAABGWo4JpG4EUwCDpEUAAAAAgFFaMBSq7h21hWAKYJC0CAAAwDbLsnxuk1vtv9nfAYC/i+/MryELi0YSTAEMkhYBAAC4z7IsX8Jv4b1febfliL6Fn7PtAeBVxXdjW7rv95B9f44mmAIYJC0CAADwseWvQOrRJYdaSCWgAuDlxfdhu8L4yKX71gRTAIOkRYAZXb/8j/87/AIb/F/Za+pH/tf/vvxf4RfY4H9mrylqLf+9XNpRfsrGxd+147Q6biN1eY5au6FdIZVNat3rv4LXEAAvKb4D27/j2o81su/IowimAAZJiwAzun75H/8n/BM2+CV7Tf3I94Dhn7DBf2WvKWotf03sZ5MKo7jq5Q7tOK2O20jlE0zRZuWSQ60d4RQALyW++2YMpRrBFMAgaRFgRlfBFNsJphhNMDXAcnww5Xm+QxynI+8b0SOYqt4f4RQAL6N954WZlu97SzAFMEhaBJjRVTDFdoIpRhNYDLAcH0w1n7Kx8Zc4Pm05vey4jVI6wRTtfV21X+Vr1h8AnE185x35g5UfEUwBDJIWAWZ0FUyxnWCK0QRTAyxzBFMChQ/E8dl7H6a9yiaYWlurtquZDAPg1OK77tfVd99sfBcDDJIWAWZ0FUyxnWCK0QRTAyxzBFN/ZGPjX89PW6onO2YjVQZT31ZtV/uW9QsAZxDfc0dfRX0PwRTAIGkRYEZXwRTbCaYYTTA1wDJHMNV8ycb36uK4/LI6TkcomWCKdkaFbJaGBOCU4jtu5iX8bgRTAIOkRYAZXQVTbCeYYjTB1ADLPMGUK10ScVxmuLF5VTD1ZdVuLz9n/QPAM4vvtxl+rHIPwRTAIGkRYEZXwRTbCaYYTTA1wDJPMNW40uWNOB6zLNdTFUyNuifGr1n/APCs4rutXXX855vvupkJpgAGSYsAM7oKpthOMMVogqkBlrmCqU2fM2cVx6P3/Zju9WzB1G9Z/wDwrOK77efVd11v7Yrt30K7Sqv9UGat1b+GbGnBocFU9Pc5WBIaeElpEWBGV8EU2wmmGE0wNUCcyM8UTP2RjfEVxbH4tDo2R3q2YMpnBwCnEt9to5b2bT+Keeh7Px7f/s3SvuNvY+weTLU+QgvGbn367gdeUloEmNFVMMV2gilGc4I5QDuR/35CP4uhv7KdVRyHUSHOPZ4tmPqa9Q8Azyi+11oIk33fVWrLBO7+vo822pVd5UszR5ttKcPWdruKK1vS0HkD8JLSIsCMroIpthNMMZoTzAHaifzqxP5olmELcRxG/TL6Hs8WTLnHFACnEd9rLYzJvu+qtOX4fsr6PlKMqV2J1ZYMvGdpY+cNwEtKiwAzugqm2E4wxWhOMAdoJ/KrE/sZTDc5MlLs/5fV8ThaVTA14hffjftMAHAa8b2WXSFUpbU9zb+7YiztflHv3bvqI84bgJeUFgFmdBVMsZ1gitGcYA7QTuRXJ/Yz+Dkb66uI/T/t8orRVs/JtWaqCTYA2CO+01pQk33fVSn7jt8qxtB+kNOuCttztbjzBuAlpUWAGV0FU2wnmGI0J5gDtBP51Yn9DH7PxvoKYt/bsjXZMTlSZTDVezk/S0ECcBrxvdaWssu+7yoc8p0Z/d7uF3XPEn33ct4AvKS0CDCjq2CK7QRTjOYEc4B2Ir86sZ/F52y8Zxf73ZavyY7HkSqDqTYZ1euqqdZu+Q3XAeAo8b3W8/5Sh3xnJuOo4LwBeElpEWBGV8EU2wmmGM0J5gDtRH51Yj+Lr9l4zy72u/dSd1uULvMT7fW6h9ZLLwEJwPnEd9uj91q612H/zk7GUsF5A/CS0iLAjK6CKbYTTDGaE8wB2on86sR+Fn9m4z2z2Oe2rE12LI5Wfv+JaLP6yjBL+AFwOsn3XZVN53YVkrFUcN4AvKS0CDCjq2CK7QRTjOYEc4B2Ir86sZ/JS10BE/s763PR5cbo0W7V/aZe8uo6AM4tvt/a8rfZ916Fw5ZMTsZSwXkD8JLSIsCMroIpthNMMZoTzAHaifzqxH4mL/MaiH39vNr3mXQJpppouy3rt3X5wrbdl6xdAHh28R33jzffeaXWfY2UjaeA8wbgJaVFgBldBVNsJ5hiNCeYA7QT+dWJ/WwOuTH3aLGfPW9uvle3YKqJ9tsvwtvVU3987+9H2uPa43/K2gOAM4jvuV7B1KH/xk7GU8F5A/CS0iLAjK6CKbYTTDGaE8wB2on86sR+Nr9m4z6T2McWzGy9amiErsHUW62v0EKnFtS11+ZN+/+tPmwsAHCk9p0Xsu/lvQRTACeRFgFmdBVMsZ1gitGcYA7QTuRXJ/az+SMb95nEPv682ufZCIMAYLD2/bv6Pq5y6I9+kvFUcN4AvKS0CDCjq2CK7QRTjOYEc4B2Ir86sZ/Rqe8jFPt37xJ2RxFMAcBg7ft39X1cRTAFcBJpEWBGV8EU2wmmGM0J5gDtRH51Yj+jb9nYzyD2rdekUyXBFAAM1r5/V9/HVQRTACeRFgFmdBVMsZ1gitGcYA7QTuRXJ/az+ikb/7OL/Wr3Tsr2dyaCKQAYrH3/rr6PqwimAE4iLQLM6CqYYjvBFKM5wRygncivTuxntekzaGaxTz+t9nFWgikAGKx9/66+j6sIpgBOIi0CzOgqmGI7wRSjOcEcoJ3Ir07s9/o9/LmqVfgjG/8zi336ZbWPe7T7VLVjn/1tL8EUAAzWvn9X38dVBFMAJ5EWAWZ0FUyxnWCK0ZxgDtBO5Fcn9nu19notT/c524dnFfvTwqRsP7f4NfS6+k0wBQCDte/f1fdxFcEUwEmkRYAZXQVTbCeYYjQnmAO0E/nVif1erb3Pq1qV37J9eEaxL19W+7bXpyCYAoCTaN+/q+/jKoIpgJNIiwAzugqm2E4wxWhOMAdoJ/KrE/u9/vW8xX97LCvXlgj8ab0Pzyj249ub/drr2/c2BVMAcBLt+3f1fVxFMAVwEmkRYEZXwRTbCaYYzQnmAO1EfnViv9ctmPp5Va/y83ofnk3sQ7u6Kdu3rf51TOK/gikAOIn2/bv6Pq4imAI4ibQIMKOrYIrtBFOM5gRzgHYivzqx3+sWTP0U2hVO2WP2+H29D88m9qHdDyrbty3+fNOuYAoATqJ9/66+j6sIpgBOIi0CzOgqmGI7wRSjOcEcoJ3Ir07s9/r38xb/+7fV36p8ersPzybG/8dqf/b4+qZdwdTJxLFvV9e1iclfQgs0v4b2PK+1ELgtn7mut22a1sZTv2+4T3uevz/f7arV2/PfrF8bb719XLv/Xdv+FMum9hLHZ/3ebMuzro9r9r5sj7sd67b956z9V9KOwfdjcTuWzXufdc3bY3g7jqf8nvq+b9n38l6CKYCTSIsAM7oKpthOMMVoTjAHaCfyqxP7vd4GU9VL1t38O4x5NjH26iUO/x02xP+ufi5vBFMDxHFu75cWCtwmZLPnYq82Ud7a/tdkbjaOV9D2/fsxaMfiR/fDa3+/TYRPFSLEeG770cbX475+TTtG7TXZPrteNtyMfW/hSQtO2rHucjVwaD/maH2cNWRpV1K3z7jbe6/yRxo3bz/jWl9PHbDG+AVT93PeALyktAgwo6tgiu0EU4zmBHOAdiK/OrHf62/PW/v/q79X+Pfydc8mxl55PEYc66Z0krS1F9qkYbWnmzSPMbfJ7jbp3ytUuEebaG+hQ/kEbrTZwrbsudrr4ec6tmmT1G3if2+ocNiEbvTdjmcLLnq91+/RwoT2mv2SjfFMYh9v788eAco92vPcnu+nDQRj7DN8xrW+2+fGIcFy9LvnO6/XlefttZX1N0o2pr3a+zTra6+XDeSB55AWAWZ0FUyxnWCK0QRTA8QJd/UE5zosqb5C6ObpJkVjzNVXkP28av9Zgqk20ZP1s9dTXGUQ42yvgyMnuz/yr5AqG/cW0VavX/vf/VzHY9tnUOWxHhpMRX+3MOrIif33tJCvvZZPtRxd7E97zcx2vNt42utg+iuAYoxHB3ofaWMaGvZFX72+8xjjlFcwAueRFgFmdBVMsZ1gitEEUwPECXfXYOp7Hz2WPfq27md2MeY2UZftyxb/cdVY1ARTSX+zaOMLLfjJxj6b9p5tz9OuSfDY/rBgKh7TJsd7vCeGBFPRzzO9Xpp2rJ96AjfGXx1i9nDoEmwfibHNGOh9pF2N1D2gij4EU89NMAVMLS0CzOgqmGI7wRSjCaYGiBPuEcFUZSDz1lMtrxLjrQzo/uM+W1ETTCX9Ha2NK/R6bnrbtWxmbH9IMBV/b1dEZNtV6BoMRPvP/Hppni6gauMNzxKoTBdMxZieIdD7SNeAKtoWTD03wRQwtbQIMKOrYIrtBFOMJpgaIE64RwRT1UvY3Uz7y/G1GGubuMv2Yav/mESLmmAq6e8oMZ72un/mgOFf1vv1iNh+eDAVf+t1T5abLp870e4pXi9vtH2Z/scDMcZeP5zoZZrvvRhLu2/bMwdSa+210ONee4Kp5yaYAqaWFgFmdBVMsZ1gitEEUwPECXf3YKpTP80fWV8zirFW/hp/5DFuBFMPirGcZiJyvW+PiO2HBlNR7x1KNaXBQLT3U2vzTftn0q4S3fTvx95iXC0IfKZl524OD6ZiDO3YPdMyk49oQduzfOcxhmAKmFpaBJjRVTDFdoIpRhNMDRAn3KOCqeorhm6mnzCIMbZ73WRj3+rnd/oRTCX9jRRjaM/1M052v2u9j4+I7YcFU1EbEUo1ZcFAtHW618s72mdT+ZUoW8VY2nHvce/DEQ4NpqL/9l3+rMfuEf+xXO5W0ZZg6rkJpoCppUWAGV0FU2wnmGI0wdQAccI9JJhq4m89JrN+y/qaSRvjasx7vHvPn/ibYCrpb5To/5QTtuv9fERsPySYiv8/cjm2kmAg2ul5H6wZtffG5+xYjBRj6PUjiVEOCaai33Zl36jwdxYtNN4dqEYbgqnnJpgCppYWAWZ0FUyxnWCK0QRTA8QJ98hgqtfkzDS/xF9rYwuVYcW7QVz8TTCV9DdC9P1s96m523pfHxHbdw+m4n+3+9xkj+lldzAQbbzaBP9b6RWfI7S+V2N5RsODqeizfY+9wpV9md2BamwvmHpugilgamkRYEZXwRTbCaYYTTA1QJxwjwym2n0psm32mvIeJk2MrXoi9N0JsvibYCrpr7fo99Qhw3p/HxHbdw2m4r/Vwe89NgcDse0rT/C/NTycij57vRZHGxpMRX/PvOxhlV3hVGwrmHpugilgamkRYEZXwRTbCaYYTTA1QJxwDwummvh7jxum/571NYMYW7uRejbmLT7cz/i7YCrpr6fo8/RXvqz3+RGxfe9g6ojjvykYiO2EUn83LJyKvtqPIs4SrgwLpqIvodR/2xxOxXaCqecmmAKmlhYBZnQVTLGdYIrRBFMDxAn36GCq17Jbh9+7ZC3GVD0p/+FEbvxdMJX010v09xLLsa33+xGxfbdgKrRJ8+xvvT0cDMQ2QqnckHAq+jnTsR8STEU/Qqn/tCmcim0EU89NMAVMLS0CzOgqmGI7wRSjCaYGiBPuocFUE4+pvIro5t17Lx2ljWk1xj3ahNiH99KKvwumkv56iL5eIpRq1vv+iNi+ZzDV4+rLezwUDMTjhVIf6/q+jfbPFgp0D6aiD6HU+374XbwWjxdMPTfBFDC1tAgwo6tgiu0EU4wmmBogTriPCKZ6TNL8mfV1lBhPm4zOxrnVD4O3eIxgKumvWvTzUpOM6/1/RGzfK5iqvnfbIx4Npl4mxNyoTfR/yo7dXq3dN/2cRddgKtoXpP7YQ8sHx+MFU89NMAVMLS0CzOgqmGI7wRSjCaYGiBPuI4KpXpOFw2+o/54Yyy+rse31w+WD4jGCqaS/StFHr6Uop7U+Bo+I7XsFUz2uurzX3cFAe+xqW3Jd7hMY7Z4xFOwdTPX6Hjmbr9nxy8RjfQ48N8EUMLW0CDCjq2CK7QRTjCaYGiBOuIcHU008rscyXNO8ZmIslRPnd03axuMEU0l/VaL9Fqi+3PJW6+PwiNi+VzB1pLuCgXjcGfe9p7sn+u8R7R1xtVS70qh9Dn8N7XPupn3ftXrF90K3YKq1veqLj33JjuNaPM5xfW6CKWBqaRFgRlfBFNsJphhNMDVAnHAfFUz1mrTtsiTUI2IM1VfV3HUlWDxOMJX0VyXan2l5qzaWNtl9m/huV+i191TT/vetvnsyfH0cHhHbv2QwFY9py6HNEGK2MbTXQHN7Tbx1+1u27RHK3sPRVguHsj4qtePbrsq6K6C4icff3qftPfzo66RLMBXtzvJebZ9X7TX59vPtpj2n7W+zfBa35+6H95uKx7SxZ9vzHARTwNTSIsCMroIpthNMMZpgaoA44a6elLz7eYvH9liOq/RX91vEGCqvBrtr4quJx/WaYH75YCraPnpisU3EtjFs2sfYrgUlLTBtk+gPTYSv23pEbP+qwVTlZ8AjbkFJuwfXQyF9e/z37baEJVX+yMa2RbTVex/a+/Guz+YfiXZu782sn7XyYCrabJ8PPb6P79H6bYFTOwYPHc94/OfQAr4jw9V77v8omHpugilgamkRYEZXwRTbCaYYTTA1QJxwHxlMVd+HqSmb2Nwi+q9ePuqHk1438VjBVNLfXtFum/zM+uutTay3CdvyqwCjzTYJfFd4st72EbH9jMHU7YqM9XJrrdb8KND4MBiIv1dfMXmPNu6ye+xFWy2oaCHVEWHF7uAl2uj5umuvjx/e82+LaPee494jmBpxddlaC+LKPrOjrfbd297HR4Sq3YKL1vaqryrlr6NHJOOp4LwBeElpEWBGV8EU2wmmGM0J5gDtRH51Yr/XI8FUm4TL2tjroWWVKkXf1aHL3ROg8djq5/Lm1YOp0ctGtYnVdoxKrsb4SPTRJnM/vFJjvc0jYvuZlgdrQfhdIV97XGgBQXZsfhRMjQxzWl/dJsWbaL8dh5GT/a2vXa/92L5n0NIllFqLftp7J/tMLw0Uor3RwXvbp25L7kbb7d8Vvb5j3tPt36vRtmDqfs4bgJeUFgFmdBVMsZ1gitGcYA7QTuRXJ/Z7PfS8xePvXb7oEd+yvkaIvisnpR+6+iseL5hK+tsj2myT8llfvbSrmIbfJ631GdL34vqxj4jtjw6mdgc3sf36KpZ3J3Tb374/ZoRhy5ZGX+0YjFyecNekeWzf67Nw+GR+9LkOqKqDqV7Haq0FjmVX9f1I9NUCt5E/Kuj1wwjB1P2cNwAvKS0CzOgqmGI7wRSjOcEcoJ3Ir07s93o0mOo16XLE5H51iPHQ5248XjCV9LdVtNcm40ddKTJ00vY9MYb2fvzbZO76MY/43t7b/RypfOI12mxXXaXvy6iPer20Pg65KjT67bH8aqbt4+arplZtVep+FeN7ou/blWtlr+toa9T7s32mDLnS7K3os70ne/z4JdPl36zRrmDqfs4bgJeUFgFmdBVMsZ1gitGcYA7QTuRXJ/Z7Pfy8xTY9lr7a9Jm1R/RZfSwfvRG8YCrpb6tob9TVL22yefik7UdiPC2A+FfIsv7bI2L7I4KpQ4Kb6HPE6+Xw10r0P+oqwk0T57FdCyOy9vY6/N8kMYa2b2Wfc22fvu9bTy2UOizQa6L/UeFU6XdQ09pc9VFFMAVwEmkRYEZXwRTbCaYYzQnmAO1EfnViv9eWYKrHr/AfWgZvr+ivLYWWjWOr37J+PhLbCKaS/raItkZd/XL4pO17YlztNf179rd7xfajg6lDgpvoc8Tr5fBQ6ibGMSKc+jPr+0diu1NO5FeL/Rnx3pzm8y3GMSKcevh7+0eiTcHU/Zw3AC8pLQLM6CqYYjvBFKM5wRygncivTuz32hJM9fqFe/mvl98TfVXfbP/hscc2gqmkvy2irRFLlk0bSlWJ/RsdTB0S3ES/I4KaQ5bve0+MZ8QVYg/vc2wjmLpD7E/voKYFqcOX1P1IjKd95mZjrVT6mR7tCabu57wBeElpEWBGV8EU2wmmGM0J5gDtRH51Yr/XpucttusxSVb+6+X3RF+VV0tsutorthNMJf1tEW31WF7yrWmufukp9nFkMHXYPbqi794T3lOGIjGuXp85N9+yfj8S2wimfiD2pdePQd4q/d6oEGMacWVj6TLC0Z5g6n7OG4CXlBYBZnQVTLGdYIrRnGAO0E7kVyf2e20Npj6v2qnQJqC6X5ESfVRfLbHp8za2E0wl/T0q2vmyareH6SZte2j7udrvXh4OMKpE3z0+u97atZxiTzG26iVMMw99hsfje73mTvNvktiX3leEfs36nUGMrffVjaXv12hPMHU/5w3AS0qLADO6CqbYTjDFaE4wB2gn8qsT+702P2+xbY+rDrpfRRF9VI97U5gW2wmmkv4eFe18W7Vb7TRXXvxI7OuIYGpIAP2e6Lt6Gc+1qUPMGF/vJf0e+gyPx/d6zW2659WMYl96XuF36PvxHjG+3lf6lS1hGG0Jpu7nvAF4SWkRYEZXwRTbCaYYzQnmAO1EfnViv9eeYKrHL5m7Xm0Q7VdfLbF5+cHYVjCV9PeIaKP3ElfTXv3SQ+zviGDq6AnWnss+DluOdKsYY+/l0R46BvH4nq+5qe7ztUXsQ++r3A5bUvNeMcben0tlxyDaEkzdz3kD8JLSIsCMroIpthNMMZoTzAHaifzqxH6vPcFUrwnObvfyibar7421OVyJbQVTSX+PiDZ6L/NUeixn1/Z3tf/Vjr5aqvcyfmVXXvQU4+x51dhDVyrF43u+5p4+WI596LmM36b7Ix4hxtrzqrGypUWjLcHU/Zw3AC8pLQLM6CqYYjvBFKM5wRygncivTuz32vW8xfbVQU/T5X4X0W51kLZrUi+2F0wl/T0i2ui5jN/LfabFPvcOpg69oij67znJ/zSvlxhr76tw7v5xQTy291WP01/F9pEYf8/PuKdZpjTG2vNHCGXLPkZbgqn7OW8AXlJaBJjRVTDFdoIpRnOCOUA7kV+d2O+1N5jqcQVCl3uDRLvVE1ubPmdvYnvBVNLfI5I2K73U1VJN2+fVMajW7WrIe0T/PSf5p18S7a0Yb88rUB76bEy2r/a04VSMveeyi09xhV8TY+0dYJZ8NkU7gqn7OW8AXlJaBJjRVTDFdoIpRnOCOUA7kV+d2O+1+3mLNnpMcJZP8kab1feW2bUkWWwvmEr6u1fbftVepZf8PIv97nlMD182LMbQa5K/S5jeU4y559Vjj95nqtdn4Vutj6cJYpoYb8+lJ8uWrxuljXm1D5VK/s0R7Qim7ue8AXhJaRFgRlfBFNsJphjNCeYA7UR+dWK/V0Uw1WOJndJJs2iverJo9/iiDcFU0t+9Yvte42qe6uqXKrHfPYOpo5fx6znJ/3RX5MSYey7n99C9neLxPd/La62vw+5z9ogYZ8/w8Ok+49qYV/tQqST4iXYEU/dz3gC8pLQIMKOrYIrtBFOM5gRzgHYivzqx36simKq+d9NN2a/bo63qe2F9yfp5RLQhmEr6u1ds3+v4tdfyU0xcV4v97hlMHToR3vpfjafSUwaZMe7qq0j/bd3XR+LxX9bbd9be49MHVDG+HvdwvHmqq8eaNubVPlQq+TdstCOYup/zBuAlpUWAGV0FU2wnmGI0J5gDtBP51Yn9XlWTMV9X7Vao+gVz9b0pSpYki3YEU0l/90raq/J0S1xViX3vGUwdOhEe/fe8KufpJvmbGHfPpdEeOibx+J73UnrP1AFVjKvXd8Thy2puFWPv9Tqp+l4XTN3PeQPwktIiwIyugim2E0wxmhPMAdqJ/OrEfq+qYKrHL5mrJoqql0OqCswEU0l/94htey7L9pLL+DWx792CqXVfo8UYer3fnu7+Ujcx9p5h3UPv73h8z6uD7tH6/5yN7Sir8VV6uqUnb2Lsvd7H0Xze5yOiHcHU/Zw3AC8pLQLM6CqYYjvBFKM5wRygncivTuz3KnveWlurtitULJlXvVxVydUR0Y5gKunvHrFtz6W/nvLqlwqx770mVQ//fogx9Fq27mm/+2LsPa+Qeyjgjcf3XKbtEe1z+fBwOsbQ83gcGnLs0ca+2pdKuz/7ow3B1P2cNwAvKS0CzOgqmGI7wRSjOcEcoJ3Ir07s96oMpnrcw2XXL7tj++oAo2yZt2hLMJX0d4/YtteYnvbqlwqx/70mVQ9fHjEZU5VnnuTveeXhw8cltun1mbhFWzKuLVF7SFAd/fYMDUu/I0aKsVdfAf3W7uPS2li1WUUwBXASaRFgRlfBFNsJphjNCeYA7UR+dWK/V+nzFu31uP/D5vt/xLbV91DZfQXXTbQlmEr6u0ds22vZr5f+HIv9P+ukavV95t7a9O+tWST7U2VLMDXLVVNr7XtkaJgT/fX4ocfNVEsWPiLGPnVg19pYtVlFMAVwEmkRYEZXwRTbCaYYzQnmAO1EfnViv1d1MNV+YZ71s8emz7PYrnqSs/SG8dGeYCrp7x6xba9j9zXr71XE/p91UnXqyewjJftTZdNVcrFdz6Xa9mqfO0Oe7+in23FY9/VMYvw938u7Q+ZoQzB1P+cNwEtKiwAzugqm2E4wxWhOMAdoJ/KrE/u9qoOpHr943xQIxXbVE3ulE0PRnmAq6e8ese3vq7aqHDr5d7TY/16Tqofesyf6F0y9I8bf63No83dLbNvr/V2le0AV7Qum3pHtU5Hdn//RhmDqfs4bgJeUFgFmdBVMsZ1gitGcYA7QTuRXJ/Z7lT9vrc1VHxUeXnootvlj1cZepfcaifYEU0l/90jaqlK2VOMziv3vNal6aHgT/Vffa+6tzUuNziDGP2Mw1X7g0GNZ2GptSdEuz3+02+Pq4+bp/62W7FMVwdQ7kvFUcN4AvKS0CDCjq2CK7QRTjOYEc4B2Ir86sd+rRzDVYxL4t6yv98Tjq+/PsWlZqo9Em4KppL97JG1VOTRAOVrb/9XxqHJ0MOXqk3fEPkwXTDWx/efwDOFUG+PuJeDWos0pn5cZJPtURTD1jmQ8FZw3AC8pLQLM6CqYYjvBFKM5wRygncivTuz36vK8RbvVVyu1yb+7f5kej60+TuVX0kSbgqmkv3skbVURTOXHZS/B1KRiH6YNQKKNZwmnmnYcy66e+t5e1s9egqn3CabekYyngvMG4CWlRYAZXQVTbCeYYjQnmAO0E/nVif1evYKpHhPBd92nJh5XfZ+rP7N+9op2BVNJfz8S27XJ6qy9CoKp/LjsJZiaVOzD1AFItNPe77Pfc+qmhWgPLzubiXYEU+9I9qmKYOodyXgqOG8AXlJaBJjRVTDFdoIpRnOCOUA7kV+d2O/VK5iqDoeau8Yaj6u+N8fXrJ+9ol3BVNLfj7TtVu1UEkzlx2UvwdSkYh+mD0CirZ/Ctzdtz+6uH1F8JNoQTL0j2acqgql3JOOp4LwBeElpEWBGV8EU2wmmGM0J5gDtRH51Yr9Xt+ct2u4xkfgp6+uteEz10k8/7HOLaFcwlfT3I227VTuVBFP5cdlLMDWp2IenCUCizV/Csyzttyuciu0FU+9I9qmKYOodyXgqOG8AXlJaBJjRVTDFdoIpRnOCOUA7kV+d2O/VM5j6suqrwodXL8Xff149fq+ex0cwlfT3I227VTuVBFP5cdlLMDWp2IenCkCi3XY1bq8xV9scTsW2gql3JPtURTD1jmQ8FZw3AC8pLQLM6CqYYjvBFKM5wRygncivTuz36vq8Rft/rPrb68P7PcXfq+9FsntJpvdE24KppL8fadut2qkkmMqPy16CqUnFPjxlABLttx8+VH+/9LD1c04w9Y5kn6oIpt6RjKeC8wbgJaVFgBldBVNsJ5hiNCeYA7QT+dWJ/V69Jw97TAh/eaevdpP87PFbfRiC7RXtC6aS/n6kbbdqp1L62noVsf+Cqcf9lPX5LGL8vT6Hutybby36mX15vza2h18jsU2v5+X3rL9nkuxTld2f/9GGYOp+zhuAl5QWAWZ0FUyxnWCK0ZxgDtBO5Fcn9nv1DqbasktZv3t8e6ev31aP26vrxGq0L5hK+vuR2O6nVTuVDp38O1rs/1mDqR7Lit4cum97JftTZdh7KfpqnwktoJr1Cqr0O+sjsU3199m/rft6JjH+nj9M2P1ebm2s2qwimAI4ibQIMKOrYIrtBFOM5gRzgHYivzqx36v78xZ99Jhg+7Tqo01MVv9q/m99VIv2BVNJf/dI2qoy5CqPWcX+nzWYmnoy+0jJ/lQ5ZCI9+m33Gaxe0rXCQ6+TeHy3q/zWfT2TGL9g6gDJeCo4bwBeUloEmNFVMMV2gilGc4I5QDuRX53Y7zUimOoxUfO3SZr4/20yMnvcViOOi2Aq6e8eSVtVXvpzLPZfMPW4QyeM94ixVy9/+tYMz3m3q442eGgJvXh8z+UnD31u9oixtyvjsn3abd3XFtGOYOp+zhuAl5QWAWZ0FUyxnWCK0ZxgDtBO5Fcn9nsNed6in+ollv7o3P7Pb9vvIfoQTCX93SO27bVkV9f7is0u9v+swVTP5R+f9iq7GHvPwG6K8CPG0Z779hk2wzJ/dx+TeGz1jy3eetp76cXYp76SLNoRTN3PeQPwktIiwIyugim2E0wxmhPMAdqJ/OrEfq9RwVSPXzn/a5Kv/XdV32tIOBH9CKaS/u4R2/Y6dk3XJRxnFvt+ymCqScZU5Wm/+2LsU0/yV4txtbDnyIDq7ntNxWN7hobPfJVfr8/+kvdxtCOYup/zBuAlpUWAGV0FU2wnmGI0J5gDtBP51Yn9XqOCqR5XLPz2ve3q5ZqGXAER/Qimkv7uEdv2XKKr+9Vys4p9P3Mw1e2+Q+u+nkWM/dt6X4r87YrW2cT42uu8Z7j9kZ+yMa3F4z6ttqv0zGFq9b0kb/7174m9oh3B1P2cNwAvKS0CzOgqmGI7wRSjOcEcoJ3Ir07s9xr2vEVfPcKEHpN3n7PxV4t+BFNJf/eIbbtd6RHuvqrhbGLfzxxM9QwihnxmVItx97p66CneQzHOI66gujv4Trat8pRLlsa4e4Z1m86b1qIdwdT9nDcALyktAszoKphiO8EUoznBHKCdyK9O7PcaGUz1mLCpnlR86Ab1e0Rfgqmkv3u0bVdtVWq/yL/rqoazif0+czDVM8wsmdQeKcbcc5L/qZaKa+Ndjb+nu6/MiccKU9+IMfe871bJZ1RrZ9VuFcEUwEmkRYAZXQVTbCeYYjQnmAO0E/nVif1eQ5+36G+GG9B/ZNgybtGXYCrp7x6xbY+lId96yeX8Yr/PHEx9WY2p0rBAu0qMucd9/24Of74fFWP+HLot9/jG3a+VeOzX1baVhixZWynG3GvpyWg+7/NR0ZZg6n7OG4CXlBYBZnQVTLGdYIrRnGAO0E7kVyf2e40Opnr+4nmvoVfKRF+CqaS/e8X2PUPOl/w8i/0+czDV8wqh5lPW76xivNNP8o8WY2+Bd/dwat3ve+KxPb8vp74PWCbG3Ov+UmWf99GWYOp+zhuAl5QWAWZ0FUyxnWCK0ZxgDtBO5Fcn9nuNDqbaxF+vyaW9Sm5+fq/oTzCV9Hev2L7HPcveOjxMGa3t8+oYVJniWMY4eoaZT7N8XYy1Z0j31P8WiPGPCKfuWkYvHtc7TH2az7gYa8+Qruy9G20Jpu7nvAF4SWkRYEZXwRTbCaYYzQnmAO1EfnViv9fw5y367B0obDX0nhvRn2Aq6e9esX3vq+9e7jMt9vnswVTPz56nuQIlxtrznkpPd7+ttdiHFgj1/AHF3e+HeGzPMHXojzH2iLH2+r5syr77oy3B1P2cNwAvKS0CzOgqmGI7wRSjOcEcoJ3Ir07s9zoimGr38sjGcqTh94iJPgVTSX/3iu1732eq+ZL1fVaxv2cPpnqHmdPfmyzG2Puq1ada0vA9sR89w7tHgqneP+SY/vmKMfb6XGpKA+VoTzB1P+cNwEtKiwAzugqm2E4wxWhOMAdoJ/KrE/u9Dnneot8RN5l/xPAJ5ehTMJX094hoo9t9cr5rVysMu+/Y0WJfzx5M9Q4zh96nbosYX8/AZXjA30vsS8/XyiPB1JfVttW+Zf3OJMbY82qpr1mfW0V7gqn7/Zn1BXB2aRFgRlfBFNsJphhNMDVAnMifJZjqfeXCIw6ZTI4+BVNJf4+INka8jqafuK0S+3rqYKqJsfQOM0snuivF2HpfLfX0y/i9FfvT6wcUD70f4vE9n7Nm2itDY2w9r5ZqSpfwjfYEUw9Y9wPwCtIiwIyugim2E0wxmmBqgDiRP0sw1XuC9BGH3Gcj+hVMJf09ItoY9To61YT7e2I/XyGYGhFmTrO/b8W4eodyp1jG7yb2p9cyeo8GU72X8zvkxxk/0sYUet5jq/y+cNGmYOoxU35WAvSUFgFmdBVMsZ1gitEEUwPESfwpgqkm+u492Xav0l9M3yv6FUwl/T0q2hn1OnqG+wftGmNs/wrB1Igwc7qJ/hhP70BuU8Af27V7Dk45OR3jmuKzrz1+tX0P0/0bLsbU+7O9/DM92hRMPeYlfvQB8FZaBJjRVTDFdoIpRhNMDRAn8WcKptqEZDamkQ67J0r0LZhK+ntUtPNp1W5PU4ZTMa52DP71elr/7RGx/emDqSbG83U1vh7aMnBThFMxjvZZ2zuM2/Qct+2+b9+ek9nCvF7ByMM/hohtel45dHPI1cOZGEvvILVLeBxtnjWY6rWs5WnuSwdwr7QIMKOrYIrtBFOMJpgaIE7iTxNMNa3/1XhGO+zXutG3YCrpb4toa+TraKpfeLfxhH+HDuu/PyK2f5VgalSYeXg4Ff2PCKU2f4/Etm9fcy18mSb8jbF0+VxZ93OP2G7UfRkPD6diDCP2tUvQE+2eNZjq+R17qiVAAX4kLQLM6CqYYjvBFKMJpgaIE/jqyYGjg6lRk23vOWzSOPoWTCX9bdHaWrXdW7tXz9GBQ9vn//gV+/pxj4jtXyKYamJMo5aAbM/RIROv0W97PnuHUs3m57dtu2qraZ+Nh75mov+25ON6XBU239eobbtqq5f23jjk8y36bUF7NqZKXa6WaqLdXp+hZw6mprlSD2CEtAgwo6tgiu0EU4wmmBogTuBPFUw1MYYRE6eZQydDon/BVNLfVtFeC4uyfnppk8RfsrH0FH22ic93Xzvrxz8itn+lYGrkEpDtM27oayX66/W+Xdv1HRLbf/SaOyygin57Hb9vWX/3iG1H/pCjBarD7r8YfbUgcNRneLeQJ9o+azDV+/Nkuu8IgF7SIsCMroIpthNMMZpgaoA4eT9jMDXifi+ZQydCon/BVNLfVtFeCxqOCDmHTJ5HH1++95WN4d/W2z0itn+ZYKqJcY26auqmPX9dJ/uj/fYc9rofTGbX1WCx/T2vuXbchi3xF331XP5w11Kgsf2oq6Zuul89Fe23wG3UZ/fmK9buEe2fNZjqfSVbe/53fzZGG+34WxoQmFpaBJjRVTDFdoIpRhNMDRAn3NVhxgzB1MgrF266Tk7dI8ZQ/VzevGQw1USbo64SybQwoE2wlk3iRlvtvdGC27sno9dtPCK2f7Vgql2lcVSYWXoFVWvve7tZf73sniyPNh55zbXnqr0fuoV7re3v/WT9VxgR5FVrx6MFVGXHPdpq7732eTk6aOv6WdTaX/VX5ehgasTrrr3ONp2/xnbtfXv7ocGU3zcAN2kRYEZXwRTbCaYYTTA1QJxwny6Yato4VuPqbdev1ivEGARTSX97RbsjrxZ5T3tu23F7aB/j8W2ytgUMbfJ9036s23xEbP9SwVQTYxtxT5v33Cb823P+UGARj3/7Whk9ud+0PneHsNHG1tdc678spIp2Wgjc+wq637O+HxXtjF629K3bcW/P20PPfzy+HeMWRrXj3DP8e0/35Xujj1MGU00ypl7aa6x9Ln/4mdj+/v1x6+9KwRQwtbQIMKOrYIrtBFOMJpgaIE64zxpMjbx3RtN1aaJ7xBgEU0l/e0W7va942KKNpz3ft8DqrTZJ2+ol4cL6eDwitn+5YKqJ8fV6L25xe520yf/1a+X2txle31WBUMVrrh2PFta0Y9Ta+2HIF49pnxMt2GvbjAqzS5YjjHaOutIv89FnW3sN3/6WbTtSSZD6I9HHmYOpI3700Z639vp5+3nY3usfjUUwBUwtLQLM6CqYYjvBFKMJpgaIE+7qCZ5pnrcYy6iJtu6/mr5HjKPXZN1LB1NNtD066JzG+lg8IrZ/1WBqpon+Z1B2xWm01es1d3MLRpqS8Hej9vqqXOaz93E7m27LP74V/Zw5mGrhUDa22QimgKmlRYAZXQVTbCeYYjTB1ABxwn3mYGrUpMcUkxYxDsFU0l+VaL/3slxTWh+HR8T2LxlMNW2MqzGTKw32o71XOe7lwUJrc9UHuZIr1e4RfZ05mGpXGWZjm41gCphaWgSY0VUwxXaCKUYTTA0QJ9xnDqba/QKyMVb6I+v7CDEWwVTSX6Xo44ilhw61PgaPiO1fNphqYpxH3m/qGbT3U+lyaNHeKwRT3ZaRi3aPvN/UMxh6hXT0d9pgqolxHHnV4b0EU8DU0iLAjK6CKbYTTDGaYGqAOOE+bTDVxHh6T7KVLUG1V4xFMJX0Vyn6aEu0vVQ4tT4Gj4jtXzqYamKsL3ml3R3KQ6km2nyFYKrb6z/afrnPuAcMX7Y3+jx7MPUMV+kJpoCppUWAGV0FU2wnmGI0wdQAccJ99mCq3Yw+G2eV7jc/v1eMRTCV9Fct+nmpidv1/j8itn/5YKqJ8Qqn/q5LKNVEu2cPpr5m+10p+hBO/adD7iUZ/Z49mGqvtWx8MxFMAVNLiwAzugqm2E4wxWiCqQHihPvUwVQTY+q1VMwhE1XvifEIppL+eoi+Xmbidr3vj4jtBVPfxZiFU3/pFko10faZg6nfs33uIfoSTv23w77ro+9TB1NNjGX2z0bBFDC1tAgwo6tgiu0EU4wmmBogTrhfIZjqFYR8yfo7SoxHMJX010v09xITt+v9fkRsL5h6I8b96uFU11CqifbPGkx1P3Zrrb/v/WbjeRWH/gAl+n+FYKq9zv58M7bZCKaAqaVFgBldBVNsJ5hiNMHUAHHC/QrB1KfVGCv8kfV1pBiTYCrpr6fos02o9b6P2aHW+/yI2F4wtRJj/2W1L6+ihXLdg5Xo44zB1PBQ6qb1G141UD38HpIxhtMHU02MZ+bPRcEUMLW0CDCjq2CK7QRTjCaYGiBOuE8fTDUxrurwYKpJnSbGJJhK+hsh+u61T4db7+sjYnvBVKKNP8x8hUC1YRP80dfZgqnDQqm3YgyvFKi29+YUnzFtHG/GVWnGf8PM+iMPwRQwtbQIMKOrYIrtBFOMJpgaIE64XyWY+rIa516fsn6OFGMSTCX9jdL6D73uZ3aY9X4+IrYXTL0j9qFdidLrPTuL9n74nO1/L9HfmYKpNlF/eCh1E2P5HE73GbfS3pMzHfNXCqZmXTpSMAVMLS0CzOgqmGI7wRSjCaYGiBPulwimmhhb1YTat6z9o8W4BFNJfyPFGNrE2tc3Y3p66318RGwvmPqB2Jd2JcoZr55q7/PhE/zR51mCqcOXkcvEuE73Gfddew/+nO3zkWJMLxNMNTGutvTybJ+HgilgamkRYEZXwRTbCaYYTTA1QJxwv1IwVbUU0Zes/aPFuARTSX9HaGMJM/7y+1G73s+xvWDqDrE/Z7qPT/scOuyK0uj72YOpdvyGXmW2RRvj97Fm+/BsWtA2zVVSb8W4XiqYamJss105JZgCppYWAWZ0FUyxnWCK0QRTA8QJ9ysFU22yIxvzI/7I2p5BjE0wlfR3pBjTz+EZl75qr6Xdx7O18abNSqecKIz9alcLPGtAVfKa2SvG0AKTZ7wCrX1OTHfFzo/EmNt7/FkDqvZem25Z3rdifC8XTDUxvvbvtVnuOXXK7xvgPNIiwIyugim2E0wxmmBqgDjhfplgqonx7Z30nflXxoKppL8ZxNhaQPUMk7ft/VF2HFtbb9qudOqJwti/FlC1qzieIWBpr5nprvCJMbX33CwT2x95ykBqLfahvdefIVRt76n2HTR1IHUT43zJYOomxtnuD3r056BgCphaWgSY0VUwxXaCKUYTTA0QJ9yvFkztneSZdjIrxiaYSvqbSYyxXc0xW+DQlkxqy1yWL2UVbQqmdop9nTFgaeNp45py+bO32hi/j7WNeab3XWkIPIvYp3a82+fJTEuxtee9He8pl+H9SIz5pYOpJsbaXlPt3w1HvH/bv6ueIsQEXldaBJjRVTDFdoIpRhNMDRAn3G2ivE18VHmGe2Nk477H1PvWxrcab5XSyedor10NkvWz1/ST5G/FeG8h1egJ3HaFRpuk7R4stPZD9lzt9VTPdYW2z6E9Z+25G7085LDXTG8x/va+a8HJ6KDqdgzbFSAv8fqN/Wyf9Ucc66Z9rrbP16cLo96K8ff6DH26sCXGfPsM7B3UtzCqvW4FUsBTSIsAM7oKpthOMMVogingJSz/PfnYfhXeJt2qwqo2wdbaa+22CXETbSfRnsvvz2n1a6a18zKvmbZ/4e17r+LK0xZCtXa8796I49BCwRYstOPSjk9VwNraaqFfa7c9ly8XXL+a9hyH9t5q4eOe9+zbzztL9gFPKS0CzOgqmGI7wRSjCaaAl7b856/l26+42wTa2tvHTH/VIn2tXg+38Gqt1f/9uKydVxfH5e1VqLdA5a32fvz3MQwCkQ3acVsdx+xYN28f43OOv4nXxNvXUfa59/Yzz3sVOI20CDCjq2CK7QRTjCaYAgAAAEikRYAZXQVTbCeYYjTBFAAAAEAiLQLM6CqYYjvBFKMJpgAAAAASaRFgRlfBFNsJphhNMAUAAACQSIsAM7oKpthOMMVogikAAACARFoEmNFVMMV2gilGE0wBAAAAJNIiwIyugim2E0wxmmAKAAAAIJEWAWZ0FUyxnWCK0QRTAAAAAIm0CDCjq2CK7QRTjCaYAgAAAEikRYAZXQVTbCeYYjTBFAAAAEAiLQLM6CqYYjvBFKMJpgAAAAASaRFgRlfBFNsJphhNMAUAAACQSIsAM7oKpthOMMVogikAAACARFoEmNH1y//4f8J/wQb/M3tN/cj/+t+X/9kCBthgUxgKAAAAcHZpEQAAAAAAAKqlRQAAAAAAAKiWFgEAAAAAAKBaWgQAAAAAAIBqaREAAAAAAACqpUUAAAAAAAColhYBAAAAAACgWloEAAAAAACAamkRAAAAAAAAqqVFAAAAAAAAqJYWAQAAAAAAoFpaBAAAAAAAgGppEQAAAAAAAKqlRQAAAAAAAKiWFgFmdPl//8//Cf+EDX7JXlM/9P9dfgn/hA3+K31NAQAAALy4tAgwo4tgiu0EU4wmmAIAAABIpEWAGV0EU2wnmGI0wRQAAABAIi0CzOgimGI7wRSjCaYAAAAAEmkRYEYXwRTbCaYYTTAFAAAAkEiLADO6CKbYTjDFaIIpAAAAgERaBJjRRTDFdoIpRhNMAQAAACTSIsCMLoIpthNMMZpgCgAAACCRFgFmdBFMsZ1gitEEUwAAAACJtAgwo4tgiu0EU4wmmAIAAABIpEWAGV0EU2wnmGI0wRQAAABAIi0CzOgimGI7wRSjCaYAAAAAEmkRYEYXwRTbCaYYTTAFAAAAkEiLADO6CKbYTjDFaIIpAAAAgERaBJjRRTDFdoIpRhNMAQAAACTSIsCMLoIpthNMMZpgCgAAACCRFgFmdBFMsZ1gitEEU1yWZfk1/FdnX7K+AQAAYFZpEWBGF8EU2wmmGE0w9eKWZfkp/HOA37P+AQAAYFZpEWBGF8EU2wmmGE0w9eKWZfl5FSD19CkbAwAAAMwoLQLM6CKYYjvBFKMJpl7csiy/r8Kjnr5mYwAAAIAZpUWAGV0EU2wnmGI0wdQLW5bl0yo46u2PbBwAAAAwo7QIMKOLYIrtBFOMJph6YcuyfF0FRyN8ycYCAAAAs0mLADO6CKbYTjDFaIKpF7Ysyx+r0GiE37KxAAAAwGzSIsCMLoIpthNMMZpg6kUty/JlFRiN9FM2JgAAAJhJWgSY0UUwxXaCKUYTTL2oZVl+W4VFI/2cjQkAAABmkhYBZnQRTLGdYIrRBFMvaFmWn1ZB0Wi/Z+MCAACAmaRFgBldBFNsJ5hiNMHUC1qW5edVUHSET9nYAAAAYBZpEWBGF8EU2wmmGE0w9YKWZfl9FRId4Ws2NgAAAJhFWgSY0UUwxXaCKUYTTL2YZVk+rQKio/yRjQ8AAABmkRYBZnQRTLGdYIrRBFMvZlmWr6uA6EhfsjECAADADNIiwIwugim2E0wxmmDqxSzL8ucqHDrSb9kYAQAAYAZpEWBGF8EU2wmmGE0w9UKWZfmyCoZm8FM2VgAAADhaWgSY0UUwxXaCKUYTTL2QZVm+rUKhGfycjRUAAACOlhYBZnQRTLGdYIrRBFMvYlmWn1aB0Cx+z8YLAAAAR0uLADO6CKbYTjDFaIKpF7Esyy+rQGgmn7MxAwAAwJHSIsCMLoIpthNMMZpg6kUsy/L7KgyayddszAAAAHCktAgwo4tgiu0EU4wmmHoBy7J8XgVBs/kzGzcAAAAcKS0CzOgimGI7wRSjCaZewLIsX1dB0Iy+ZGMHAACAo6RFgBldBFNsJ5hiNMHUC1iW5c9VCDSjb9nYAQAA4ChpEWBGF8EU2wmmGE0wdXLLsnxZBUAz+ynbBwAAADhCWgSY0UUwxXaCKUYTTJ3csizfVuFPhV5h17bPQAAAAOggLQLM6CKYYjvBFKMJpk5sWZafVsFPhd+/t/37ql7hX20DAADADNIiwIwugim2E0wxmmDqxJZl+WUV/FT4uWPbzef1fgAAAMAR0iLAjC6CKbYTTDGaYOrElj5XNf3rPlDx30+repWv6/0AAACAI6RFgBldBFNsJ5hiNMHUSS3L8nkV+FT4tuqjR/D159s+AAAA4ChpEWBGF8EU2wmmGE0wdVLLsnxdBT4V/rWM35s+ei3n9+VtPwAAAHCEtAgwo4tgiu0EU4wmmDqpZVn+XIU9Ff61jN+bPn5a/b3K367MAgAAgCOkRYAZXQRTbCeYYjTB1Akty/JlFfRU+O2dvr6tHlflbyEYAAAAjJYWAWZ0EUyxnWCK0QRTJ7T0CYvS5fWi/vPqcVW2fR4CAABAkbQIMKOLYIrtBFOMJpg6mWVZPq0Cngp/Zn018bdey/n9nvUHAAAAo6RFgBldBFNsJ5hiNMHUySzL8ssq4KmQLuN3E3/vtZzf56w/gLX4vGgh+T++a1dy/vpd+9+3+tRLhMb42g8L2jhvY/8t/NcH2t9vj23b+cwEACiWFgFmdBFMsZ1gitEEUyezLMsfIQt59kiX8btpf189vsrXrD+A+HxoIU4L4lsw/mfIPkMy7TOybfNz1u5IMYZbCNVCpmysW/0eWmjVQrlPWd8AANwnLQLM6CKYYjvBFKMJpk5kWZbPIZuk3OOPrK+1eNwjE8P3encJwVnFmKsnmE9nfcwy8bhex/EfWX9Hi3F12d91P3tEez3G+PB3UGzTwpYWvGTtPWTd9gjRbxv/o2HaXu14tRBPSAUA8KC0CDCji2CK7QRTjCaYOpHlr1/IZ5OSe9x11VI8rkffzeFXNTwixiuY+oH1McvE4wRTBdb97BHtHRpMxWNboFN6Rei6j16ir3Z119cwMox6T3sen+pzFQDgSGkRYEYXwRTbCaYYTTB1IkufSc+77lkSj+u1nN+3rL9ZxXgFUz+wPmaZeJxgqsC6nz2ivUOCqXhMuxK05AqptXVf1aKPFkj1Cu33aiGfgAoA4AfSIsCMLoIpthNMMZpg6iTaBOObCccqdy3jdxOP73U1wNMsPxVjFUz9wPqYZeJxgqkC6372iPaGB1Px9/a51u0qo3V/VaLtn0K7QirtdzIt9JvyfQEAMIO0CDCji2CK7QRTjCaYOonlr3uWZJOOe/ya9fWeeHyvidhtn40HiLEKpn5gfcwy8TjBVIF1P3tEe0ODqfjbr6vHllv3WSHabVePzrBk36Pa5/dP2T4BALyytAgwo4tgiu0EU4wmmDqB5a/lorKJxr0eulIpHt+W3Mra2euhK7eOFGMVTP3A+phl4nGCqQLrfvaI9oYFU1Efsvzdut89or12lVSPHwiM1Jb3u2v5VgCAV5EWAWZ0EUyxnWCK0QRTJ7Asyy9vJhar/J719SOxXZvYzNrb6ykmS2OcgqkfWB+zTDxOMFVg3c8e0d6QYCpqPT7PUuu+t4q2Wij/jFdJZdp+uPcUAMB3aRFgRhfBFNsJphhNMHUCS58waNPnUWzXazm/37L+ZhPjFEz9wPqYZeJxgqkC6372iPa6B1Px/9syeNnjunjb91bRTo/7+83gaZZQBQDoKS0CzOgimGI7wRSjCaae3NJv+byHlvG7ie16jefPrL/ZxDgFUz+wPmaZeJxgqsC6nz2iva7BVPzvtiTp0KuObn1vFW30CuJn8RQ/CAAA6CktAszoIphiO8EUowmmnlybOFxNJFbY9bqI7Xst5zf98lIxRsHUx37NjttaPE4wVWDdzx7RXu9gavh759b3FrH9kPtgTcCVUwDAS0uLADO6CKbYTjDFaIKpJ7f0ucJgVwAU2/e6R8y3rL+ZxBgFU++7+/OmPXa1bRXB1EbRXrdgKv47dAm/m7f794jY9lVCqRv3nAIAXlZaBJjRRTDFdoIpRhNMPbE2WbiaPKzyU9bfvWL7tiRX1m6FTUsMjhLjE0zlWoB69+sqHiuYKrDuZ49or2cw1esqyw+93b97xXavFkrdfM6OBwDA2aVFgBldBFNsJ5hiNMHUE1uW5dtq4rBCyVVJ0c7vq3arTL2sVIxPMJV7KBCKxwumCqz72SPa6xJMhV4B+w+t9/FHYpteV4M+g4fCZQCAs0iLADO6CKbYTjDFaIKpJ7X0uyqpZMmmaKfXBO4fWX+ziPEJpv7T1+xYfSS2EUwVWPezR7TXK5jqFWL/0HofPxKPP2S5wclMv5wqAEC1tAgwo4tgiu0EU4wmmHpSS5/gp+wX8dFOz+X8pl1SKsYmmPq737Pj9COxnWCqwLqfPaK9HmPscY+8u6338T3x2M/hyLG2vtvxvzlyLF+yYwQAcFZpEWBGF8EU2wmmGE0w9aSWPvdk+S3ra6tor8dSg03pOCvF2LoEDE+qTZ5vuidYbNfrOAqmNor2TvfaXu9jJh73Uxh9VVf77Gw/PvgwhG9/D20pxHbfq1FhVevHkn4AwMtIiwAzugim2E4wxWiCqSe0/DUZmU0Y7lX6S/hor9e9Y/7M+ptBjE0w9d82LwsZ2wqmCqz72SPae9Vg6ut6u05a4PNr2Bz6xLbtM3fE8/Rr1j8AwBmlRYAZXQRTbCeYYjTB1BNa/vp1fDZZuEd52BNttisNsr4qlNwLq1qMq4WG/3gSPSewd13VFtsLpgqs+9kj2nu5YCoe094n6bbFdgVSa9FWC6h6XkG1+WpIAIBnkxYBZnQRTLGdYIrRBFNPZvkr7Okx4dhlebxot9dyfm7Cv0Mcvy+r41mpLTO5a5I9thdMFVj3s0e0N1Mw1T4D22dLC3TWgWvTlsFrf2uPeXfZ0/U+rsVjeiyZ+lZbIrDLPfOi3d5LEH7N+gUAOJu0CDCji2CK7QRTjCaYejJLv+Xxek2O9hpv4xf7G7TjFnpeTbH7tRRtCKYKrPvZI9qbIZhqY3h4ydHYpl3J2Jbk+1vQtH7cW/H3Fmy97btau/K1672aWvuhVzjVPkPcawoAOL20CDCji2CK7QRTjCaYejJLn8nhP7K+qkT7vUIQ9znZII5bz6sotn2PrUQ7gqkC6372iPaODKbaa7bkuYt2Wlj+r/fA+m838bdeV6bedLlCNRN99QynSt7vAAAzS4sAM7oIpthOMMVogqknsvx1pUs2ObhX1yWZov0e98RqugZqZxTHrF01kh3LCmXLK0ZbgqkC6372iPaOCqa6fD5Fu+/+myv+1uszqxkWSt1En72ukvQZDACcXloEmNFFMMV2gilGE0w9kaXf0lJdlvG7ifZ73s9oyqBhRu1YrY5dpdJlvaItwVSBdT97RHtHBFM/Z2PpKfrs9QOAZngodRN9P9UysAAAs0iLADO6CKbYTjDFaIKpJ7L0uRH/kF+8Rz+9lsU6bKL3mcRx6r00WWngE+0Jpgqs+9kj2hsdTA0PpZrot9dVhW05vUPvyRT993gOu15xCwBwtLQIMKOLYIrtBFOMJph6Eku/q122fe48KPrptTRW6ZU6ZxXHqGeoUH6vr2hTMFVg3c8e0d7IYOqoUKpngHv4lUUxhh7fI5bzAwBOLS0CzOgimGI7wRSjCaaexNIv2PmU9Vct+um5jNwhk9jPIo5PryUgm9+zPveKdgVTBdb97BHtjQqmzrjc3TRXFcVYelx5azk/AOC00iLAjC6CKbYTTDGaYOoJLP1+xd8lVHhP9NdjQrTxOn5HHJve95XqEmxGu4KpAut+9oj2RgRT7TPisCsgo++23F42rj2muqozxtJjqcIhV94CABwhLQLM6CKYYjvBFKOZ0H8CS79f8Q+dTIz+et27pRly5dcziWPSAs1eYWDzJeu3QrQtmCqw7mePaG9EMHXY1Y/R96fVWKqUL3W5R4zn82p8Fb5lfQEAnEFaBJjRRTDFdoIpRhNMPYGl34Tw0F/xR389JkRvppr8nUEck2+rY1Sp63Jr0b5gqsC6nz2ivd7B1KH3Kor+ewTnU94D7/u4svFu5T5TAMBppUWAGV0EU2wnmGI0wdTkln6/4j/kF+7Rb68reEyMvhHH45fV8anUljvrOtke7QumCqz72SPa6x1MHXqvuOi/xzJ+h90v6yMxrh7P5XQBHABAhbQIMKOLYIrtBFOMJpia3LIsv64m/6ocMgkc/fban2bK0GG0OA49r0xrPmf9Voo+BFMF1v3sEe31DKb+zPocJfrv9QOAWV9vPT6Hff4CAKeUFgFmdBFMsZ1gitEEU5Nb+l1hdMiv26PfXhPAzZRXJ4wUx6D3faWG3Jcs+hFMFVj3s0e01zOYOvS9G/33uI/ftFdxxth67O+QzwYAgNHSIsCMLoIpthNMMZpgamLLsvxjNfFX5dAb1Uf/PZbMaqa8n8tIsf+/vTke1Ya9bqIvwVSBdT97RHs9g6kvWZ+jRP893jfTBuUxth7fLe7zBwCcUloEmNFFMMV2gilGE0xNbOkXMhw9Cdzz/keH3qfmSG3fV8eiUrsKa1joF30Jpgqs+9kj2usWTK37Gi3G0OMqw0M/Zz8SY+sRTPn3BABwSmkRYEYXwRTbCaYYzUTSpJa/lmRrVwBlE4B7HHovlybG0HM5v5d8Tcd+t/tK9Xi93AwNdKI/wVSBdT97RHu9npND37PRf/uszca117RXb7axrcZawb8nAIBTSosAM7oIpthOMMVoJpImtfS7+mWK5aViHN2uvgifsj7PKva3TTL3Wh6xGb5EV/QpmCqw7mePaK/Xc/I162+U6L/H1UO/Z33NJBnzXof/6AEAoIe0CDCji2CK7QRTjCaYmtTSbxJ4iuWlYhw9l517qXudxP5+Xe1/pUM+I1q/q3FUEUxtFO31ek4OXX4z+u+xtGi7erEdr5ll495lfWwBAM4gLQLM6CKYYjvBFKMJpia09FvqbppftMdYei2f1fyR9XlGsa9fVvteqU2uH3L1WfTbZeI8CKY2ivZO+ZxE/7+uxsNG62MLAHAGaRFgRhfBFNsJphhNMDWhpd8VMIcumbUW4/m2Gl+lKQOISrGPLcDseV+pw66ui74FUwXW/ewR7fV6Tg69F1P032u/Xs762AIAnEFaBJjRRTDFdoIpRhNMTWhZlj/WE35FPmf9HSXG03M5vynupdVT7GPP+0odfd8fwVSBdT97RHvTj3GLGINgqs6hISMAQA9pEWBGF8EU2wmmGE0wNZml39Js0y1vF2Nqy/n1uuKntXvaSdLYt573lWqB11mvYhFMbRTtnTWYSsfFJqe/UhUAeD1pEWBGF8EU2wmmGE0wNZllWX5bTfSx3c/ZMX52sV//WO1npRboHX5lXYxBMFVg3c8e0V6PMR7+HZSMie0EUwDA6aRFgBldBFNsJ5hiNMHURJa/riDKJvvY5vfsOD+z2KeeV5k1U4R5MQ7BVIF1P3tEe4IpfkQwBQCcTloEmNFFMMV2gilGE0xNZOl7z6VX9Sk71s8q9qdXYNN8y/o8QoxFMFVg3c8e0d7pgqno348BagmmAIDTSYsAM7oIpthOMMVogqmJLH/d2yeb7GO7r9mxfkaxL7+u9q3SH2Gae3LFWARTBdb97BHtnTGY6rks5isSTAEAp5MWAWZ0EUyxnWCK0QRTk1iW5dNqgo8af2TH+9nEfvSeQD/8vlJvxXgEUwXW/ewR7Qmm+BHBFABwOmkRYEYXwRTbCaYYTTA1iWVZvq4m+KjzJTvmzyLG35Yba1c0ZftW4des3yPFmARTBdb97BHtCab4EcEUAHA6aRFgRhfBFNsJphhNMDWJpW/w8Op+y475s4jxf1vtT6UpPwPauFbjrCKY2ijaE0zxI4IpAOB00iLAjC6CKbYTTDGaYGoCy7J8WU3uUW+a+yc9Isb9y2o/Kv0ZpjwuMS7BVIF1P3tEe4IpfkQwBQCcTloEmNFFMMV2gilGE0xNYFmW31aTe9T7OTv2M4sxf17tQ7VplziMsQmmCqz72SPaO2Mw1fs99moEUwDA6aRFgBldBFNsJ5hiNMHUwZa/7h+UTfBR6/fs+M8qxtteF7+/GX+1r1m/s4jxCaYKrPvZI9o7XTDVJGNiO8EUAHA6aRFgRhfBFNsJphhNMHWwZVl+Xk3s0c+n7DmYUYy151V004d0MUbBVIF1P3tEe4IpfkQwBQCcTloEmNFFMMV2gilGE0wdbOl7VQx/N/VVQjcxzp5hZbuv1Oes35nEGAVTBdb97BHtCabuJ6ABADiJtAgwo4tgiu0EU4wmmDrQsiyfVpOZ9PVH9jzMJMbY7nnTwqNs/BWe4l5bMc5XC6a6BNTrfvaI9s4aTP2xGlOFae/fBgDAY9IiwIwugim2E0wxmmDqQMuyfF1NZtLf1BPGMb6eV9D9lvU5oxjrqwVT2Vh3W/ezR7R31mCqx379mvUFAMDzSYsAM7oIpthOMMVogqkDLX1+qc/Hpg1nYmw9g8r2Wvsp63dGMVbBVIF1P3tEe4Kp+z1NCAwAwMfSIsCMLoIpthNMMZpg6iDLsnxZTWQyznQBTYyp9+th+vtKvRXjFUwVWPezR7R31mDq19WYKvye9QUAwPNJiwAzugim2E4wxWiCqYMsy/JtNZHJOFPdZynG0+411vO+Utu+Ww4UY+4VTE13LGJM/1iNscy6rz2ivbMGU7+sxlTlaa5QBADgfWkRYEYXwRTbCaYYTTB1gDZhuZrAZKyprmZo41mNr9JTvsdj3D2uYmmmu/dPjOnn1RjLrPvaI9o7azDVKxic+n52AADcJy0CzOgimGI7wRSjCaYOsPT7hX7T7iXUJvWfXc+wpvmUPTejxTjavmbjq9CuwnrKqzZi3L2Oy7esvyPFmLrdW2zd1x7R3imDqSYZV4WvWV8AADyXtAgwo4tgiu0EU4wmmDrA0jd0ebpl2zKxH92uIvnu8EnjGEO3Jdy+m/J+SveIsfcKpqa7908b02qMZdZ97RHtnTmYaoF+Nr49/sj6AgDguaRFgBldBFNsJ5hiNMHUYMuyfF5NXlab4kqgCrEvPe+79GfW5yjRf1vOsef+PfXVGjH+bleSrfs6Uoyn3V8sHWeFdX97RHtnDqZ+W42rytOGwwAA/CUtAszoIphiO8EUowmmBls6LtsVprsaZI/Yn16TxTeH3QMm+u4xyX/z9K+D2Icvq32qNE1YEGPpuaxndJH3u0W0d+ZgqtcVmr9l/QEA8DzSIsCMLoIpthNMMZpgarCl71Uyp1jG7yb2p2c40Rxyv6Hot/d9pZ7+qrnYh57LHE5zNVmMpccScv+27m+PaO/MwVTPK9dOcxUrAMArSosAM7oIpthOMMVogqmBlv5By+kmQGOfuk7ch5+yfnuJ/nov5XjYVWCVYj96BgVT3PsnxtH7HmPRTd73FtHeaYOpJsbS67PmqZfVBAB4dWkRYEYXwRTbCaYYTTA10LIs31YTlpVOtYzfTexXz6UPm2FXmUVf7b5SPYO2Uy0bluxfpcOX84sx9FzO8V/Wfe4R7Z09mOr5WeOqKQCAJ5UWAWZ0EUyxnWCK0QRTgyx/hRLZhGWVn7N+n13sV+8rjIYFetFX12AyDL36q7fv+5Tta4VDQ7zov9c9jf5m3e8e0d7Zg6menzW+awEAnlRaBJjRRTDFdoIpRjNZNsiyLL+sJiqrnSqUeCv2rfdyfp+zfitFH72f/+77MFrs02+rfax2yDGLfltI3fNec/+27nuPaO/UwVQT4+n5WTPs6sxeYh9O+z0DAPCetAgwo4tgiu0EU4wmmBpk6Xv1x7esz7OI/esd6nS9B0y03/uqr6ef8M60/VrtZ7VDPv9av6txdLPue49o7xWCqd6vuae9sjXG3o7Nqb9rAAAyaRFgRhfBFNsJphhNMDXA0j+YOOUyfjexf59W+1vtz6zfCtF2uzpGKLlB7Fvv900zNNSL/npfBfY36/73iPZeIZjqveRq81Sf1zHe9j68Pff+zQAAvJy0CDCji2CK7QRTjGaSaYCl7031m9MvrxT72DPcab5k/e4V7fYMItpycKd+7r/vY7bvlbo892vRz9BQqlmPYY9o7/TBVBNjGvE8TX+VY4yx/SBgfSz8mwEAeDlpEWBGF8EU2wmmGM0k0wBL38n1l1haKfbz59V+Vys/jtFm7zH/I+v3TGIfv632uYf2/uwaTkX7w0OpZj2OPaK9Vwmmel+hedNe29MFyzGmLJC68W8GAODlpEWAGV0EU2wnmGI0k0ydLcvyZTWxV+3Uy/jdxH6OWGKrbJI42mrLX/UMJH/N+j2b2M/e4d5b5cc02myvg95X+71rPZ49or2XCKaaGNeoILF9RkzxXo5x/CP8aL/9mwEAeDlpEWBGF8EU2wmmGM0kU2dL/ys+Tr+M303sa+9jWba8VrTVM4xok9ltEvlZ3f2abY8N2THopT1vu69EizY+uupkmPW49oj2XimYas9fz2B57Y/wSxj6eR79tf1s/bb+s3Gt+TcDAPBy0iLAjC6CKbYTTDGaSaaOlv6T6i+xjN9N7G/vq2d+z/p9VLTT+55iz+6h4CceP2I5v7UWULUJ+0/ZmDLx2PZ+b1dIHjHe1HqMe0R7LxNMNTG2X1djHaUFmt2Wloy221V8bd+2hOf+zQAAvJy0CDCji2CK7QRTjGaSqaPlr4ntbHKvykss4/dW7HPvqxg+Z/3eK7bvvXTjGTwaTLWrrLJ2RmlXk7RQpk3mZ1oQddhyfR9ZH8s9or2XCqaaGN+9VxL1cnvdtc+Vhz+bYpv23mmBfmuj4vnzbwYA4OWkRYAZXQRTbCeYYjSTTB0tfSer/8z6PLvY797Lo33N+r1HbDt6+a9n9fBSebHN0QHBU1ofxz2ivVcMptrVRdm4j9aei/f0/N7xbwYA4OWkRYAZXQRTbCeYYjSTTJ0s/Sc0f8v6PbvY795XJG0O/GLbKa+amdCWYKr3Mo6ntD6Oe0R7LfRI+9lh+u+gGGO72igb+yvybwYA4OWkRYAZXQRTbCeYYjSTTJ0s/a/s6XYPktnFvve+eubhYxvbmLy+38PBVBPbCf4etD6Ge0R7LxlMNTHOae4bdjD/ZgAAXk5aBJjRRTDFdoIpRjPJ1MnSd0m3l1zG7yb2/+vqeFT7lvX7nnj80fdAejZbg6mzHucWevQIfeKw5cdyi2jvlYOpn4JgVDAFALygtAgwo4tgiu0EU4xmkqmDpf+yYy+5jN9N7P+I+758yvrOxGPdV+oxm4KpJrbtHUqO1q7+a6GHYGpyMVb3kBNMAQAvKC0CzOgimGI7wRSjmWTqYOm/7NPLLuN3E8eg93J+d38eJ9vysT3B1JmuXGkhx+fv+yWYegIx3haKv3I45d8MAMDLSYsAM7oIpthOMMVoJpmKLX/9qj6b0Kvy0sv43cRx+GV1XKr9kfWbSbblY5uDqSa2P8OVK/8Opb7vk2DqScSYXzmc8m8GAODlpEWAGV0EU2wnmGI0k0zFlv6ByUsv43cTx6F3ANj8Ozj4SLIdH9sVTDXRxjOHA38Lpb7vj2DqicS4X/WeU/7NAAC8nLQIMKOLYIrtBFOMZpKp2NJ/ibndk/pnEcei98TwXSFgsh0fK3kNRzvPGE79Ryj1fV8EU08mxt7Cqd7Lts7GvxkAgJeTFgFmdBFMsZ1gitFMMhVa/poozybzqty9vNwriOPx8+r4VLtr2cRkOz5WFq5GW+099yxXrrRg56d39kMw9aRiH9pVsq+ytN+37BgAAJxZWgSY0UUwxXaCKUYTTBValuW31SReta9Zv68qjke7YiE7TpV+zvp+K9mGj5Ve9RftPcOVK79mY7+JvwumnljsR1tatMtzOIkWvP3wsxAA4IzSIsCMLoIpthNMMZpgqtD3ybtsUq/KXfc8eiVxTHoHEj+8QiDZho91WY4y2v0Sei+l+agWVnzKxvvW98dl2++y7mePaE8w9QOxP+0qztleg3u0fWlXhKVX+gEAvIK0CDCji2CK7QRTjCaYKrL0X1bOMn6JOC69j3vzYbCQPJ6PdbtPWrTdrp76NRy9tFoLce7ez++Pz9rZZd3PHtGeYOoOsU+zvAb3aM+1K6QAAEJaBJjRRTDFdoIpRhNMFVn6X7ljGb93xLHpPQH84Wdz8ng+1i2Yuok+WjhwxNUrbTnPh/cvthFMnVDsX3sNPss90No429VRP7zCDwDglaRFgBldBFNsJ5hiNMFUgTaR931iryfL+L0jjk3ve3t9eLVa8ng+1j2Yeiv6+xzaFSw9AoIWirZQugUQm5c7i20FUycW+9leg1/DTMv8tddu++xsr11hFADAO9IiAAAA3GP560qqf4QWVLVJ+Ra23BsWtMe1x7eAoV1ZIizmYe118/310wLNkcv93V67LYjy2gUAuFNaBAAAgCrLX1dAtvDK5D3dvXm9tbC0BUctQNpyddptuxZ4tbZa+NXadTUUAMAOaREAAAAAAACqpUUAAAAAAAColhYBAAAAAACgWloEAAAAAACAamkRAAAAAAAAqqVFAAAAAAAAqJYWAQAAAAAAoFpaBAAAAAAAgGppEQAAAAAAAKqlRQAAAAAAAKiWFgEAAAAAAKBaWgQAAAAAAIBqaREAAAAAAACqpUUAAAAAAAColhYBAAAAAACgWloEAAAAAACAamkRAAAAAAAAqqVFAAAAAAAAqJYWAQAAAAAAoFpaBAAAAAAAgGppEQAAAAAAAKqlRQAAAAAAAKiWFgEAAAAAAKBaWgQAAAAAAIBqaREAAAAAAACqpUUAAAAAAAColhYBAAAAAACgWloEAAAAAACAamkRAAAAAAAAqqVFAAAAAAAAqJYWAQAAAAAAoFpaBAAAAAAAgGppEQAAAAAAAKqlRQAAAAAAAKiWFgEAAAAAAKBaWgQAAAAAAIBqaREAAAAAAACqpUUAAAAAAAColhYBAAAAAACgWloEAAAAAACAamkRAAAAAAAAqqVFAAAAAAAAqJYWAQAAAAAAoFpaBAAAAAAAgGppEQAAAAAAAKqlRQAAAAAAAKiWFgEAAAAAAKBaWgQAAAAAAIBqaREAAAAAAACqpUUAAAAAAAColhYBAAAAAACgWloEAAAAAACAamkRAAAAAAAAqqVFAAAAAAAAqJYWAQAAAAAAoFpaBAAAAAAAgGppEQAAAAAAAKqlRQAAAAAAAKiWFgEAAAAAAKBaWgQAAAAAAIBqaREAAAAAAACqpUUAAAAAAAColhYBAAAAAACgWloEAAAAAACAamkRAAAAAAAAqqVFAAAAAAAAqJYWAQAAAAAAoFpaBAAAAAAAgGppEQAAAAAAAKqlRQAAAAAAAKiWFgEAAAAAAKBaWgQAAAAAAIBqaREAAAAAAACqpUUAAAAAAAColhYBAAAAAACgWloEAAAAAACAamkRAAAAAAAAqqVFAAAAAAAAqJYWAQAAAAAAoFpaBAAAAAAAgGppEQAAAAAAAKqlRQAAAAAAAKiWFgEAAAAAAKBaWgQAAAAAAIBqaREAAAAAAACqpUUAAAAAAAColhYBAAAAAACgWloEAAAAAACAamkRAAAAAAAAqqVFAAAAAAAAqJYWAQAAAAAAoFpaBAAAAAAAgGppEQAAAAAAAKqlRQAAAAAAAKiWFgEAAAAAAKBaWgQAAAAAAIBqaREAAAAAAACqpUUAAAAAAAColhYBAAAAAACgWloEAAAAAACAamkRAAAAAAAAqqVFAAAAAAAAqJYWAQAAAAAAoFpaBAAAAAAAgGppEQAAAAAAAKqlRQAAAAAAAKiWFgEAAAAAAKBaWgQAAAAAAIBqaREAAAAAAACqpUUAAAAAAAColhYBAAAAAACgWloEAAAAAACAamkRAAAAAAAAqqVFAAAAAAAAqJYWAQAAAAAAoFpaBAAAAAAAgGppEQAAAAAAAKqlRQAAAAAAAKiWFgEAAAAAAKBaWgQAAAAAAIBqaREAAAAAAACqpUUAAAAAAAColhYBAAAAAACgWloEAAAAAACAamkRAAAAAAAAqqVFAAAAAAAAqJYWAQAAAAAAoFpaBAAAAAAAgGppEQAAAAAAAKqlRQAAAAAAAKiWFgEAAAAAAKBaWgQAAAAAAIBqaREAAAAAAACqpUUAAAAAAAColhYBAAAAAACgWloEAAAAAACAamkRAAAAAAAAqqVFAAAAAAAAqJYWAQAAAAAAoFpaBAAAAAAAgGppEQAAAAAAAKqlRQAAAAAAAKiWFgEAAAAAAKBaWgQAAAAAAIBqaREAAAAAAACqpUUAAAAAAAColhYBAAAAAACgWloEAAAAAACAamkRAAAAAAAAqqVFAAAAAAAAqJYWAQAAAAAAoFpaBAAAAAAAgGppEQAAAAAAAKqlRQAAAAAAAKiWFgEAAAAAAKBaWgQAAAAAAIBqaREAAAAAAACqpUUAAAAAAAColhYBAAAAAACgWloEAAAAAACAamkRAAAAAAAAqqVFAAAAAAAAqJYWAQAAAAAAoFpaBAAAAAAAgGppEQAAAAAAAKqlRQAAAAAAAKiWFgEAAAAAAKBaWgQAAAAAAIBqaREAAAAAAACqpUUAAAAAAAColhYBAAAAAACgWloEAAAAAACAamkRAAAAAAAAqqVFAAAAAAAAqJYWAQAAAAAAoFpaBAAAAAAAgGppEQAAAAAAAKqlRQAAAAAAAKiWFgEAAAAAAKBaWgQAAAAAAIBqaREAAAAAAACqpUUAAAAAAAColhYBAAAAAACgWloEAAAAAACAamkRAAAAAAAAqqVFAAAAAAAAqJYWAQAAAAAAoFpaBAAAAAAAgGppEQAAAAAAAKqlRQAAAAAAAKiWFgEAAAAAAKBaWgQAAAAAAIBqaREAAAAAAACqpUUAAAAAAAColhYBAAAAAACgWloEAAAAAACAamkRAAAAAAAAqqVFAAAAAAAAqJYWAQAAAAAAoFpaBAAAAAAAgGppEQAAAAAAAKqlRQAAAAAAAKiWFgEAAAAAAKBaWgQAAAAAAIBqaREAAAAAAACqpUUAAAAAAAColhYBAAAAAACgWloEAAAAAACAamkRAAAAAAAAqqVFAAAAAAAAqJYWAQAAAAAAoFpaBAAAAAAAgGppEQAAAAAAAKqlRQAAAAAAAKiWFgEAAAAAAKBaWgQAAAAAAIBqaREAAAAAAACqpUUAAAAAAAColhYBAAAAAACgWloEAAAAAACAamkRAAAAAAAAqqVFAAAAAAAAqJYWAQAAAAAAoFpaBAAAAAAAgGppEQAAAAAAAKqlRQAAAAAAAKiWFgEAAAAAAKBaWgQAAAAAAIBqaREAAAAAAACqpUUAAAAAAAColhYBAAAAAACgWloEAAAAAACAamkRAAAAAAAAqqVFAAAAAAAAqJYWAQAAAAAAoFpaBAAAAAAAgGppEQAAAAAAAKqlRQAAAAAAAKiWFgEAAAAAAKBaWgQAAAAAAIBqaREAAAAAAACqpUUAAAAAAAColhYBAAAAAACgWloEAAAAAACAamkRAAAAAAAAqqVFAAAAAAAAqJYWAQAAAAAAoFpaBAAAAAAAgGppEQAAAAAAAKqlRQAAAAAAAKiWFgEAAAAAAKBaWgQAAAAAAIBqaREAAAAAAACqpUUAAAAAAAColhYBAAAAAACgWloEAAAAAACAamkRAAAAAAAAqqVFAAAAAAAAqJYWAQAAAAAAoFpaBAAAAAAAgGppEQAAAAAAAKqlRQAAAAAAAKiWFgEAAAAAAKBaWgQAAAAAAIBqaREAAAAAAACqpUUAAAAAAAColhYBAAAAAACgWloEAAAAAACAamkRAAAAAAAAqqVFAAAAAAAAqJYWAQAAAAAAoFpaBAAAAAAAgGppEQAAAAAAAKqlRQAAAAAAAKiWFgEAAAAAAKBaWgQAAAAAAIBqaREAAAAAAACqpUUAAAAAAAColhYBAAAAAACgWloEAAAAAACAamkRAAAAAAAAqqVFAAAAAAAAqJYWAQAAAAAAoFpaBAAAAAAAgGppEQAAAAAAAKqlRQAAAAAAAKiWFgEAAAAAAKBaWgQAAAAAAIBqaREAAAAAAACqpUUAAAAAAAColhYBAAAAAACgWloEAAAAAACAamkRAAAAAAAAqqVFAAAAAAAAqJYWAQAAAAAAoFpaBAAAAAAAgFr/vPz/GhoivpSh09AAAAAASUVORK5CYII=;strokeColor=none;points=[];labelBackgroundColor=none;rounded=0;html=1;whiteSpace=wrap;" parent="1" vertex="1">
            <mxGeometry x="710" y="100" width="203" height="107" as="geometry" />
          </mxCell>
        </UserObject>
        <UserObject label="" tags="Connector" id="173">
          <mxCell style="vsdxID=199;edgeStyle=none;startArrow=none;endArrow=block;startSize=5;endSize=5;strokeWidth=2;strokeColor=#000000;spacingTop=0;spacingBottom=0;spacingLeft=0;spacingRight=0;verticalAlign=middle;html=1;labelBackgroundColor=#ffffff;rounded=0;exitX=1.02;exitY=0.5217391304347826;exitDx=0;exitDy=0;exitPerimeter=0;entryX=0.5;entryY=0;entryDx=0;entryDy=0;entryPerimeter=0;" parent="1" source="55" target="7" edge="1">
            <mxGeometry relative="1" as="geometry">
              <mxPoint y="-1" as="offset" />
              <Array as="points">
                <mxPoint x="608" y="198" />
              </Array>
            </mxGeometry>
          </mxCell>
        </UserObject>
        <UserObject label="" tags="Connector" id="174">
          <mxCell style="vsdxID=193;edgeStyle=none;startArrow=none;endArrow=block;startSize=5;endSize=5;strokeWidth=2;strokeColor=#000000;spacingTop=0;spacingBottom=0;spacingLeft=0;spacingRight=0;verticalAlign=middle;html=1;labelBackgroundColor=#ffffff;rounded=0;exitX=1.0208333333333333;exitY=0.5208333333333334;exitDx=0;exitDy=0;exitPerimeter=0;entryX=0.5;entryY=1.76;entryDx=0;entryDy=0;entryPerimeter=0;" parent="1" source="111" target="90" edge="1">
            <mxGeometry relative="1" as="geometry">
              <mxPoint x="-1" as="offset" />
              <Array as="points">
                <mxPoint x="278.96" y="321" />
              </Array>
            </mxGeometry>
          </mxCell>
        </UserObject>
        <UserObject label="" tags="Connector" id="175">
          <mxCell style="vsdxID=188;edgeStyle=none;startArrow=none;endArrow=block;startSize=5;endSize=5;strokeWidth=2;strokeColor=#000000;spacingTop=0;spacingBottom=0;spacingLeft=0;spacingRight=0;verticalAlign=middle;html=1;labelBackgroundColor=#ffffff;rounded=0;exitX=0.5;exitY=1.4166666666666667;exitDx=0;exitDy=0;exitPerimeter=0;entryX=0;entryY=0.5208333333333334;entryDx=0;entryDy=0;entryPerimeter=0;" parent="1" source="80" target="111" edge="1">
            <mxGeometry relative="1" as="geometry">
              <mxPoint y="-1" as="offset" />
              <Array as="points">
                <mxPoint x="125" y="320.92" />
              </Array>
            </mxGeometry>
          </mxCell>
        </UserObject>
        <UserObject label="" tags="Connector" id="178">
          <mxCell style="vsdxID=117;edgeStyle=none;startArrow=none;endArrow=block;startSize=5;endSize=5;strokeWidth=2;strokeColor=#000000;spacingTop=0;spacingBottom=0;spacingLeft=0;spacingRight=0;verticalAlign=middle;html=1;labelBackgroundColor=#ffffff;rounded=0;exitX=1.0208333333333333;exitY=0.5208333333333334;exitDx=0;exitDy=0;exitPerimeter=0;entryX=0;entryY=0.52;entryDx=0;entryDy=0;entryPerimeter=0;" parent="1" source="80" target="90" edge="1">
            <mxGeometry relative="1" as="geometry">
              <mxPoint x="-1" as="offset" />
              <Array as="points" />
            </mxGeometry>
          </mxCell>
        </UserObject>
        <UserObject label="" tags="Connector" id="179">
          <mxCell style="vsdxID=134;edgeStyle=none;startArrow=none;endArrow=block;startSize=5;endSize=5;strokeWidth=2;strokeColor=#000000;spacingTop=0;spacingBottom=0;spacingLeft=0;spacingRight=0;verticalAlign=middle;html=1;labelBackgroundColor=#ffffff;rounded=0;exitX=1.0208333333333333;exitY=0.5208333333333334;exitDx=0;exitDy=0;exitPerimeter=0;entryX=0;entryY=0.5208333333333334;entryDx=0;entryDy=0;entryPerimeter=0;" parent="1" source="5" target="19" edge="1">
            <mxGeometry relative="1" as="geometry">
              <mxPoint as="offset" />
              <Array as="points" />
            </mxGeometry>
          </mxCell>
        </UserObject>
        <UserObject label="" tags="Connector" id="180">
          <mxCell style="vsdxID=139;edgeStyle=none;startArrow=none;endArrow=block;startSize=5;endSize=5;strokeWidth=2;strokeColor=#000000;spacingTop=0;spacingBottom=0;spacingLeft=0;spacingRight=0;verticalAlign=middle;html=1;labelBackgroundColor=#ffffff;rounded=0;exitX=0.5208333333333334;exitY=2.1875;exitDx=0;exitDy=0;exitPerimeter=0;" parent="1" source="5" edge="1">
            <mxGeometry relative="1" as="geometry">
              <mxPoint x="12" y="-1" as="offset" />
              <Array as="points" />
              <mxPoint x="609" y="450" as="targetPoint" />
            </mxGeometry>
          </mxCell>
        </UserObject>
        <UserObject label="" tags="Connector" id="181">
          <mxCell style="vsdxID=118;edgeStyle=none;startArrow=none;endArrow=block;startSize=5;endSize=5;strokeWidth=2;strokeColor=#000000;spacingTop=0;spacingBottom=0;spacingLeft=0;spacingRight=0;verticalAlign=middle;html=1;labelBackgroundColor=#ffffff;rounded=0;exitX=0.92;exitY=0.788;exitDx=0;exitDy=0;exitPerimeter=0;entryX=0;entryY=0.5217391304347826;entryDx=0;entryDy=0;entryPerimeter=0;" parent="1" source="91" target="55" edge="1">
            <mxGeometry relative="1" as="geometry">
              <mxPoint as="offset" />
              <Array as="points">
                <mxPoint x="390" y="198" />
              </Array>
              <mxPoint x="330" y="198" as="sourcePoint" />
            </mxGeometry>
          </mxCell>
        </UserObject>
      </root>
    </mxGraphModel>
  </diagram>
</mxfile>
